<?xml version="1.0" encoding="UTF-8" standalone="no"?>
<!-- Created with Inkscape (http://www.inkscape.org/) -->
<svg
   xmlns:svg="http://www.w3.org/2000/svg"
   xmlns="http://www.w3.org/2000/svg"
   xmlns:xlink="http://www.w3.org/1999/xlink"
   version="1.0"
   width="100"
   height="100"
   id="svg2">
  <defs
     id="defs4">
    <linearGradient
       id="linearGradient3233">
      <stop
         id="stop3235"
         style="stop-color:#ffffff;stop-opacity:1"
         offset="0" />
      <stop
         id="stop3237"
         style="stop-color:#000000;stop-opacity:1"
         offset="1" />
    </linearGradient>
    <linearGradient
       id="linearGradient3225">
      <stop
         id="stop3227"
         style="stop-color:#ffffff;stop-opacity:1"
         offset="0" />
      <stop
         id="stop3229"
         style="stop-color:#000000;stop-opacity:1"
         offset="1" />
    </linearGradient>
    <linearGradient
       id="linearGradient3217">
      <stop
         id="stop3219"
         style="stop-color:#ffffff;stop-opacity:1"
         offset="0" />
      <stop
         id="stop3221"
         style="stop-color:#000000;stop-opacity:1"
         offset="1" />
    </linearGradient>
    <linearGradient
       id="linearGradient3201">
      <stop
         id="stop3203"
         style="stop-color:#ffffff;stop-opacity:1"
         offset="0" />
      <stop
         id="stop3205"
         style="stop-color:#000000;stop-opacity:1"
         offset="1" />
    </linearGradient>
    <linearGradient
       id="linearGradient3193">
      <stop
         id="stop3195"
         style="stop-color:#ffffff;stop-opacity:1"
         offset="0" />
      <stop
         id="stop3197"
         style="stop-color:#000000;stop-opacity:1"
         offset="1" />
    </linearGradient>
    <linearGradient
       id="linearGradient3185">
      <stop
         id="stop3187"
         style="stop-color:#ffffff;stop-opacity:1"
         offset="0" />
      <stop
         id="stop3189"
         style="stop-color:#000000;stop-opacity:1"
         offset="1" />
    </linearGradient>
    <linearGradient
       id="linearGradient3177">
      <stop
         id="stop3179"
         style="stop-color:#ffffff;stop-opacity:1"
         offset="0" />
      <stop
         id="stop3181"
         style="stop-color:#000000;stop-opacity:1"
         offset="1" />
    </linearGradient>
    <radialGradient
       cx="-114.36427"
       cy="50.687511"
       r="5.9232488"
       fx="-114.36427"
       fy="50.687511"
       id="radialGradient3183"
       xlink:href="#linearGradient3177"
       gradientUnits="userSpaceOnUse" />
    <radialGradient
       cx="-114.36427"
       cy="50.687511"
       r="5.9232488"
       fx="-114.36427"
       fy="50.687511"
       id="radialGradient3191"
       xlink:href="#linearGradient3185"
       gradientUnits="userSpaceOnUse" />
    <radialGradient
       cx="-114.36427"
       cy="50.687511"
       r="5.9232488"
       fx="-114.36427"
       fy="50.687511"
       id="radialGradient3199"
       xlink:href="#linearGradient3193"
       gradientUnits="userSpaceOnUse" />
    <radialGradient
       cx="-114.36427"
       cy="50.687511"
       r="5.9232488"
       fx="-114.36427"
       fy="50.687511"
       id="radialGradient3207"
       xlink:href="#linearGradient3201"
       gradientUnits="userSpaceOnUse" />
    <radialGradient
       cx="-114.36427"
       cy="50.687511"
       r="5.9232488"
       fx="-114.36427"
       fy="50.687511"
       id="radialGradient3223"
       xlink:href="#linearGradient3217"
       gradientUnits="userSpaceOnUse" />
    <radialGradient
       cx="-114.36427"
       cy="50.687511"
       r="5.9232488"
       fx="-114.36427"
       fy="50.687511"
       id="radialGradient3231"
       xlink:href="#linearGradient3225"
       gradientUnits="userSpaceOnUse" />
    <radialGradient
       cx="-114.36427"
       cy="50.687511"
       r="5.9232488"
       fx="-114.36427"
       fy="50.687511"
       id="radialGradient3239"
       xlink:href="#linearGradient3233"
       gradientUnits="userSpaceOnUse" />
  </defs>
  <g
     id="layer1">
    <g
       transform="translate(0.9999988,1.0000012)"
       id="busywidget-shadow"
       style="fill:#000000;fill-opacity:0.31372549">
      <path
         d="M -108.44102,50.687511 A 5.9232488,5.9232488 0 1 1 -120.28752,50.687511 A 5.9232488,5.9232488 0 1 1 -108.44102,50.687511 z"
         transform="matrix(1.0129576,0,0,1.0129576,165.84616,41.655699)"
         id="path3186"
         style="opacity:0.4;fill:#000000;fill-opacity:0.31372549;fill-rule:nonzero;stroke:none;stroke-width:6.69999981;stroke-linecap:round;stroke-linejoin:round;stroke-miterlimit:4;stroke-dasharray:none;stroke-dashoffset:0;stroke-opacity:1" />
      <path
         d="M -108.44102,50.687511 A 5.9232488,5.9232488 0 1 1 -120.28752,50.687511 A 5.9232488,5.9232488 0 1 1 -108.44102,50.687511 z"
         transform="matrix(1.0129576,0,0,1.0129576,165.84616,-44.3443)"
         id="path3188"
         style="opacity:1;fill:#000000;fill-opacity:0.31372549;fill-rule:nonzero;stroke:none;stroke-width:6.69999981;stroke-linecap:round;stroke-linejoin:round;stroke-miterlimit:4;stroke-dasharray:none;stroke-dashoffset:0;stroke-opacity:1" />
      <path
         d="M -108.44102,50.687511 A 5.9232488,5.9232488 0 1 1 -120.28752,50.687511 A 5.9232488,5.9232488 0 1 1 -108.44102,50.687511 z"
         transform="matrix(0,1.0129576,-1.0129576,0,58.344301,165.84616)"
         id="path3190"
         style="opacity:0.7;fill:#000000;fill-opacity:0.31372549;fill-rule:nonzero;stroke:none;stroke-width:6.69999981;stroke-linecap:round;stroke-linejoin:round;stroke-miterlimit:4;stroke-dasharray:none;stroke-dashoffset:0;stroke-opacity:1" />
      <path
         d="M -108.44102,50.687511 A 5.9232488,5.9232488 0 1 1 -120.28752,50.687511 A 5.9232488,5.9232488 0 1 1 -108.44102,50.687511 z"
         transform="matrix(0,1.0129576,-1.0129576,0,144.3443,165.84616)"
         id="path3192"
         style="opacity:0.1;fill:#000000;fill-opacity:0.31372549;fill-rule:nonzero;stroke:none;stroke-width:6.69999981;stroke-linecap:round;stroke-linejoin:round;stroke-miterlimit:4;stroke-dasharray:none;stroke-dashoffset:0;stroke-opacity:1" />
      <path
         d="M -108.44102,50.687511 A 5.9232488,5.9232488 0 1 1 -120.28752,50.687511 A 5.9232488,5.9232488 0 1 1 -108.44102,50.687511 z"
         transform="matrix(0.7162692,0.7162692,-0.7162692,0.7162692,137.81592,126.01529)"
         id="path3194"
         style="opacity:0.55;fill:#000000;fill-opacity:0.31372549;fill-rule:nonzero;stroke:none;stroke-width:6.69999981;stroke-linecap:round;stroke-linejoin:round;stroke-miterlimit:4;stroke-dasharray:none;stroke-dashoffset:0;stroke-opacity:1" />
      <path
         d="M -108.44102,50.687511 A 5.9232488,5.9232488 0 1 1 -120.28752,50.687511 A 5.9232488,5.9232488 0 1 1 -108.44102,50.687511 z"
         transform="matrix(0.7162692,0.7162692,-0.7162692,0.7162692,198.6271,65.20411)"
         id="path3196"
         style="opacity:0;fill:#000000;fill-opacity:0.31372549;fill-rule:nonzero;stroke:none;stroke-width:6.69999981;stroke-linecap:round;stroke-linejoin:round;stroke-miterlimit:4;stroke-dasharray:none;stroke-dashoffset:0;stroke-opacity:1" />
      <path
         d="M -108.44102,50.687511 A 5.9232488,5.9232488 0 1 1 -120.28752,50.687511 A 5.9232488,5.9232488 0 1 1 -108.44102,50.687511 z"
         transform="matrix(-0.7162692,0.7162692,-0.7162692,-0.7162692,-26.015294,137.81592)"
         id="path3198"
         style="opacity:0.85;fill:#000000;fill-opacity:0.31372549;fill-rule:nonzero;stroke:none;stroke-width:6.69999981;stroke-linecap:round;stroke-linejoin:round;stroke-miterlimit:4;stroke-dasharray:none;stroke-dashoffset:0;stroke-opacity:1" />
      <path
         d="M -108.44102,50.687511 A 5.9232488,5.9232488 0 1 1 -120.28752,50.687511 A 5.9232488,5.9232488 0 1 1 -108.44102,50.687511 z"
         transform="matrix(-0.7162692,0.7162692,-0.7162692,-0.7162692,34.795889,198.6271)"
         id="path3200"
         style="opacity:0.25;fill:#000000;fill-opacity:0.31372549;fill-rule:nonzero;stroke:none;stroke-width:6.69999981;stroke-linecap:round;stroke-linejoin:round;stroke-miterlimit:4;stroke-dasharray:none;stroke-dashoffset:0;stroke-opacity:1" />
    </g>
    <rect
       width="45"
       height="8.5051775"
       x="13.061523"
       y="110.07188"
       id="hint-rotation-angle"
       style="opacity:1;fill:#60a500;fill-opacity:1;fill-rule:nonzero;stroke:none;stroke-width:6.69999981;stroke-linecap:round;stroke-linejoin:round;stroke-miterlimit:4;stroke-dasharray:none;stroke-dashoffset:0;stroke-opacity:1" />
    <g
       id="busywidget">
      <path
         d="M -108.44102,50.687511 A 5.9232488,5.9232488 0 1 1 -120.28752,50.687511 A 5.9232488,5.9232488 0 1 1 -108.44102,50.687511 z"
         transform="matrix(1.0129576,0,0,1.0129576,165.84616,41.655699)"
         id="path3156"
         style="opacity:0.4;fill:url(#radialGradient3223);fill-opacity:1;fill-rule:nonzero;stroke:none;stroke-width:6.69999981;stroke-linecap:round;stroke-linejoin:round;stroke-miterlimit:4;stroke-dasharray:none;stroke-dashoffset:0;stroke-opacity:1" />
      <path
         d="M -108.44102,50.687511 A 5.9232488,5.9232488 0 1 1 -120.28752,50.687511 A 5.9232488,5.9232488 0 1 1 -108.44102,50.687511 z"
         transform="matrix(1.0129576,0,0,1.0129576,165.84616,-44.3443)"
         id="path3158"
         style="opacity:1;fill:url(#radialGradient3183);fill-opacity:1;fill-rule:nonzero;stroke:none;stroke-width:6.69999981;stroke-linecap:round;stroke-linejoin:round;stroke-miterlimit:4;stroke-dasharray:none;stroke-dashoffset:0;stroke-opacity:1" />
      <path
         d="M -108.44102,50.687511 A 5.9232488,5.9232488 0 1 1 -120.28752,50.687511 A 5.9232488,5.9232488 0 1 1 -108.44102,50.687511 z"
         transform="matrix(0,1.0129576,-1.0129576,0,58.344301,165.84616)"
         id="path3162"
         style="opacity:0.7;fill:url(#radialGradient3199);fill-opacity:1;fill-rule:nonzero;stroke:none;stroke-width:6.69999981;stroke-linecap:round;stroke-linejoin:round;stroke-miterlimit:4;stroke-dasharray:none;stroke-dashoffset:0;stroke-opacity:1" />
      <path
         d="M -108.44102,50.687511 A 5.9232488,5.9232488 0 1 1 -120.28752,50.687511 A 5.9232488,5.9232488 0 1 1 -108.44102,50.687511 z"
         transform="matrix(0,1.0129576,-1.0129576,0,144.3443,165.84616)"
         id="path3164"
         style="opacity:0.1;fill:url(#radialGradient3239);fill-opacity:1;fill-rule:nonzero;stroke:none;stroke-width:6.69999981;stroke-linecap:round;stroke-linejoin:round;stroke-miterlimit:4;stroke-dasharray:none;stroke-dashoffset:0;stroke-opacity:1" />
      <path
         d="M -108.44102,50.687511 A 5.9232488,5.9232488 0 1 1 -120.28752,50.687511 A 5.9232488,5.9232488 0 1 1 -108.44102,50.687511 z"
         transform="matrix(0.7162692,0.7162692,-0.7162692,0.7162692,137.81592,126.01529)"
         id="path3166"
         style="opacity:0.55;fill:url(#radialGradient3207);fill-opacity:1;fill-rule:nonzero;stroke:none;stroke-width:6.69999981;stroke-linecap:round;stroke-linejoin:round;stroke-miterlimit:4;stroke-dasharray:none;stroke-dashoffset:0;stroke-opacity:1" />
      <path
         d="M -108.44102,50.687511 A 5.9232488,5.9232488 0 1 1 -120.28752,50.687511 A 5.9232488,5.9232488 0 1 1 -108.44102,50.687511 z"
         transform="matrix(0.7162692,0.7162692,-0.7162692,0.7162692,198.6271,65.20411)"
         id="path3168"
         style="opacity:0;fill:#ffffff;fill-opacity:1;fill-rule:nonzero;stroke:none;stroke-width:6.69999981;stroke-linecap:round;stroke-linejoin:round;stroke-miterlimit:4;stroke-dasharray:none;stroke-dashoffset:0;stroke-opacity:1" />
      <path
         d="M -108.44102,50.687511 A 5.9232488,5.9232488 0 1 1 -120.28752,50.687511 A 5.9232488,5.9232488 0 1 1 -108.44102,50.687511 z"
         transform="matrix(-0.7162692,0.7162692,-0.7162692,-0.7162692,-26.015294,137.81592)"
         id="path3170"
         style="opacity:0.85;fill:url(#radialGradient3191);fill-opacity:1;fill-rule:nonzero;stroke:none;stroke-width:6.69999981;stroke-linecap:round;stroke-linejoin:round;stroke-miterlimit:4;stroke-dasharray:none;stroke-dashoffset:0;stroke-opacity:1" />
      <path
         d="M -108.44102,50.687511 A 5.9232488,5.9232488 0 1 1 -120.28752,50.687511 A 5.9232488,5.9232488 0 1 1 -108.44102,50.687511 z"
         transform="matrix(-0.7162692,0.7162692,-0.7162692,-0.7162692,34.795889,198.6271)"
         id="path3172"
         style="opacity:0.25;fill:url(#radialGradient3231);fill-opacity:1;fill-rule:nonzero;stroke:none;stroke-width:6.69999981;stroke-linecap:round;stroke-linejoin:round;stroke-miterlimit:4;stroke-dasharray:none;stroke-dashoffset:0;stroke-opacity:1" />
    </g>
  </g>
</svg>
