<?xml version="1.0" encoding="UTF-8" standalone="no"?>
<!-- Created with Inkscape (http://www.inkscape.org/) -->

<svg
   xmlns:dc="http://purl.org/dc/elements/1.1/"
   xmlns:cc="http://creativecommons.org/ns#"
   xmlns:rdf="http://www.w3.org/1999/02/22-rdf-syntax-ns#"
   xmlns:svg="http://www.w3.org/2000/svg"
   xmlns="http://www.w3.org/2000/svg"
   xmlns:xlink="http://www.w3.org/1999/xlink"
   xmlns:sodipodi="http://sodipodi.sourceforge.net/DTD/sodipodi-0.dtd"
   xmlns:inkscape="http://www.inkscape.org/namespaces/inkscape"
   version="1.0"
   width="248"
   height="248"
   id="svg3642"
   inkscape:version="0.47pre4 r22446"
   sodipodi:docname="panel-background.svg">
  <metadata
     id="metadata1019">
    <rdf:RDF>
      <cc:Work
         rdf:about="">
        <dc:format>image/svg+xml</dc:format>
        <dc:type
           rdf:resource="http://purl.org/dc/dcmitype/StillImage" />
      </cc:Work>
    </rdf:RDF>
  </metadata>
  <sodipodi:namedview
     pagecolor="#ffffff"
     bordercolor="#666666"
     borderopacity="1"
     objecttolerance="10"
     gridtolerance="10"
     guidetolerance="10"
     inkscape:pageopacity="0"
     inkscape:pageshadow="2"
     inkscape:window-width="1280"
     inkscape:window-height="968"
     id="namedview1017"
     showgrid="true"
     inkscape:zoom="8.6701953"
     inkscape:cx="109.58381"
     inkscape:cy="148.95579"
     inkscape:window-x="-14"
     inkscape:window-y="0"
     inkscape:window-maximized="1"
     inkscape:current-layer="svg3642"
     inkscape:snap-bbox="true"
     inkscape:snap-nodes="false">
    <inkscape:grid
       type="xygrid"
       id="grid3247" />
  </sodipodi:namedview>
  <defs
     id="defs3644">
    <linearGradient
       id="linearGradient3933">
      <stop
         style="stop-color:#333333;stop-opacity:1"
         offset="0"
         id="stop3935" />
      <stop
         id="stop3941"
         offset="0.5"
         style="stop-color:#666666;stop-opacity:1" />
      <stop
         style="stop-color:#333333;stop-opacity:1"
         offset="1"
         id="stop3937" />
    </linearGradient>
    <linearGradient
       id="linearGradient4207">
      <stop
         id="stop4209"
         style="stop-color:#333333;stop-opacity:0.80000001"
         offset="0" />
      <stop
         id="stop4211"
         style="stop-color:#000000;stop-opacity:1"
         offset="1" />
    </linearGradient>
    <linearGradient
       id="linearGradient4201">
      <stop
         id="stop4203"
         style="stop-color:#333333;stop-opacity:0.80000001"
         offset="0" />
      <stop
         id="stop4205"
         style="stop-color:#000000;stop-opacity:1"
         offset="1" />
    </linearGradient>
    <linearGradient
       id="linearGradient4195">
      <stop
         id="stop4197"
         style="stop-color:#333333;stop-opacity:0.80000001"
         offset="0" />
      <stop
         id="stop4199"
         style="stop-color:#000000;stop-opacity:1"
         offset="1" />
    </linearGradient>
    <linearGradient
       id="linearGradient4189">
      <stop
         id="stop4191"
         style="stop-color:#333333;stop-opacity:0.80000001"
         offset="0" />
      <stop
         id="stop4193"
         style="stop-color:#000000;stop-opacity:1"
         offset="1" />
    </linearGradient>
    <linearGradient
       id="linearGradient4183">
      <stop
         id="stop4185"
         style="stop-color:#333333;stop-opacity:0.80000001"
         offset="0" />
      <stop
         id="stop4187"
         style="stop-color:#000000;stop-opacity:1"
         offset="1" />
    </linearGradient>
    <linearGradient
       id="linearGradient4177">
      <stop
         id="stop4179"
         style="stop-color:#333333;stop-opacity:0.80000001"
         offset="0" />
      <stop
         id="stop4181"
         style="stop-color:#000000;stop-opacity:1"
         offset="1" />
    </linearGradient>
    <linearGradient
       id="linearGradient4171">
      <stop
         id="stop4173"
         style="stop-color:#333333;stop-opacity:0.80000001"
         offset="0" />
      <stop
         id="stop4175"
         style="stop-color:#000000;stop-opacity:1"
         offset="1" />
    </linearGradient>
    <linearGradient
       id="linearGradient4165">
      <stop
         id="stop4167"
         style="stop-color:#333333;stop-opacity:0.80000001"
         offset="0" />
      <stop
         id="stop4169"
         style="stop-color:#000000;stop-opacity:1"
         offset="1" />
    </linearGradient>
    <linearGradient
       id="linearGradient4159">
      <stop
         id="stop4161"
         style="stop-color:#333333;stop-opacity:0.80000001"
         offset="0" />
      <stop
         id="stop4163"
         style="stop-color:#000000;stop-opacity:1"
         offset="1" />
    </linearGradient>
    <linearGradient
       id="linearGradient4153">
      <stop
         id="stop4155"
         style="stop-color:#333333;stop-opacity:0.80000001"
         offset="0" />
      <stop
         id="stop4157"
         style="stop-color:#000000;stop-opacity:1"
         offset="1" />
    </linearGradient>
    <linearGradient
       id="linearGradient4147">
      <stop
         id="stop4149"
         style="stop-color:#333333;stop-opacity:0.80000001"
         offset="0" />
      <stop
         id="stop4151"
         style="stop-color:#000000;stop-opacity:1"
         offset="1" />
    </linearGradient>
    <linearGradient
       id="linearGradient4140">
      <stop
         id="stop4142"
         style="stop-color:#333333;stop-opacity:0.80000001"
         offset="0" />
      <stop
         id="stop4144"
         style="stop-color:#000000;stop-opacity:1"
         offset="1" />
    </linearGradient>
    <linearGradient
       id="linearGradient4122">
      <stop
         id="stop4124"
         style="stop-color:#333333;stop-opacity:0.8"
         offset="0" />
      <stop
         offset="0.68800271"
         style="stop-color:#191919;stop-opacity:0.89803922;"
         id="stop3244" />
      <stop
         id="stop4126"
         style="stop-color:#000000;stop-opacity:1"
         offset="1" />
    </linearGradient>
    <linearGradient
       x1="24.721029"
       y1="22.042919"
       x2="24.721029"
       y2="27.004925"
       id="linearGradient3681"
       xlink:href="#linearGradient4201"
       gradientUnits="userSpaceOnUse"
       gradientTransform="matrix(-1,0,0,1,49,-2.4463519e-8)" />
    <linearGradient
       x1="24.721029"
       y1="22.042919"
       x2="24.721029"
       y2="27.004925"
       id="linearGradient3667"
       xlink:href="#linearGradient4207"
       gradientUnits="userSpaceOnUse"
       gradientTransform="matrix(-1,0,0,1,49,0)" />
    <linearGradient
       x1="24.721029"
       y1="22.042919"
       x2="24.721029"
       y2="27.004925"
       id="linearGradient2660"
       xlink:href="#linearGradient4195"
       gradientUnits="userSpaceOnUse"
       gradientTransform="matrix(-1,0,0,1,49,0)" />
    <linearGradient
       x1="15.234486"
       y1="24.5"
       x2="20.234486"
       y2="24.5"
       id="linearGradient3426"
       xlink:href="#linearGradient3420"
       gradientUnits="userSpaceOnUse"
       gradientTransform="matrix(0,1,-0.9186915,0,40.507942,6.765514)" />
    <linearGradient
       x1="85.354691"
       y1="10.897341"
       x2="87.600868"
       y2="10.897341"
       id="linearGradient3670"
       gradientUnits="userSpaceOnUse"
       gradientTransform="scale(0.4452011,2.2461761)">
      <stop
         id="stop3672"
         style="stop-color:#707070;stop-opacity:1"
         offset="0" />
      <stop
         id="stop3221"
         style="stop-color:#ffffff;stop-opacity:0.28158844"
         offset="0.44262296" />
      <stop
         id="stop3675"
         style="stop-color:#ffffff;stop-opacity:0"
         offset="1" />
    </linearGradient>
    <linearGradient
       id="linearGradient3420">
      <stop
         id="stop3422"
         style="stop-color:#312e2d;stop-opacity:1"
         offset="0" />
      <stop
         id="stop3424"
         style="stop-color:#312e2d;stop-opacity:0"
         offset="1" />
    </linearGradient>
    <linearGradient
       id="linearGradient4146">
      <stop
         id="stop4148"
         style="stop-color:#333333;stop-opacity:1"
         offset="0" />
      <stop
         id="stop4150"
         style="stop-color:#333333;stop-opacity:0"
         offset="1" />
    </linearGradient>
    <linearGradient
       id="linearGradient4160">
      <stop
         id="stop4162"
         style="stop-color:#4d4d4d;stop-opacity:1"
         offset="0" />
      <stop
         id="stop4164"
         style="stop-color:#000000;stop-opacity:1"
         offset="1" />
    </linearGradient>
    <linearGradient
       x1="15.234486"
       y1="24.5"
       x2="20.234486"
       y2="24.5"
       id="linearGradient4307"
       xlink:href="#linearGradient3420"
       gradientUnits="userSpaceOnUse"
       gradientTransform="matrix(0,1,-0.9186915,0,40.507942,6.765514)" />
    <linearGradient
       x1="9.5"
       y1="21.954693"
       x2="9.5"
       y2="27"
       id="linearGradient4309"
       xlink:href="#linearGradient4146"
       gradientUnits="userSpaceOnUse"
       gradientTransform="matrix(-1,0,0,1,49,0)" />
    <linearGradient
       x1="85.354691"
       y1="10.897341"
       x2="87.600868"
       y2="10.897341"
       id="linearGradient4311"
       xlink:href="#linearGradient3670"
       gradientUnits="userSpaceOnUse"
       gradientTransform="scale(0.4452011,2.2461761)" />
    <linearGradient
       x1="39.513863"
       y1="22.100363"
       x2="39.513863"
       y2="27.158842"
       id="linearGradient4313"
       xlink:href="#linearGradient4146"
       gradientUnits="userSpaceOnUse"
       gradientTransform="matrix(-1,0,0,1,49,0)" />
    <linearGradient
       x1="39.513863"
       y1="27.14567"
       x2="39.513863"
       y2="22.100363"
       id="linearGradient4315"
       xlink:href="#linearGradient4160"
       gradientUnits="userSpaceOnUse"
       gradientTransform="matrix(-0.3302811,0,0,1,23.550682,0)" />
    <linearGradient
       x1="24.721029"
       y1="22.042919"
       x2="24.721029"
       y2="27.004925"
       id="linearGradient4508"
       xlink:href="#linearGradient4147"
       gradientUnits="userSpaceOnUse"
       gradientTransform="matrix(-1,0,0,1,49,-2.4463526e-8)" />
    <linearGradient
       x1="24.721029"
       y1="22.042919"
       x2="24.721029"
       y2="27.004925"
       id="linearGradient4510"
       xlink:href="#linearGradient4140"
       gradientUnits="userSpaceOnUse"
       gradientTransform="matrix(-1,0,0,1,49,0)" />
    <linearGradient
       x1="9.5"
       y1="21.954693"
       x2="9.5"
       y2="27"
       id="linearGradient4512"
       xlink:href="#linearGradient4146"
       gradientUnits="userSpaceOnUse"
       gradientTransform="matrix(-1,0,0,1,49,0)" />
    <linearGradient
       x1="85.354691"
       y1="10.897341"
       x2="87.600868"
       y2="10.897341"
       id="linearGradient4514"
       xlink:href="#linearGradient3670"
       gradientUnits="userSpaceOnUse"
       gradientTransform="scale(0.4452011,2.2461761)" />
    <linearGradient
       x1="24.721029"
       y1="22.042919"
       x2="24.721029"
       y2="27.004925"
       id="linearGradient4516"
       xlink:href="#linearGradient4153"
       gradientUnits="userSpaceOnUse"
       gradientTransform="matrix(-1,0,0,1,49,0)" />
    <linearGradient
       x1="39.513863"
       y1="22.100363"
       x2="39.513863"
       y2="27.158842"
       id="linearGradient4518"
       xlink:href="#linearGradient4146"
       gradientUnits="userSpaceOnUse"
       gradientTransform="matrix(-1,0,0,1,49,0)" />
    <linearGradient
       x1="39.513863"
       y1="27.14567"
       x2="39.513863"
       y2="22.100363"
       id="linearGradient4520"
       xlink:href="#linearGradient4160"
       gradientUnits="userSpaceOnUse"
       gradientTransform="matrix(-0.3302811,0,0,1,23.550682,0)" />
    <linearGradient
       x1="24.721029"
       y1="22.042919"
       x2="24.721029"
       y2="27.004925"
       id="linearGradient4632"
       xlink:href="#linearGradient4165"
       gradientUnits="userSpaceOnUse"
       gradientTransform="matrix(-1,0,0,1,49,-2.4463596e-8)" />
    <linearGradient
       x1="24.721029"
       y1="22.042919"
       x2="24.721029"
       y2="27.004925"
       id="linearGradient4634"
       xlink:href="#linearGradient4159"
       gradientUnits="userSpaceOnUse"
       gradientTransform="matrix(-1,0,0,1,49,0)" />
    <linearGradient
       x1="9.5"
       y1="21.954693"
       x2="9.5"
       y2="27"
       id="linearGradient4636"
       xlink:href="#linearGradient4146"
       gradientUnits="userSpaceOnUse"
       gradientTransform="matrix(-1,0,0,1,49,0)" />
    <linearGradient
       x1="85.354691"
       y1="10.897341"
       x2="87.600868"
       y2="10.897341"
       id="linearGradient4638"
       xlink:href="#linearGradient3670"
       gradientUnits="userSpaceOnUse"
       gradientTransform="scale(0.4452011,2.2461761)" />
    <linearGradient
       x1="24.721029"
       y1="22.042919"
       x2="24.721029"
       y2="27.004925"
       id="linearGradient4640"
       xlink:href="#linearGradient4171"
       gradientUnits="userSpaceOnUse"
       gradientTransform="matrix(-1,0,0,1,49,0)" />
    <linearGradient
       x1="39.513863"
       y1="22.100363"
       x2="39.513863"
       y2="27.158842"
       id="linearGradient4642"
       xlink:href="#linearGradient4146"
       gradientUnits="userSpaceOnUse"
       gradientTransform="matrix(-1,0,0,1,49,0)" />
    <linearGradient
       x1="39.513863"
       y1="27.14567"
       x2="39.513863"
       y2="22.100363"
       id="linearGradient4644"
       xlink:href="#linearGradient4160"
       gradientUnits="userSpaceOnUse"
       gradientTransform="matrix(-0.3302811,0,0,1,23.550682,0)" />
    <linearGradient
       x1="24.721029"
       y1="22.042919"
       x2="24.721029"
       y2="27.004925"
       id="linearGradient4756"
       xlink:href="#linearGradient4183"
       gradientUnits="userSpaceOnUse"
       gradientTransform="matrix(-1,0,0,1,49,-2.4463563e-8)" />
    <linearGradient
       x1="24.721029"
       y1="22.042919"
       x2="24.721029"
       y2="27.004925"
       id="linearGradient4758"
       xlink:href="#linearGradient4189"
       gradientUnits="userSpaceOnUse"
       gradientTransform="matrix(-1,0,0,1,49,0)" />
    <linearGradient
       x1="9.5"
       y1="21.954693"
       x2="9.5"
       y2="27"
       id="linearGradient4760"
       xlink:href="#linearGradient4146"
       gradientUnits="userSpaceOnUse"
       gradientTransform="matrix(-1,0,0,1,49,0)" />
    <linearGradient
       x1="85.354691"
       y1="10.897341"
       x2="87.600868"
       y2="10.897341"
       id="linearGradient4762"
       xlink:href="#linearGradient3670"
       gradientUnits="userSpaceOnUse"
       gradientTransform="scale(0.4452011,2.2461761)" />
    <linearGradient
       x1="24.721029"
       y1="22.042919"
       x2="24.721029"
       y2="27.004925"
       id="linearGradient4764"
       xlink:href="#linearGradient4177"
       gradientUnits="userSpaceOnUse"
       gradientTransform="matrix(-1,0,0,1,49,0)" />
    <linearGradient
       x1="39.513863"
       y1="22.100363"
       x2="39.513863"
       y2="27.158842"
       id="linearGradient4766"
       xlink:href="#linearGradient4146"
       gradientUnits="userSpaceOnUse"
       gradientTransform="matrix(-1,0,0,1,49,0)" />
    <linearGradient
       x1="39.513863"
       y1="27.14567"
       x2="39.513863"
       y2="22.100363"
       id="linearGradient4769"
       xlink:href="#linearGradient4160"
       gradientUnits="userSpaceOnUse"
       gradientTransform="matrix(-0.3302811,0,0,1,23.550682,0)" />
    <linearGradient
       x1="121.93456"
       y1="161.48364"
       x2="122.66821"
       y2="195.23709"
       id="linearGradient3337"
       xlink:href="#linearGradient4122"
       gradientUnits="userSpaceOnUse"
       gradientTransform="matrix(1.0007118,0,0,0.9979958,-0.02134768,-0.16)" />
    <linearGradient
       x1="121.74617"
       y1="161.09084"
       x2="121.74617"
       y2="195.00674"
       id="linearGradient4112"
       xlink:href="#linearGradient4122"
       gradientUnits="userSpaceOnUse"
       gradientTransform="matrix(0,1.0007119,-0.9979958,0,247.03271,-3.9434524)" />
    <linearGradient
       x1="121.74617"
       y1="161.09084"
       x2="121.74617"
       y2="195.35442"
       id="linearGradient4116"
       xlink:href="#linearGradient4122"
       gradientUnits="userSpaceOnUse"
       gradientTransform="matrix(0,1.000712,0.9979958,0,1.3153432,-4.3101705)" />
    <linearGradient
       x1="121.74617"
       y1="161.09084"
       x2="121.74617"
       y2="195.13113"
       id="linearGradient4120"
       xlink:href="#linearGradient4122"
       gradientUnits="userSpaceOnUse"
       gradientTransform="matrix(1.0007118,0,0,-0.9979958,-0.06687268,243.54214)" />
    <linearGradient
       inkscape:collect="always"
       xlink:href="#linearGradient3933"
       id="linearGradient3939"
       x1="93.99999"
       y1="160.44406"
       x2="153.99999"
       y2="160.44406"
       gradientUnits="userSpaceOnUse" />
    <linearGradient
       inkscape:collect="always"
       xlink:href="#linearGradient3933"
       id="linearGradient3949"
       x1="164.26779"
       y1="173.38603"
       x2="169.3131"
       y2="173.38603"
       gradientUnits="userSpaceOnUse" />
    <linearGradient
       inkscape:collect="always"
       xlink:href="#linearGradient3933"
       id="linearGradient3957"
       x1="164.26779"
       y1="173.38603"
       x2="169.3131"
       y2="173.38603"
       gradientUnits="userSpaceOnUse" />
    <linearGradient
       inkscape:collect="always"
       xlink:href="#linearGradient3933"
       id="linearGradient3965"
       x1="164.26779"
       y1="173.38603"
       x2="169.3131"
       y2="173.38603"
       gradientUnits="userSpaceOnUse" />
  </defs>
  <rect
     width="6"
     height="6"
     x="104.03903"
     y="217.06238"
     id="south-mini-hint-left-margin"
     style="opacity:0.875;fill:#008000;fill-opacity:1;stroke:none" />
  <rect
     width="6"
     height="6"
     x="121.61625"
     y="203.26067"
     id="south-mini-hint-top-margin"
     style="opacity:0.875;fill:#008000;fill-opacity:1;stroke:none" />
  <rect
     width="6"
     height="6"
     x="121.61625"
     y="234.21284"
     id="south-mini-hint-bottom-margin"
     style="opacity:0.875;fill:#008000;fill-opacity:1;stroke:none" />
  <rect
     width="6"
     height="6"
     x="136.55388"
     y="217.06238"
     id="south-mini-hint-right-margin"
     style="opacity:0.875;fill:#008000;fill-opacity:1;stroke:none" />
  <rect
     width="6"
     height="6"
     x="102.62177"
     y="23.423893"
     id="north-mini-hint-left-margin"
     style="opacity:0.875;fill:#008000;fill-opacity:1;stroke:none" />
  <rect
     width="6"
     height="6"
     x="121.40601"
     y="8.8398085"
     id="north-mini-hint-top-margin"
     style="opacity:0.875;fill:#008000;fill-opacity:1;stroke:none" />
  <rect
     width="6"
     height="6"
     x="121.40601"
     y="40.976711"
     id="north-mini-hint-bottom-margin"
     style="opacity:0.875;fill:#008000;fill-opacity:1;stroke:none" />
  <rect
     width="6"
     height="6"
     x="136.34363"
     y="23.501865"
     id="north-mini-hint-right-margin"
     style="opacity:0.875;fill:#008000;fill-opacity:1;stroke:none" />
  <rect
     width="6"
     height="6"
     x="4.3848114"
     y="118.72013"
     id="west-mini-hint-left-margin"
     style="opacity:0.875;fill:#008000;fill-opacity:1;stroke:none" />
  <rect
     width="6"
     height="6"
     x="22.163185"
     y="102.13605"
     id="west-mini-hint-top-margin"
     style="opacity:0.875;fill:#008000;fill-opacity:1;stroke:none" />
  <rect
     width="6"
     height="6"
     x="21.760849"
     y="136.47412"
     id="west-mini-hint-bottom-margin"
     style="opacity:0.875;fill:#008000;fill-opacity:1;stroke:none" />
  <rect
     width="6"
     height="6"
     x="39.267475"
     y="118.65585"
     id="west-mini-hint-right-margin"
     style="opacity:0.875;fill:#008000;fill-opacity:1;stroke:none" />
  <rect
     width="6"
     height="6"
     x="203.7523"
     y="118.63991"
     id="east-mini-hint-left-margin"
     style="opacity:0.875;fill:#008000;fill-opacity:1;stroke:none" />
  <rect
     width="6"
     height="6"
     x="222.1342"
     y="102.05583"
     id="east-mini-hint-top-margin"
     style="opacity:0.875;fill:#008000;fill-opacity:1;stroke:none" />
  <rect
     width="6"
     height="6"
     x="222.1342"
     y="137.39973"
     id="east-mini-hint-bottom-margin"
     style="opacity:0.875;fill:#008000;fill-opacity:1;stroke:none" />
  <rect
     width="6"
     height="6"
     x="239.07182"
     y="118.63991"
     id="east-mini-hint-right-margin"
     style="opacity:0.875;fill:#008000;fill-opacity:1;stroke:none" />
  <rect
     width="5"
     height="5"
     x="121.99999"
     y="95.902908"
     id="north-hint-bottom-margin"
     style="opacity:0.875;fill:#008000;fill-opacity:1;stroke:none" />
  <rect
     width="5"
     height="5"
     x="96.134399"
     y="120.58651"
     id="west-hint-right-margin"
     style="opacity:0.875;fill:#008000;fill-opacity:1;stroke:none" />
  <rect
     width="5"
     height="5"
     x="147.90555"
     y="122.21079"
     id="east-hint-left-margin"
     style="opacity:0.875;fill:#008000;fill-opacity:1;stroke:none" />
  <rect
     width="4.2070103"
     height="4"
     x="71.753067"
     y="75.735054"
     id="hint-stretch-borders"
     style="opacity:0.875;fill:#008000;fill-opacity:1;stroke:none;stroke-width:0;stroke-miterlimit:4;stroke-dasharray:none;stroke-opacity:1" />
  <g
     transform="translate(160.72707,196.8466)"
     id="layer2"
     style="display:none">
    <g
       id="g3522">
      <path
         d="M 20,14.437707 L 18.468853,16 L 15.968853,18.5 L 14.468972,20 L 14.468972,21 L 21,21 L 21,14.437707 L 20,14.437707 z"
         id="path3404"
         style="fill:#1a1a1a;fill-opacity:1;fill-rule:evenodd;stroke:none;stroke-width:1px;stroke-linecap:butt;stroke-linejoin:miter;stroke-opacity:1" />
      <path
         d="M 12.84375,12 C 12.715046,11.999998 12.5907,12.064936 12.5,12.15625 C 12.327223,12.328905 12.318238,12.588878 12.46875,12.78125 C 12.483773,12.801169 12.485185,12.823958 12.5,12.84375 C 13.959964,14.794127 14.415201,16.128438 14.625,17.125 C 14.730964,17.628339 14.770077,18.042575 14.84375,18.4375 C 14.878774,18.625243 14.932415,18.818451 15,19 C 15.003499,19.009399 14.996371,19.021887 15,19.03125 L 14,20 L 14,21 L 15,21 L 15,20 L 15.375,19.625 C 15.434536,19.692402 15.567265,19.811951 15.78125,19.90625 C 16.066561,20.031983 16.559047,20.013086 16.90625,19.6875 C 16.906249,19.6875 17.058592,19.544293 17.21875,19.34375 C 17.25211,19.538232 17.253632,19.738672 17.1875,20 C 17.127126,20.20732 17.223356,20.416461 17.40625,20.53125 C 17.589144,20.646037 17.808307,20.644516 17.96875,20.5 C 18.065058,20.418507 18.055298,20.337029 18.125,20.25 C 18.130008,20.2302 18.151718,20.207154 18.15625,20.1875 C 18.367968,19.899299 18.558861,19.575176 18.59375,19.375 C 18.641634,19.100266 18.627069,19.104019 18.75,19 C 18.750001,19 18.807057,18.97234 18.9375,18.96875 C 19.067944,18.965161 19.235149,18.960833 19.40625,19 C 19.748453,19.078334 20.0625,19.21875 20.0625,19.21875 C 20.288312,19.321182 20.562807,19.245576 20.6875,19.03125 C 20.812192,18.816923 20.76315,18.520682 20.5625,18.375 C 20.519185,18.340619 20.479872,18.34372 20.4375,18.3125 C 20.4375,18.312501 20.408249,18.313353 20.40625,18.3125 C 19.973072,18.00185 19.589517,17.823914 19.25,17.71875 C 19.267365,17.705248 19.34375,17.65625 19.34375,17.65625 C 19.354351,17.648012 19.365121,17.634091 19.375,17.625 C 19.727159,17.305249 19.787174,16.858506 19.71875,16.5625 C 19.650322,16.266494 19.5,16.03125 19.5,16.03125 C 19.418006,15.934349 19.313897,15.853826 19.21875,15.78125 L 20,15 L 21,15 L 21,14 L 20,14 L 18.53125,15.46875 C 18.497019,15.455916 18.471813,15.418388 18.4375,15.40625 C 18.057119,15.271688 17.671677,15.152679 17.1875,14.96875 C 16.228768,14.604545 14.928307,13.927721 13.21875,12.1875 C 13.201589,12.17003 13.204751,12.173941 13.1875,12.15625 C 13.0968,12.064938 12.972454,11.999998 12.84375,12 z"
         id="path2512"
         style="fill:#4d4d4d;fill-opacity:1;fill-rule:evenodd;stroke:none;stroke-width:1px;stroke-linecap:butt;stroke-linejoin:miter;stroke-opacity:1" />
      <path
         d="M 13.194193,12.851273 C 15.969396,16.530514 15.008213,18.100852 15.77627,18.980302 C 15.800183,19.007683 16.172154,19.447608 16.584835,19.060621 C 16.584835,19.060621 17.101559,18.585989 17.177066,18.010018 C 17.604626,18.728197 17.72075,19.134034 17.561543,19.763159 C 18.193516,19.228409 17.81107,18.787525 18.256582,18.410549 C 18.702095,18.033575 19.90156,18.547625 19.90156,18.547625 C 19.04755,17.869724 18.586111,18.043358 17.68041,17.560219 C 18.27229,17.593234 18.812402,17.175745 18.812402,17.175745 C 19.23999,16.787509 18.88094,16.353256 18.88094,16.353256 C 18.126989,15.462229 16.414907,16.15354 13.194193,12.851273 z"
         id="path3361"
         style="fill:#00ff0c;fill-opacity:1;stroke:none;stroke-width:1.5;stroke-linecap:round;stroke-miterlimit:4;stroke-opacity:1" />
    </g>
    <path
       d="M 21,27 L 20.971277,22 L 15,22 L 15,27 L 21,27 z"
       id="path3406"
       style="fill:url(#linearGradient3426);fill-opacity:1;fill-rule:evenodd;stroke:none;stroke-width:1px;stroke-linecap:butt;stroke-linejoin:miter;stroke-opacity:1" />
    <path
       d="M 26.984012,21.984114 L 21.984266,22.039923 L 22.015988,27.015886 L 27.015886,26.984012 L 26.984012,21.984114 z"
       id="path3410"
       style="fill:#1a1a1a;fill-opacity:1;fill-rule:nonzero;stroke:none;stroke-width:1px;stroke-linecap:butt;stroke-linejoin:miter;stroke-opacity:1" />
    <g
       id="g3518">
      <path
         d="M 14,22 L 14,27 L 15,27 L 15,22 L 14,22 z"
         id="path3408"
         style="fill:#4d4d4d;fill-opacity:1;fill-rule:evenodd;stroke:none;stroke-width:1px;stroke-linecap:butt;stroke-linejoin:miter;stroke-opacity:1" />
      <path
         d="M 21,27 L 20.971277,22 L 15,22 L 15,27 L 21,27 z"
         id="path3474"
         style="fill:#1a1a1a;fill-opacity:1;fill-rule:nonzero;stroke:none;stroke-width:1px;stroke-linecap:butt;stroke-linejoin:miter;stroke-opacity:1" />
    </g>
    <g
       id="g3527">
      <path
         d="M 20,34.562293 L 18.468853,33 L 15.968853,30.5 L 14.468972,29 L 14.468972,28 L 21,28 L 21,34.562293 L 20,34.562293 z"
         id="path3496"
         style="fill:#1a1a1a;fill-opacity:1;fill-rule:evenodd;stroke:none;stroke-width:1px;stroke-linecap:butt;stroke-linejoin:miter;stroke-opacity:1" />
      <path
         d="M 12.84375,37 C 12.715046,37.000002 12.5907,36.935064 12.5,36.84375 C 12.327223,36.671095 12.318238,36.411122 12.46875,36.21875 C 12.483773,36.198831 12.485185,36.176042 12.5,36.15625 C 13.959964,34.205873 14.415201,32.871562 14.625,31.875 C 14.730964,31.371661 14.770077,30.957425 14.84375,30.5625 C 14.878774,30.374757 14.932415,30.181549 15,30 C 15.003499,29.990601 14.996371,29.978113 15,29.96875 L 14,29 L 14,28 L 15,28 L 15,29 L 15.375,29.375 C 15.434536,29.307598 15.567265,29.188049 15.78125,29.09375 C 16.066561,28.968017 16.559047,28.986914 16.90625,29.3125 C 16.906249,29.3125 17.058592,29.455707 17.21875,29.65625 C 17.25211,29.461768 17.253632,29.261328 17.1875,29 C 17.127126,28.79268 17.223356,28.583539 17.40625,28.46875 C 17.589144,28.353963 17.808307,28.355484 17.96875,28.5 C 18.065058,28.581493 18.055298,28.662971 18.125,28.75 C 18.130008,28.7698 18.151718,28.792846 18.15625,28.8125 C 18.367968,29.100701 18.558861,29.424824 18.59375,29.625 C 18.641634,29.899734 18.627069,29.895981 18.75,30 C 18.750001,30 18.807057,30.02766 18.9375,30.03125 C 19.067944,30.034839 19.235149,30.039167 19.40625,30 C 19.748453,29.921666 20.0625,29.78125 20.0625,29.78125 C 20.288312,29.678818 20.562807,29.754424 20.6875,29.96875 C 20.812192,30.183077 20.76315,30.479318 20.5625,30.625 C 20.519185,30.659381 20.479872,30.65628 20.4375,30.6875 C 20.4375,30.687499 20.408249,30.686647 20.40625,30.6875 C 19.973072,30.99815 19.589517,31.176086 19.25,31.28125 C 19.267365,31.294752 19.34375,31.34375 19.34375,31.34375 C 19.354351,31.351988 19.365121,31.365909 19.375,31.375 C 19.727159,31.694751 19.787174,32.141494 19.71875,32.4375 C 19.650322,32.733506 19.5,32.96875 19.5,32.96875 C 19.418006,33.065651 19.313897,33.146174 19.21875,33.21875 L 20,34 L 21,34 L 21,35 L 20,35 L 18.53125,33.53125 C 18.497019,33.544084 18.471813,33.581612 18.4375,33.59375 C 18.057119,33.728312 17.671677,33.847321 17.1875,34.03125 C 16.228768,34.395455 14.928307,35.072279 13.21875,36.8125 C 13.201589,36.82997 13.204751,36.826059 13.1875,36.84375 C 13.0968,36.935062 12.972454,37.000002 12.84375,37 z"
         id="path3498"
         style="fill:#4d4d4d;fill-opacity:1;fill-rule:evenodd;stroke:none;stroke-width:1px;stroke-linecap:butt;stroke-linejoin:miter;stroke-opacity:1" />
      <path
         d="M 13.194193,36.148727 C 15.969396,32.469486 15.008213,30.899148 15.77627,30.019698 C 15.800183,29.992317 16.172154,29.552392 16.584835,29.939379 C 16.584835,29.939379 17.101559,30.414011 17.177066,30.989982 C 17.604626,30.271803 17.72075,29.865966 17.561543,29.236841 C 18.193516,29.771591 17.81107,30.212475 18.256582,30.589451 C 18.702095,30.966425 19.90156,30.452375 19.90156,30.452375 C 19.04755,31.130276 18.586111,30.956642 17.68041,31.439781 C 18.27229,31.406766 18.812402,31.824255 18.812402,31.824255 C 19.23999,32.212491 18.88094,32.646744 18.88094,32.646744 C 18.126989,33.537771 16.414907,32.84646 13.194193,36.148727 z"
         id="path3502"
         style="fill:#00ff0c;fill-opacity:1;stroke:none;stroke-width:1.5;stroke-linecap:round;stroke-miterlimit:4;stroke-opacity:1" />
    </g>
    <g
       id="g3532">
      <path
         d="M 29,14.406457 L 30.531147,15.96875 L 33.031147,18.46875 L 34.531028,19.96875 L 34.531028,20.96875 L 28,20.96875 L 28,14.406457 L 29,14.406457 z"
         id="path3506"
         style="fill:#1a1a1a;fill-opacity:1;fill-rule:evenodd;stroke:none;stroke-width:1px;stroke-linecap:butt;stroke-linejoin:miter;stroke-opacity:1" />
      <path
         d="M 36.15625,11.96875 C 36.284954,11.968748 36.4093,12.033686 36.5,12.125 C 36.672777,12.297655 36.681762,12.557628 36.53125,12.75 C 36.516227,12.769919 36.514815,12.792708 36.5,12.8125 C 35.040036,14.762877 34.584799,16.097188 34.375,17.09375 C 34.269036,17.597089 34.229923,18.011325 34.15625,18.40625 C 34.121226,18.593993 34.067585,18.787201 34,18.96875 C 33.996501,18.978149 34.003629,18.990637 34,19 L 35,19.96875 L 35,20.96875 L 34,20.96875 L 34,19.96875 L 33.625,19.59375 C 33.565464,19.661152 33.432735,19.780701 33.21875,19.875 C 32.933439,20.000733 32.440953,19.981836 32.09375,19.65625 C 32.093751,19.65625 31.941408,19.513043 31.78125,19.3125 C 31.74789,19.506982 31.746368,19.707422 31.8125,19.96875 C 31.872874,20.17607 31.776644,20.385211 31.59375,20.5 C 31.410856,20.614787 31.191693,20.613266 31.03125,20.46875 C 30.934942,20.387257 30.944702,20.305779 30.875,20.21875 C 30.869992,20.19895 30.848282,20.175904 30.84375,20.15625 C 30.632032,19.868049 30.441139,19.543926 30.40625,19.34375 C 30.358366,19.069016 30.372931,19.072769 30.25,18.96875 C 30.249999,18.96875 30.192943,18.94109 30.0625,18.9375 C 29.932056,18.933911 29.764851,18.929583 29.59375,18.96875 C 29.251547,19.047084 28.9375,19.1875 28.9375,19.1875 C 28.711688,19.289932 28.437193,19.214326 28.3125,19 C 28.187808,18.785673 28.23685,18.489432 28.4375,18.34375 C 28.480815,18.309369 28.520128,18.31247 28.5625,18.28125 C 28.5625,18.281251 28.591751,18.282103 28.59375,18.28125 C 29.026928,17.9706 29.410483,17.792664 29.75,17.6875 C 29.732635,17.673998 29.65625,17.625 29.65625,17.625 C 29.645649,17.616762 29.634879,17.602841 29.625,17.59375 C 29.272841,17.273999 29.212826,16.827256 29.28125,16.53125 C 29.349678,16.235244 29.5,16 29.5,16 C 29.581994,15.903099 29.686103,15.822576 29.78125,15.75 L 29,14.96875 L 28,14.96875 L 28,13.96875 L 29,13.96875 L 30.46875,15.4375 C 30.502981,15.424666 30.528187,15.387138 30.5625,15.375 C 30.942881,15.240438 31.328323,15.121429 31.8125,14.9375 C 32.771232,14.573295 34.071693,13.896471 35.78125,12.15625 C 35.798411,12.13878 35.795249,12.142691 35.8125,12.125 C 35.9032,12.033688 36.027546,11.968748 36.15625,11.96875 z"
         id="path3508"
         style="fill:#4d4d4d;fill-opacity:1;fill-rule:evenodd;stroke:none;stroke-width:1px;stroke-linecap:butt;stroke-linejoin:miter;stroke-opacity:1" />
      <path
         d="M 35.805807,12.820023 C 33.030604,16.499264 33.991787,18.069602 33.22373,18.949052 C 33.199817,18.976433 32.827846,19.416358 32.415165,19.029371 C 32.415165,19.029371 31.898441,18.554739 31.822934,17.978768 C 31.395374,18.696947 31.27925,19.102784 31.438457,19.731909 C 30.806484,19.197159 31.18893,18.756275 30.743418,18.379299 C 30.297905,18.002325 29.09844,18.516375 29.09844,18.516375 C 29.95245,17.838474 30.413889,18.012108 31.31959,17.528969 C 30.72771,17.561984 30.187598,17.144495 30.187598,17.144495 C 29.76001,16.756259 30.11906,16.322006 30.11906,16.322006 C 30.873011,15.430979 32.585093,16.12229 35.805807,12.820023 z"
         id="path3510"
         style="fill:#00ff0c;fill-opacity:1;stroke:none;stroke-width:1.5;stroke-linecap:round;stroke-miterlimit:4;stroke-opacity:1" />
    </g>
    <g
       transform="translate(0,1)"
       id="g3537">
      <path
         d="M 29,33.562293 L 30.531147,32 L 33.031147,29.5 L 34.531028,28 L 34.531028,27 L 28,27 L 28,33.562293 L 29,33.562293 z"
         id="path3512"
         style="fill:#1a1a1a;fill-opacity:1;fill-rule:evenodd;stroke:none;stroke-width:1px;stroke-linecap:butt;stroke-linejoin:miter;stroke-opacity:1" />
      <path
         d="M 36.15625,36 C 36.284954,36.000002 36.4093,35.935064 36.5,35.84375 C 36.672777,35.671095 36.681762,35.411122 36.53125,35.21875 C 36.516227,35.198831 36.514815,35.176042 36.5,35.15625 C 35.040036,33.205873 34.584799,31.871562 34.375,30.875 C 34.269036,30.371661 34.229923,29.957425 34.15625,29.5625 C 34.121226,29.374757 34.067585,29.181549 34,29 C 33.996501,28.990601 34.003629,28.978113 34,28.96875 L 35,28 L 35,27 L 34,27 L 34,28 L 33.625,28.375 C 33.565464,28.307598 33.432735,28.188049 33.21875,28.09375 C 32.933439,27.968017 32.440953,27.986914 32.09375,28.3125 C 32.093751,28.3125 31.941408,28.455707 31.78125,28.65625 C 31.74789,28.461768 31.746368,28.261328 31.8125,28 C 31.872874,27.79268 31.776644,27.583539 31.59375,27.46875 C 31.410856,27.353963 31.191693,27.355484 31.03125,27.5 C 30.934942,27.581493 30.944702,27.662971 30.875,27.75 C 30.869992,27.7698 30.848282,27.792846 30.84375,27.8125 C 30.632032,28.100701 30.441139,28.424824 30.40625,28.625 C 30.358366,28.899734 30.372931,28.895981 30.25,29 C 30.249999,29 30.192943,29.02766 30.0625,29.03125 C 29.932056,29.034839 29.764851,29.039167 29.59375,29 C 29.251547,28.921666 28.9375,28.78125 28.9375,28.78125 C 28.711688,28.678818 28.437193,28.754424 28.3125,28.96875 C 28.187808,29.183077 28.23685,29.479318 28.4375,29.625 C 28.480815,29.659381 28.520128,29.65628 28.5625,29.6875 C 28.5625,29.687499 28.591751,29.686647 28.59375,29.6875 C 29.026928,29.99815 29.410483,30.176086 29.75,30.28125 C 29.732635,30.294752 29.65625,30.34375 29.65625,30.34375 C 29.645649,30.351988 29.634879,30.365909 29.625,30.375 C 29.272841,30.694751 29.212826,31.141494 29.28125,31.4375 C 29.349678,31.733506 29.5,31.96875 29.5,31.96875 C 29.581994,32.065651 29.686103,32.146174 29.78125,32.21875 L 29,33 L 28,33 L 28,34 L 29,34 L 30.46875,32.53125 C 30.502981,32.544084 30.528187,32.581612 30.5625,32.59375 C 30.942881,32.728312 31.328323,32.847321 31.8125,33.03125 C 32.771232,33.395455 34.071693,34.072279 35.78125,35.8125 C 35.798411,35.82997 35.795249,35.826059 35.8125,35.84375 C 35.9032,35.935062 36.027546,36.000002 36.15625,36 z"
         id="path3514"
         style="fill:#4d4d4d;fill-opacity:1;fill-rule:evenodd;stroke:none;stroke-width:1px;stroke-linecap:butt;stroke-linejoin:miter;stroke-opacity:1" />
      <path
         d="M 35.805807,35.148727 C 33.030604,31.469486 33.991787,29.899148 33.22373,29.019698 C 33.199817,28.992317 32.827846,28.552392 32.415165,28.939379 C 32.415165,28.939379 31.898441,29.414011 31.822934,29.989982 C 31.395374,29.271803 31.27925,28.865966 31.438457,28.236841 C 30.806484,28.771591 31.18893,29.212475 30.743418,29.589451 C 30.297905,29.966425 29.09844,29.452375 29.09844,29.452375 C 29.95245,30.130276 30.413889,29.956642 31.31959,30.439781 C 30.72771,30.406766 30.187598,30.824255 30.187598,30.824255 C 29.76001,31.212491 30.11906,31.646744 30.11906,31.646744 C 30.873011,32.537771 32.585093,31.84646 35.805807,35.148727 z"
         id="path3516"
         style="fill:#00ff0c;fill-opacity:1;stroke:none;stroke-width:1.5;stroke-linecap:round;stroke-miterlimit:4;stroke-opacity:1" />
    </g>
    <g
       transform="matrix(-1,0,0,-1,49.028723,49)"
       id="g3542">
      <path
         d="M 14,22 L 14,27 L 15,27 L 15,22 L 14,22 z"
         id="path3544"
         style="fill:#4d4d4d;fill-opacity:1;fill-rule:evenodd;stroke:none;stroke-width:1px;stroke-linecap:butt;stroke-linejoin:miter;stroke-opacity:1" />
      <path
         d="M 21,27 L 20.971277,22 L 15,22 L 15,27 L 21,27 z"
         id="path3546"
         style="fill:#1a1a1a;fill-opacity:1;fill-rule:nonzero;stroke:none;stroke-width:1px;stroke-linecap:butt;stroke-linejoin:miter;stroke-opacity:1" />
    </g>
    <g
       transform="matrix(0,1,-1,0,49,2.8723e-2)"
       id="g3548">
      <path
         d="M 14,22 L 14,27 L 15,27 L 15,22 L 14,22 z"
         id="path3550"
         style="fill:#4d4d4d;fill-opacity:1;fill-rule:evenodd;stroke:none;stroke-width:1px;stroke-linecap:butt;stroke-linejoin:miter;stroke-opacity:1" />
      <path
         d="M 21,27 L 20.971277,22 L 15,22 L 15,27 L 21,27 z"
         id="path3552"
         style="fill:#1a1a1a;fill-opacity:1;fill-rule:nonzero;stroke:none;stroke-width:1px;stroke-linecap:butt;stroke-linejoin:miter;stroke-opacity:1" />
    </g>
    <g
       transform="matrix(0,-1,1,0,0,49.028723)"
       id="g3554">
      <path
         d="M 14,22 L 14,27 L 15,27 L 15,22 L 14,22 z"
         id="path3556"
         style="fill:#4d4d4d;fill-opacity:1;fill-rule:evenodd;stroke:none;stroke-width:1px;stroke-linecap:butt;stroke-linejoin:miter;stroke-opacity:1" />
      <path
         d="M 21,27 L 20.971277,22 L 15,22 L 15,27 L 21,27 z"
         id="path3558"
         style="fill:#1a1a1a;fill-opacity:1;fill-rule:nonzero;stroke:none;stroke-width:1px;stroke-linecap:butt;stroke-linejoin:miter;stroke-opacity:1" />
    </g>
  </g>
  <g
     id="south-top"
     transform="matrix(1,0,0,1.0228855,0,-3.6159026)"
     style="fill-opacity:1;fill:url(#linearGradient3939)">
    <path
       sodipodi:nodetypes="ccccc"
       style="fill:url(#linearGradient3939);fill-opacity:1;stroke:none"
       id="path2721"
       d="m 93.99999,159.95525 l 1.2e-5,0.97762 l 59.999988,0 l -1e-5,-0.97762 l -59.99999,0 z" />
  </g>
  <path
     d="m 94,161 l 60,0 l 0,34 l -60,0 l 0,-34 z"
     id="south-center"
     style="fill:url(#linearGradient3337);fill-opacity:1;stroke:none" />
  <rect
     width="5"
     height="5"
     x="121"
     y="150"
     id="south-hint-top-margin"
     style="opacity:0.875;fill:#008000;fill-opacity:1;stroke:none" />
  <g
     transform="matrix(0,11.892233,-0.28755546,0,140.3581,-1863.5108)"
     id="west-right"
     style="fill-opacity:1.0;fill:url(#linearGradient3949)">
    <path
       d="m 164.26779,171.64723 l 0,3.30081 l 5.04531,0 l 0,-3.30081 l -5.04531,0 z"
       id="path3087"
       style="fill:url(#linearGradient3949);fill-opacity:1.0;stroke:none" />
    <path
       d="m 164.26779,173.94804 l 0,1.17678 l 5.04531,0 l 0,-1.17678 l -5.04531,0 z"
       id="path3089"
       style="fill:url(#linearGradient3949);fill-opacity:1.0;stroke:none" />
  </g>
  <g
     transform="matrix(0,11.892233,0.28755689,0,104.64166,-1863.6826)"
     id="east-left"
     style="fill-opacity:1.0;fill:url(#linearGradient3957)">
    <path
       d="m 164.26779,171.64723 l 0,3.30081 l 5.04531,0 l 0,-3.30081 l -5.04531,0 z"
       id="path3482"
       style="fill:url(#linearGradient3957);fill-opacity:1.0;stroke:none" />
    <path
       d="m 164.26779,173.94804 l 0,1.17678 l 5.04531,0 l 0,-1.17678 l -5.04531,0 z"
       id="path3484"
       style="fill:url(#linearGradient3957);fill-opacity:1.0;stroke:none" />
  </g>
  <g
     transform="matrix(11.892233,0,0,-0.28755493,-1859.5563,136.35801)"
     id="north-bottom"
     style="fill-opacity:1.0;fill:url(#linearGradient3965)">
    <path
       d="m 164.26779,171.64723 l 0,3.30081 l 5.04531,0 l 0,-3.30081 l -5.04531,0 z"
       id="path3494"
       style="fill:url(#linearGradient3965);fill-opacity:1.0;stroke:none" />
    <path
       d="m 164.26779,173.94804 l 0,1.17678 l 5.04531,0 l 0,-1.17678 l -5.04531,0 z"
       id="path3497"
       style="fill:url(#linearGradient3965);fill-opacity:1.0;stroke:none" />
  </g>
  <g
     transform="matrix(-0.6153846,0,0,-0.6153846,138.60521,41.999745)"
     id="north-mini-bottomright">
    <path
       d="M 9.96875,7.9999998 C 8.884527,7.9999998 8,8.8165909 8,9.8437498 L 8,21 L 10,21 L 10,12 L 12,10 L 21,10 L 21,7.9999998 L 9.96875,7.9999998 z"
       id="path4148"
       style="fill:#333333;fill-opacity:1;stroke:none;stroke-width:1.5;stroke-linecap:round;stroke-miterlimit:4;stroke-opacity:1" />
    <path
       d="M 12,10.512605 C 11.115421,10.512605 10.393768,11.171368 10.393768,12 L 10.393768,21 L 21,21 L 21,10.512605 L 12,10.512605 z"
       id="path4150"
       style="opacity:0.8;fill:#333333;fill-opacity:1;stroke:none;stroke-width:1.5;stroke-linecap:round;stroke-miterlimit:4;stroke-opacity:1" />
    <path
       d="M 11.665865,10 C 10.748446,10 10,10.690962 10,11.560096 L 10,21 L 11,21 L 11,12.613734 C 11,11.609112 11.665236,11 12.665236,11 L 21,11 L 21,10 L 11.665865,10 z"
       id="path4163"
       style="fill:#000000;fill-opacity:1;stroke:none;stroke-width:1.5;stroke-linecap:round;stroke-miterlimit:4;stroke-opacity:1" />
  </g>
  <g
     transform="matrix(0.5999578,0,0,0.5999578,130.56145,-4.3900461)"
     id="g4165"
     style="display:none">
    <g
       id="g4167">
      <path
         d="M 20,14.437707 L 18.468853,16 L 15.968853,18.5 L 14.468972,20 L 14.468972,21 L 21,21 L 21,14.437707 L 20,14.437707 z"
         id="path4169"
         style="fill:#1a1a1a;fill-opacity:1;fill-rule:evenodd;stroke:none;stroke-width:1px;stroke-linecap:butt;stroke-linejoin:miter;stroke-opacity:1" />
      <path
         d="M 12.84375,12 C 12.715046,11.999998 12.5907,12.064936 12.5,12.15625 C 12.327223,12.328905 12.318238,12.588878 12.46875,12.78125 C 12.483773,12.801169 12.485185,12.823958 12.5,12.84375 C 13.959964,14.794127 14.415201,16.128438 14.625,17.125 C 14.730964,17.628339 14.770077,18.042575 14.84375,18.4375 C 14.878774,18.625243 14.932415,18.818451 15,19 C 15.003499,19.009399 14.996371,19.021887 15,19.03125 L 14,20 L 14,21 L 15,21 L 15,20 L 15.375,19.625 C 15.434536,19.692402 15.567265,19.811951 15.78125,19.90625 C 16.066561,20.031983 16.559047,20.013086 16.90625,19.6875 C 16.906249,19.6875 17.058592,19.544293 17.21875,19.34375 C 17.25211,19.538232 17.253632,19.738672 17.1875,20 C 17.127126,20.20732 17.223356,20.416461 17.40625,20.53125 C 17.589144,20.646037 17.808307,20.644516 17.96875,20.5 C 18.065058,20.418507 18.055298,20.337029 18.125,20.25 C 18.130008,20.2302 18.151718,20.207154 18.15625,20.1875 C 18.367968,19.899299 18.558861,19.575176 18.59375,19.375 C 18.641634,19.100266 18.627069,19.104019 18.75,19 C 18.750001,19 18.807057,18.97234 18.9375,18.96875 C 19.067944,18.965161 19.235149,18.960833 19.40625,19 C 19.748453,19.078334 20.0625,19.21875 20.0625,19.21875 C 20.288312,19.321182 20.562807,19.245576 20.6875,19.03125 C 20.812192,18.816923 20.76315,18.520682 20.5625,18.375 C 20.519185,18.340619 20.479872,18.34372 20.4375,18.3125 C 20.4375,18.312501 20.408249,18.313353 20.40625,18.3125 C 19.973072,18.00185 19.589517,17.823914 19.25,17.71875 C 19.267365,17.705248 19.34375,17.65625 19.34375,17.65625 C 19.354351,17.648012 19.365121,17.634091 19.375,17.625 C 19.727159,17.305249 19.787174,16.858506 19.71875,16.5625 C 19.650322,16.266494 19.5,16.03125 19.5,16.03125 C 19.418006,15.934349 19.313897,15.853826 19.21875,15.78125 L 20,15 L 21,15 L 21,14 L 20,14 L 18.53125,15.46875 C 18.497019,15.455916 18.471813,15.418388 18.4375,15.40625 C 18.057119,15.271688 17.671677,15.152679 17.1875,14.96875 C 16.228768,14.604545 14.928307,13.927721 13.21875,12.1875 C 13.201589,12.17003 13.204751,12.173941 13.1875,12.15625 C 13.0968,12.064938 12.972454,11.999998 12.84375,12 z"
         id="path4171"
         style="fill:#4d4d4d;fill-opacity:1;fill-rule:evenodd;stroke:none;stroke-width:1px;stroke-linecap:butt;stroke-linejoin:miter;stroke-opacity:1" />
      <path
         d="M 13.194193,12.851273 C 15.969396,16.530514 15.008213,18.100852 15.77627,18.980302 C 15.800183,19.007683 16.172154,19.447608 16.584835,19.060621 C 16.584835,19.060621 17.101559,18.585989 17.177066,18.010018 C 17.604626,18.728197 17.72075,19.134034 17.561543,19.763159 C 18.193516,19.228409 17.81107,18.787525 18.256582,18.410549 C 18.702095,18.033575 19.90156,18.547625 19.90156,18.547625 C 19.04755,17.869724 18.586111,18.043358 17.68041,17.560219 C 18.27229,17.593234 18.812402,17.175745 18.812402,17.175745 C 19.23999,16.787509 18.88094,16.353256 18.88094,16.353256 C 18.126989,15.462229 16.414907,16.15354 13.194193,12.851273 z"
         id="path4173"
         style="fill:#00ff0c;fill-opacity:1;stroke:none;stroke-width:1.5;stroke-linecap:round;stroke-miterlimit:4;stroke-opacity:1" />
    </g>
    <path
       d="M 21,27 L 20.971277,22 L 15,22 L 15,27 L 21,27 z"
       id="path4175"
       style="fill:url(#linearGradient4307);fill-opacity:1;fill-rule:evenodd;stroke:none;stroke-width:1px;stroke-linecap:butt;stroke-linejoin:miter;stroke-opacity:1" />
    <path
       d="M 26.984012,21.984114 L 21.984266,22.039923 L 22.015988,27.015886 L 27.015886,26.984012 L 26.984012,21.984114 z"
       id="path4177"
       style="fill:#1a1a1a;fill-opacity:1;fill-rule:nonzero;stroke:none;stroke-width:1px;stroke-linecap:butt;stroke-linejoin:miter;stroke-opacity:1" />
    <g
       id="g4179">
      <path
         d="M 14,22 L 14,27 L 15,27 L 15,22 L 14,22 z"
         id="path4181"
         style="fill:#4d4d4d;fill-opacity:1;fill-rule:evenodd;stroke:none;stroke-width:1px;stroke-linecap:butt;stroke-linejoin:miter;stroke-opacity:1" />
      <path
         d="M 21,27 L 20.971277,22 L 15,22 L 15,27 L 21,27 z"
         id="path4183"
         style="fill:#1a1a1a;fill-opacity:1;fill-rule:nonzero;stroke:none;stroke-width:1px;stroke-linecap:butt;stroke-linejoin:miter;stroke-opacity:1" />
    </g>
    <g
       id="g4185">
      <path
         d="M 20,34.562293 L 18.468853,33 L 15.968853,30.5 L 14.468972,29 L 14.468972,28 L 21,28 L 21,34.562293 L 20,34.562293 z"
         id="path4187"
         style="fill:#1a1a1a;fill-opacity:1;fill-rule:evenodd;stroke:none;stroke-width:1px;stroke-linecap:butt;stroke-linejoin:miter;stroke-opacity:1" />
      <path
         d="M 12.84375,37 C 12.715046,37.000002 12.5907,36.935064 12.5,36.84375 C 12.327223,36.671095 12.318238,36.411122 12.46875,36.21875 C 12.483773,36.198831 12.485185,36.176042 12.5,36.15625 C 13.959964,34.205873 14.415201,32.871562 14.625,31.875 C 14.730964,31.371661 14.770077,30.957425 14.84375,30.5625 C 14.878774,30.374757 14.932415,30.181549 15,30 C 15.003499,29.990601 14.996371,29.978113 15,29.96875 L 14,29 L 14,28 L 15,28 L 15,29 L 15.375,29.375 C 15.434536,29.307598 15.567265,29.188049 15.78125,29.09375 C 16.066561,28.968017 16.559047,28.986914 16.90625,29.3125 C 16.906249,29.3125 17.058592,29.455707 17.21875,29.65625 C 17.25211,29.461768 17.253632,29.261328 17.1875,29 C 17.127126,28.79268 17.223356,28.583539 17.40625,28.46875 C 17.589144,28.353963 17.808307,28.355484 17.96875,28.5 C 18.065058,28.581493 18.055298,28.662971 18.125,28.75 C 18.130008,28.7698 18.151718,28.792846 18.15625,28.8125 C 18.367968,29.100701 18.558861,29.424824 18.59375,29.625 C 18.641634,29.899734 18.627069,29.895981 18.75,30 C 18.750001,30 18.807057,30.02766 18.9375,30.03125 C 19.067944,30.034839 19.235149,30.039167 19.40625,30 C 19.748453,29.921666 20.0625,29.78125 20.0625,29.78125 C 20.288312,29.678818 20.562807,29.754424 20.6875,29.96875 C 20.812192,30.183077 20.76315,30.479318 20.5625,30.625 C 20.519185,30.659381 20.479872,30.65628 20.4375,30.6875 C 20.4375,30.687499 20.408249,30.686647 20.40625,30.6875 C 19.973072,30.99815 19.589517,31.176086 19.25,31.28125 C 19.267365,31.294752 19.34375,31.34375 19.34375,31.34375 C 19.354351,31.351988 19.365121,31.365909 19.375,31.375 C 19.727159,31.694751 19.787174,32.141494 19.71875,32.4375 C 19.650322,32.733506 19.5,32.96875 19.5,32.96875 C 19.418006,33.065651 19.313897,33.146174 19.21875,33.21875 L 20,34 L 21,34 L 21,35 L 20,35 L 18.53125,33.53125 C 18.497019,33.544084 18.471813,33.581612 18.4375,33.59375 C 18.057119,33.728312 17.671677,33.847321 17.1875,34.03125 C 16.228768,34.395455 14.928307,35.072279 13.21875,36.8125 C 13.201589,36.82997 13.204751,36.826059 13.1875,36.84375 C 13.0968,36.935062 12.972454,37.000002 12.84375,37 z"
         id="path4189"
         style="fill:#4d4d4d;fill-opacity:1;fill-rule:evenodd;stroke:none;stroke-width:1px;stroke-linecap:butt;stroke-linejoin:miter;stroke-opacity:1" />
      <path
         d="M 13.194193,36.148727 C 15.969396,32.469486 15.008213,30.899148 15.77627,30.019698 C 15.800183,29.992317 16.172154,29.552392 16.584835,29.939379 C 16.584835,29.939379 17.101559,30.414011 17.177066,30.989982 C 17.604626,30.271803 17.72075,29.865966 17.561543,29.236841 C 18.193516,29.771591 17.81107,30.212475 18.256582,30.589451 C 18.702095,30.966425 19.90156,30.452375 19.90156,30.452375 C 19.04755,31.130276 18.586111,30.956642 17.68041,31.439781 C 18.27229,31.406766 18.812402,31.824255 18.812402,31.824255 C 19.23999,32.212491 18.88094,32.646744 18.88094,32.646744 C 18.126989,33.537771 16.414907,32.84646 13.194193,36.148727 z"
         id="path4191"
         style="fill:#00ff0c;fill-opacity:1;stroke:none;stroke-width:1.5;stroke-linecap:round;stroke-miterlimit:4;stroke-opacity:1" />
    </g>
    <g
       id="g4193">
      <path
         d="M 29,14.406457 L 30.531147,15.96875 L 33.031147,18.46875 L 34.531028,19.96875 L 34.531028,20.96875 L 28,20.96875 L 28,14.406457 L 29,14.406457 z"
         id="path4195"
         style="fill:#1a1a1a;fill-opacity:1;fill-rule:evenodd;stroke:none;stroke-width:1px;stroke-linecap:butt;stroke-linejoin:miter;stroke-opacity:1" />
      <path
         d="M 36.15625,11.96875 C 36.284954,11.968748 36.4093,12.033686 36.5,12.125 C 36.672777,12.297655 36.681762,12.557628 36.53125,12.75 C 36.516227,12.769919 36.514815,12.792708 36.5,12.8125 C 35.040036,14.762877 34.584799,16.097188 34.375,17.09375 C 34.269036,17.597089 34.229923,18.011325 34.15625,18.40625 C 34.121226,18.593993 34.067585,18.787201 34,18.96875 C 33.996501,18.978149 34.003629,18.990637 34,19 L 35,19.96875 L 35,20.96875 L 34,20.96875 L 34,19.96875 L 33.625,19.59375 C 33.565464,19.661152 33.432735,19.780701 33.21875,19.875 C 32.933439,20.000733 32.440953,19.981836 32.09375,19.65625 C 32.093751,19.65625 31.941408,19.513043 31.78125,19.3125 C 31.74789,19.506982 31.746368,19.707422 31.8125,19.96875 C 31.872874,20.17607 31.776644,20.385211 31.59375,20.5 C 31.410856,20.614787 31.191693,20.613266 31.03125,20.46875 C 30.934942,20.387257 30.944702,20.305779 30.875,20.21875 C 30.869992,20.19895 30.848282,20.175904 30.84375,20.15625 C 30.632032,19.868049 30.441139,19.543926 30.40625,19.34375 C 30.358366,19.069016 30.372931,19.072769 30.25,18.96875 C 30.249999,18.96875 30.192943,18.94109 30.0625,18.9375 C 29.932056,18.933911 29.764851,18.929583 29.59375,18.96875 C 29.251547,19.047084 28.9375,19.1875 28.9375,19.1875 C 28.711688,19.289932 28.437193,19.214326 28.3125,19 C 28.187808,18.785673 28.23685,18.489432 28.4375,18.34375 C 28.480815,18.309369 28.520128,18.31247 28.5625,18.28125 C 28.5625,18.281251 28.591751,18.282103 28.59375,18.28125 C 29.026928,17.9706 29.410483,17.792664 29.75,17.6875 C 29.732635,17.673998 29.65625,17.625 29.65625,17.625 C 29.645649,17.616762 29.634879,17.602841 29.625,17.59375 C 29.272841,17.273999 29.212826,16.827256 29.28125,16.53125 C 29.349678,16.235244 29.5,16 29.5,16 C 29.581994,15.903099 29.686103,15.822576 29.78125,15.75 L 29,14.96875 L 28,14.96875 L 28,13.96875 L 29,13.96875 L 30.46875,15.4375 C 30.502981,15.424666 30.528187,15.387138 30.5625,15.375 C 30.942881,15.240438 31.328323,15.121429 31.8125,14.9375 C 32.771232,14.573295 34.071693,13.896471 35.78125,12.15625 C 35.798411,12.13878 35.795249,12.142691 35.8125,12.125 C 35.9032,12.033688 36.027546,11.968748 36.15625,11.96875 z"
         id="path4197"
         style="fill:#4d4d4d;fill-opacity:1;fill-rule:evenodd;stroke:none;stroke-width:1px;stroke-linecap:butt;stroke-linejoin:miter;stroke-opacity:1" />
      <path
         d="M 35.805807,12.820023 C 33.030604,16.499264 33.991787,18.069602 33.22373,18.949052 C 33.199817,18.976433 32.827846,19.416358 32.415165,19.029371 C 32.415165,19.029371 31.898441,18.554739 31.822934,17.978768 C 31.395374,18.696947 31.27925,19.102784 31.438457,19.731909 C 30.806484,19.197159 31.18893,18.756275 30.743418,18.379299 C 30.297905,18.002325 29.09844,18.516375 29.09844,18.516375 C 29.95245,17.838474 30.413889,18.012108 31.31959,17.528969 C 30.72771,17.561984 30.187598,17.144495 30.187598,17.144495 C 29.76001,16.756259 30.11906,16.322006 30.11906,16.322006 C 30.873011,15.430979 32.585093,16.12229 35.805807,12.820023 z"
         id="path4199"
         style="fill:#00ff0c;fill-opacity:1;stroke:none;stroke-width:1.5;stroke-linecap:round;stroke-miterlimit:4;stroke-opacity:1" />
    </g>
    <g
       transform="translate(0,1)"
       id="g4201">
      <path
         d="M 29,33.562293 L 30.531147,32 L 33.031147,29.5 L 34.531028,28 L 34.531028,27 L 28,27 L 28,33.562293 L 29,33.562293 z"
         id="path4203"
         style="fill:#1a1a1a;fill-opacity:1;fill-rule:evenodd;stroke:none;stroke-width:1px;stroke-linecap:butt;stroke-linejoin:miter;stroke-opacity:1" />
      <path
         d="M 36.15625,36 C 36.284954,36.000002 36.4093,35.935064 36.5,35.84375 C 36.672777,35.671095 36.681762,35.411122 36.53125,35.21875 C 36.516227,35.198831 36.514815,35.176042 36.5,35.15625 C 35.040036,33.205873 34.584799,31.871562 34.375,30.875 C 34.269036,30.371661 34.229923,29.957425 34.15625,29.5625 C 34.121226,29.374757 34.067585,29.181549 34,29 C 33.996501,28.990601 34.003629,28.978113 34,28.96875 L 35,28 L 35,27 L 34,27 L 34,28 L 33.625,28.375 C 33.565464,28.307598 33.432735,28.188049 33.21875,28.09375 C 32.933439,27.968017 32.440953,27.986914 32.09375,28.3125 C 32.093751,28.3125 31.941408,28.455707 31.78125,28.65625 C 31.74789,28.461768 31.746368,28.261328 31.8125,28 C 31.872874,27.79268 31.776644,27.583539 31.59375,27.46875 C 31.410856,27.353963 31.191693,27.355484 31.03125,27.5 C 30.934942,27.581493 30.944702,27.662971 30.875,27.75 C 30.869992,27.7698 30.848282,27.792846 30.84375,27.8125 C 30.632032,28.100701 30.441139,28.424824 30.40625,28.625 C 30.358366,28.899734 30.372931,28.895981 30.25,29 C 30.249999,29 30.192943,29.02766 30.0625,29.03125 C 29.932056,29.034839 29.764851,29.039167 29.59375,29 C 29.251547,28.921666 28.9375,28.78125 28.9375,28.78125 C 28.711688,28.678818 28.437193,28.754424 28.3125,28.96875 C 28.187808,29.183077 28.23685,29.479318 28.4375,29.625 C 28.480815,29.659381 28.520128,29.65628 28.5625,29.6875 C 28.5625,29.687499 28.591751,29.686647 28.59375,29.6875 C 29.026928,29.99815 29.410483,30.176086 29.75,30.28125 C 29.732635,30.294752 29.65625,30.34375 29.65625,30.34375 C 29.645649,30.351988 29.634879,30.365909 29.625,30.375 C 29.272841,30.694751 29.212826,31.141494 29.28125,31.4375 C 29.349678,31.733506 29.5,31.96875 29.5,31.96875 C 29.581994,32.065651 29.686103,32.146174 29.78125,32.21875 L 29,33 L 28,33 L 28,34 L 29,34 L 30.46875,32.53125 C 30.502981,32.544084 30.528187,32.581612 30.5625,32.59375 C 30.942881,32.728312 31.328323,32.847321 31.8125,33.03125 C 32.771232,33.395455 34.071693,34.072279 35.78125,35.8125 C 35.798411,35.82997 35.795249,35.826059 35.8125,35.84375 C 35.9032,35.935062 36.027546,36.000002 36.15625,36 z"
         id="path4205"
         style="fill:#4d4d4d;fill-opacity:1;fill-rule:evenodd;stroke:none;stroke-width:1px;stroke-linecap:butt;stroke-linejoin:miter;stroke-opacity:1" />
      <path
         d="M 35.805807,35.148727 C 33.030604,31.469486 33.991787,29.899148 33.22373,29.019698 C 33.199817,28.992317 32.827846,28.552392 32.415165,28.939379 C 32.415165,28.939379 31.898441,29.414011 31.822934,29.989982 C 31.395374,29.271803 31.27925,28.865966 31.438457,28.236841 C 30.806484,28.771591 31.18893,29.212475 30.743418,29.589451 C 30.297905,29.966425 29.09844,29.452375 29.09844,29.452375 C 29.95245,30.130276 30.413889,29.956642 31.31959,30.439781 C 30.72771,30.406766 30.187598,30.824255 30.187598,30.824255 C 29.76001,31.212491 30.11906,31.646744 30.11906,31.646744 C 30.873011,32.537771 32.585093,31.84646 35.805807,35.148727 z"
         id="path4207"
         style="fill:#00ff0c;fill-opacity:1;stroke:none;stroke-width:1.5;stroke-linecap:round;stroke-miterlimit:4;stroke-opacity:1" />
    </g>
    <g
       transform="matrix(-1,0,0,-1,49.028723,49)"
       id="g4209">
      <path
         d="M 14,22 L 14,27 L 15,27 L 15,22 L 14,22 z"
         id="path4211"
         style="fill:#4d4d4d;fill-opacity:1;fill-rule:evenodd;stroke:none;stroke-width:1px;stroke-linecap:butt;stroke-linejoin:miter;stroke-opacity:1" />
      <path
         d="M 21,27 L 20.971277,22 L 15,22 L 15,27 L 21,27 z"
         id="path4213"
         style="fill:#1a1a1a;fill-opacity:1;fill-rule:nonzero;stroke:none;stroke-width:1px;stroke-linecap:butt;stroke-linejoin:miter;stroke-opacity:1" />
    </g>
    <g
       transform="matrix(0,1,-1,0,49,2.8723e-2)"
       id="g4215">
      <path
         d="M 14,22 L 14,27 L 15,27 L 15,22 L 14,22 z"
         id="path4217"
         style="fill:#4d4d4d;fill-opacity:1;fill-rule:evenodd;stroke:none;stroke-width:1px;stroke-linecap:butt;stroke-linejoin:miter;stroke-opacity:1" />
      <path
         d="M 21,27 L 20.971277,22 L 15,22 L 15,27 L 21,27 z"
         id="path4219"
         style="fill:#1a1a1a;fill-opacity:1;fill-rule:nonzero;stroke:none;stroke-width:1px;stroke-linecap:butt;stroke-linejoin:miter;stroke-opacity:1" />
    </g>
    <g
       transform="matrix(0,-1,1,0,0,49.028723)"
       id="g4221">
      <path
         d="M 14,22 L 14,27 L 15,27 L 15,22 L 14,22 z"
         id="path4223"
         style="fill:#4d4d4d;fill-opacity:1;fill-rule:evenodd;stroke:none;stroke-width:1px;stroke-linecap:butt;stroke-linejoin:miter;stroke-opacity:1" />
      <path
         d="M 21,27 L 20.971277,22 L 15,22 L 15,27 L 21,27 z"
         id="path4225"
         style="fill:#1a1a1a;fill-opacity:1;fill-rule:nonzero;stroke:none;stroke-width:1px;stroke-linecap:butt;stroke-linejoin:miter;stroke-opacity:1" />
    </g>
  </g>
  <g
     transform="matrix(-0.6153846,0,0,-0.6153846,137.28946,41.999746)"
     id="north-mini-bottomleft">
    <path
       d="M 28,8 L 41,21 L 38,21 L 28,11 L 28,8 z"
       id="path4228"
       style="fill:#333333;fill-opacity:1;stroke:none;stroke-width:1.5;stroke-linecap:round;stroke-miterlimit:4;stroke-opacity:1" />
    <path
       d="M 28,10.599407 L 38.364175,21 L 28,21 L 28,10.599407 z"
       id="path4230"
       style="opacity:0.8;fill:#333333;fill-opacity:1;stroke:none;stroke-width:1.5;stroke-linecap:round;stroke-miterlimit:4;stroke-opacity:1" />
    <path
       d="M 28,10 L 39,21 L 38,21 L 28,11 L 28,10 z"
       id="path4232"
       style="fill:#000000;fill-opacity:1;stroke:none;stroke-width:1.5;stroke-linecap:round;stroke-miterlimit:4;stroke-opacity:1" />
  </g>
  <g
     transform="matrix(-0.9910198,0,0,-0.6153846,147.19059,42.000306)"
     id="north-mini-bottom">
    <path
       d="M 21.890649,8.0363203 L 21.890649,11 L 26.935957,11 L 26.935957,8.0363203 L 21.890649,8.0363203 z"
       id="path4235"
       style="fill:#333333;fill-opacity:1;stroke:none;stroke-width:1.5;stroke-linecap:round;stroke-miterlimit:4;stroke-opacity:1" />
    <path
       d="M 21.890649,11.03632 L 21.890649,21.03632 L 26.935957,21.03632 L 26.935957,11.03632 L 21.890649,11.03632 z"
       id="path4237"
       style="opacity:0.8;fill:#333333;fill-opacity:1;stroke:none;stroke-width:1.5;stroke-linecap:round;stroke-miterlimit:4;stroke-opacity:1" />
    <path
       d="M 21.890649,10 L 21.890649,11.176777 L 26.935957,11.176777 L 26.935957,10 L 21.890649,10 z"
       id="path4239"
       style="fill:#000000;fill-opacity:1;stroke:none;stroke-width:1.5;stroke-linecap:round;stroke-miterlimit:4;stroke-opacity:1" />
  </g>
  <g
     transform="matrix(-0.6153846,0,0,-0.6153846,138.60521,40.58845)"
     id="north-mini-topright">
    <path
       d="M 21,41 L 8,28 L 11,28 L 21,38 L 21,41 z"
       id="path4242"
       style="fill:#000000;fill-opacity:1;stroke:none;stroke-width:1.5;stroke-linecap:round;stroke-miterlimit:4;stroke-opacity:1" />
    <path
       d="M 21,39 L 10,28 L 11,28 L 21,38 L 21,39 z"
       id="path4244"
       style="fill:#4d4d4d;fill-opacity:1;stroke:none;stroke-width:1.5;stroke-linecap:round;stroke-miterlimit:4;stroke-opacity:1" />
    <path
       d="M 21,38 L 11,28 L 21,28 L 21,38 z"
       id="path4246"
       style="opacity:1;fill:#000000;fill-opacity:1;stroke:none;stroke-width:1.5;stroke-linecap:round;stroke-miterlimit:4;stroke-opacity:1" />
  </g>
  <g
     transform="matrix(-0.9910198,0,0,-0.6153846,147.2584,40.58789)"
     id="north-mini-top">
    <path
       d="M 27.109351,40.96368 L 27.109351,38 L 22.064043,38 L 22.064043,40.96368 L 27.109351,40.96368 z"
       id="path4249"
       style="fill:#000000;fill-opacity:1;stroke:none;stroke-width:1.5;stroke-linecap:round;stroke-miterlimit:4;stroke-opacity:1" />
    <path
       d="M 27.109351,37.96368 L 27.109351,27.96368 L 22.064043,27.96368 L 22.064043,37.96368 L 27.109351,37.96368 z"
       id="path4251"
       style="opacity:1;fill:#000000;fill-opacity:1;stroke:none;stroke-width:1.5;stroke-linecap:round;stroke-miterlimit:4;stroke-opacity:1" />
    <path
       d="M 27.109351,39 L 27.109351,37.911612 L 22.064043,37.911612 L 22.064043,39 L 27.109351,39 z"
       id="path4253"
       style="fill:#4d4d4d;fill-opacity:1;stroke:none;stroke-width:1.5;stroke-linecap:round;stroke-miterlimit:4;stroke-opacity:1" />
  </g>
  <g
     transform="matrix(-1,0,0,-0.99102,147.4581,50.461981)"
     id="north-mini-center"
     style="opacity:1">
    <path
       d="M 27,21.954693 L 22,21.954693 L 22,27 L 27,27 L 27,21.954693 z"
       id="path4257"
       style="opacity:1;fill:url(#linearGradient3681);fill-opacity:1;stroke:none;stroke-width:1.5;stroke-linecap:round;stroke-miterlimit:4;stroke-opacity:1" />
  </g>
  <g
     transform="matrix(-0.6153846,0,0,-0.99102,137.28946,50.461981)"
     id="north-mini-left">
    <path
       d="M 41,21.954693 L 38,21.954693 L 38,27 L 41,27 L 41,21.954693 z"
       id="path4260"
       style="fill:#000000;fill-opacity:1;stroke:none;stroke-width:1.5;stroke-linecap:round;stroke-miterlimit:4;stroke-opacity:1" />
    <path
       d="M 38,21.954693 L 28,21.954693 L 28,27 L 38,27 L 38,21.954693 z"
       id="path4262"
       style="opacity:1;fill:url(#linearGradient3667);fill-opacity:1;stroke:none;stroke-width:1.5;stroke-linecap:round;stroke-miterlimit:4;stroke-opacity:1" />
    <path
       d="M 41,21.954693 L 38,21.954693 L 38,27 L 41,27 L 41,21.954693 z"
       id="path4264"
       style="fill:url(#linearGradient4309);fill-opacity:1;stroke:none;stroke-width:1.5;stroke-linecap:round;stroke-miterlimit:4;stroke-opacity:1" />
    <path
       d="M 39,21.954693 L 38,21.954693 L 38,27 L 39,27 L 39,21.954693 z"
       id="path4266"
       style="fill:#1a1a1a;fill-opacity:1;stroke:none;stroke-width:1.5;stroke-linecap:round;stroke-miterlimit:4;stroke-opacity:1" />
    <path
       d="M 41,21.954693 L 38,21.954693 L 38,27 L 41,27 L 41,21.954693 z"
       id="path4268"
       style="fill:#1a1a1a;fill-opacity:0;stroke:none;stroke-width:1.5;stroke-linecap:round;stroke-miterlimit:4;stroke-opacity:1" />
    <path
       d="M 39,21.954693 L 38,21.954693 L 38,27 L 39,27 L 39,21.954693 z"
       id="path4270"
       style="fill:url(#linearGradient4311);fill-opacity:1;stroke:none;stroke-width:1.5;stroke-linecap:round;stroke-miterlimit:4;stroke-opacity:1" />
  </g>
  <g
     transform="matrix(-0.6153846,0,0,-0.99102,138.50924,50.518947)"
     id="north-mini-right">
    <path
       d="M 7.972276,27.14567 L 11,27.14567 L 11,22.100363 L 7.972276,22.100363 L 7.972276,27.14567 z"
       id="path4273"
       style="fill:#000000;fill-opacity:1;stroke:none;stroke-width:1.5;stroke-linecap:round;stroke-miterlimit:4;stroke-opacity:1" />
    <path
       d="M 10.972276,27.14567 L 20.972276,27.14567 L 20.972276,22.100363 L 10.972276,22.100363 L 10.972276,27.14567 z"
       id="path4275"
       style="opacity:1;fill:url(#linearGradient2660);fill-opacity:1;stroke:none;stroke-width:1.5;stroke-linecap:round;stroke-miterlimit:4;stroke-opacity:1" />
    <path
       d="M 7.972276,27.14567 L 11,27.14567 L 11,22.100363 L 7.972276,22.100363 L 7.972276,27.14567 z"
       id="path4277"
       style="fill:url(#linearGradient4313);fill-opacity:1;stroke:none;stroke-width:1.5;stroke-linecap:round;stroke-miterlimit:4;stroke-opacity:1" />
    <path
       d="M 10,27.14567 L 11,27.14567 L 11,22.100363 L 10,22.100363 L 10,27.14567 z"
       id="path4279"
       style="fill:#1a1a1a;fill-opacity:1;stroke:none;stroke-width:1.5;stroke-linecap:round;stroke-miterlimit:4;stroke-opacity:1" />
    <path
       d="M 10,27.14567 L 11,27.14567 L 11,22.100363 L 10,22.100363 L 10,27.14567 z"
       id="path4281"
       style="fill:url(#linearGradient4315);fill-opacity:1;stroke:none;stroke-width:1.5;stroke-linecap:round;stroke-miterlimit:4;stroke-opacity:1" />
  </g>
  <g
     transform="matrix(-0.6153846,0,0,-0.6153846,137.28946,40.58845)"
     id="north-mini-topleft">
    <path
       d="M 36.485577,38 C 37.319595,38 38,37.371853 38,36.581731 L 38,28 L 28,28 L 28,38 L 36.485577,38 z"
       id="path4286"
       style="opacity:1;fill:#000000;fill-opacity:1;stroke:none;stroke-width:1.5;stroke-linecap:round;stroke-miterlimit:4;stroke-opacity:1" />
    <path
       d="M 39.03125,41 C 40.115473,41 41,40.183409 41,39.15625 L 41,28 L 39,28 L 39,37 L 37,39 L 28,39 L 28,41 L 39.03125,41 z"
       id="path4288"
       style="fill:#000000;fill-opacity:1;stroke:none;stroke-width:1.5;stroke-linecap:round;stroke-miterlimit:4;stroke-opacity:1" />
    <path
       d="M 37.334135,39 C 38.251554,39 39,38.309038 39,37.439904 L 39,28 L 38,28 L 38,36.536481 C 38,37.387436 37.258026,38 36.51073,38 L 28,38 L 28,39 L 37.334135,39 z"
       id="path4290"
       style="fill:#4d4d4d;fill-opacity:1;stroke:none;stroke-width:1.5;stroke-linecap:round;stroke-miterlimit:4;stroke-opacity:1" />
  </g>
  <g
     transform="matrix(0,0.6153846,-0.6153846,0,41.491501,104.01494)"
     id="west-mini-topright">
    <path
       d="M 9.96875,7.9999998 C 8.884527,7.9999998 8,8.8165909 8,9.8437498 L 8,21 L 10,21 L 10,12 L 12,10 L 21,10 L 21,7.9999998 L 9.96875,7.9999998 z"
       id="path4406"
       style="fill:#333333;fill-opacity:1;stroke:none;stroke-width:1.5;stroke-linecap:round;stroke-miterlimit:4;stroke-opacity:1" />
    <path
       d="M 12,10.512605 C 11.115421,10.512605 10.393768,11.171368 10.393768,12 L 10.393768,21 L 21,21 L 21,10.512605 L 12,10.512605 z"
       id="path4408"
       style="opacity:0.8;fill:#333333;fill-opacity:1;stroke:none;stroke-width:1.5;stroke-linecap:round;stroke-miterlimit:4;stroke-opacity:1" />
    <path
       d="M 11.665865,10 C 10.748446,10 10,10.690962 10,11.560096 L 10,21 L 11,21 L 11,12.613734 C 11,11.609112 11.665236,11 12.665236,11 L 21,11 L 21,10 L 11.665865,10 z"
       id="path4420"
       style="fill:#000000;fill-opacity:1;stroke:none;stroke-width:1.5;stroke-linecap:round;stroke-miterlimit:4;stroke-opacity:1" />
  </g>
  <g
     transform="matrix(0,0.6153846,-0.6153846,0,41.682593,105.52178)"
     id="west-mini-bottomright">
    <path
       d="M 28,8 L 41,21 L 38,21 L 28,11 L 28,8 z"
       id="path4424"
       style="fill:#333333;fill-opacity:1;stroke:none;stroke-width:1.5;stroke-linecap:round;stroke-miterlimit:4;stroke-opacity:1" />
    <path
       d="M 28,10.599407 L 38.364175,21 L 28,21 L 28,10.599407 z"
       id="path4426"
       style="opacity:0.8;fill:#333333;fill-opacity:1;stroke:none;stroke-width:1.5;stroke-linecap:round;stroke-miterlimit:4;stroke-opacity:1" />
    <path
       d="M 28,10 L 39,21 L 38,21 L 28,11 L 28,10 z"
       id="path4428"
       style="fill:#000000;fill-opacity:1;stroke:none;stroke-width:1.5;stroke-linecap:round;stroke-miterlimit:4;stroke-opacity:1" />
  </g>
  <g
     transform="matrix(0,0.9910198,-0.6153846,0,41.587608,95.620651)"
     id="west-mini-right">
    <path
       d="M 21.890649,8.0363203 L 21.890649,11 L 26.935957,11 L 26.935957,8.0363203 L 21.890649,8.0363203 z"
       id="path4432"
       style="fill:#333333;fill-opacity:1;stroke:none;stroke-width:1.5;stroke-linecap:round;stroke-miterlimit:4;stroke-opacity:1" />
    <path
       d="M 21.890649,11.03632 L 21.890649,21.03632 L 26.935957,21.03632 L 26.935957,11.03632 L 21.890649,11.03632 z"
       id="path4434"
       style="opacity:0.8;fill:#333333;fill-opacity:1;stroke:none;stroke-width:1.5;stroke-linecap:round;stroke-miterlimit:4;stroke-opacity:1" />
    <path
       d="M 21.890649,10 L 21.890649,11.176777 L 26.935957,11.176777 L 26.935957,10 L 21.890649,10 z"
       id="path4436"
       style="fill:#000000;fill-opacity:1;stroke:none;stroke-width:1.5;stroke-linecap:round;stroke-miterlimit:4;stroke-opacity:1" />
  </g>
  <g
     transform="matrix(0,0.6153846,-0.6153846,0,40.080205,104.11049)"
     id="west-mini-topleft">
    <path
       d="M 21,41 L 8,28 L 11,28 L 21,38 L 21,41 z"
       id="path4440"
       style="fill:#000000;fill-opacity:1;stroke:none;stroke-width:1.5;stroke-linecap:round;stroke-miterlimit:4;stroke-opacity:1" />
    <path
       d="M 21,39 L 10,28 L 11,28 L 21,38 L 21,39 z"
       id="path4442"
       style="fill:#4d4d4d;fill-opacity:1;stroke:none;stroke-width:1.5;stroke-linecap:round;stroke-miterlimit:4;stroke-opacity:1" />
    <path
       d="M 21,38 L 11,28 L 21,28 L 21,38 z"
       id="path4444"
       style="opacity:1;fill:#000000;fill-opacity:1;stroke:none;stroke-width:1.5;stroke-linecap:round;stroke-miterlimit:4;stroke-opacity:1" />
  </g>
  <g
     transform="matrix(0,0.9910198,-0.6153846,0,40.175191,95.552844)"
     id="west-mini-left">
    <path
       d="M 27.109351,40.96368 L 27.109351,38 L 22.064043,38 L 22.064043,40.96368 L 27.109351,40.96368 z"
       id="path4448"
       style="fill:#000000;fill-opacity:1;stroke:none;stroke-width:1.5;stroke-linecap:round;stroke-miterlimit:4;stroke-opacity:1" />
    <path
       d="M 27.109351,37.96368 L 27.109351,27.96368 L 22.064043,27.96368 L 22.064043,37.96368 L 27.109351,37.96368 z"
       id="path4450"
       style="opacity:1;fill:#000000;fill-opacity:1;stroke:none;stroke-width:1.5;stroke-linecap:round;stroke-miterlimit:4;stroke-opacity:1" />
    <path
       d="M 27.109351,39 L 27.109351,37.911612 L 22.064043,37.911612 L 22.064043,39 L 27.109351,39 z"
       id="path4452"
       style="fill:#4d4d4d;fill-opacity:1;stroke:none;stroke-width:1.5;stroke-linecap:round;stroke-miterlimit:4;stroke-opacity:1" />
  </g>
  <g
     transform="matrix(0,1,-0.99102,0,50.101931,95.353141)"
     id="west-mini-center"
     style="opacity:1">
    <path
       d="M 27,21.954693 L 22,21.954693 L 22,27 L 27,27 L 27,21.954693 z"
       id="path4456"
       style="opacity:1;fill:url(#linearGradient4508);fill-opacity:1;stroke:none;stroke-width:1.5;stroke-linecap:round;stroke-miterlimit:4;stroke-opacity:1" />
  </g>
  <g
     transform="matrix(0,0.6153846,-0.99102,0,50.101931,105.52178)"
     id="west-mini-bottom">
    <path
       d="M 41,21.954693 L 38,21.954693 L 38,27 L 41,27 L 41,21.954693 z"
       id="path4460"
       style="fill:#000000;fill-opacity:1;stroke:none;stroke-width:1.5;stroke-linecap:round;stroke-miterlimit:4;stroke-opacity:1" />
    <path
       d="M 38,21.954693 L 28,21.954693 L 28,27 L 38,27 L 38,21.954693 z"
       id="path4462"
       style="opacity:1;fill:url(#linearGradient4510);fill-opacity:1;stroke:none;stroke-width:1.5;stroke-linecap:round;stroke-miterlimit:4;stroke-opacity:1" />
    <path
       d="M 41,21.954693 L 38,21.954693 L 38,27 L 41,27 L 41,21.954693 z"
       id="path4464"
       style="fill:url(#linearGradient4512);fill-opacity:1;stroke:none;stroke-width:1.5;stroke-linecap:round;stroke-miterlimit:4;stroke-opacity:1" />
    <path
       d="M 39,21.954693 L 38,21.954693 L 38,27 L 39,27 L 39,21.954693 z"
       id="path4466"
       style="fill:#1a1a1a;fill-opacity:1;stroke:none;stroke-width:1.5;stroke-linecap:round;stroke-miterlimit:4;stroke-opacity:1" />
    <path
       d="M 41,21.954693 L 38,21.954693 L 38,27 L 41,27 L 41,21.954693 z"
       id="path4468"
       style="fill:#1a1a1a;fill-opacity:0;stroke:none;stroke-width:1.5;stroke-linecap:round;stroke-miterlimit:4;stroke-opacity:1" />
    <path
       d="M 39,21.954693 L 38,21.954693 L 38,27 L 39,27 L 39,21.954693 z"
       id="path4470"
       style="fill:url(#linearGradient4514);fill-opacity:1;stroke:none;stroke-width:1.5;stroke-linecap:round;stroke-miterlimit:4;stroke-opacity:1" />
  </g>
  <g
     transform="matrix(0,0.6153846,-0.99102,0,50.063351,104.11091)"
     id="west-mini-top">
    <path
       d="M 7.972276,27.14567 L 11,27.14567 L 11,22.100363 L 7.972276,22.100363 L 7.972276,27.14567 z"
       id="path4474"
       style="fill:#000000;fill-opacity:1;stroke:none;stroke-width:1.5;stroke-linecap:round;stroke-miterlimit:4;stroke-opacity:1" />
    <path
       d="M 10.972276,27.14567 L 20.972276,27.14567 L 20.972276,22.100363 L 10.972276,22.100363 L 10.972276,27.14567 z"
       id="path4476"
       style="opacity:1;fill:url(#linearGradient4516);fill-opacity:1;stroke:none;stroke-width:1.5;stroke-linecap:round;stroke-miterlimit:4;stroke-opacity:1" />
    <path
       d="M 7.972276,27.14567 L 11,27.14567 L 11,22.100363 L 7.972276,22.100363 L 7.972276,27.14567 z"
       id="path4478"
       style="fill:url(#linearGradient4518);fill-opacity:1;stroke:none;stroke-width:1.5;stroke-linecap:round;stroke-miterlimit:4;stroke-opacity:1" />
    <path
       d="M 10,27.14567 L 11,27.14567 L 11,22.100363 L 10,22.100363 L 10,27.14567 z"
       id="path4480"
       style="fill:#1a1a1a;fill-opacity:1;stroke:none;stroke-width:1.5;stroke-linecap:round;stroke-miterlimit:4;stroke-opacity:1" />
    <path
       d="M 10,27.14567 L 11,27.14567 L 11,22.100363 L 10,22.100363 L 10,27.14567 z"
       id="path4482"
       style="fill:url(#linearGradient4520);fill-opacity:1;stroke:none;stroke-width:1.5;stroke-linecap:round;stroke-miterlimit:4;stroke-opacity:1" />
  </g>
  <g
     transform="matrix(0,0.6153846,-0.6153846,0,40.175751,105.52178)"
     id="west-mini-bottomleft">
    <path
       d="M 36.485577,38 C 37.319595,38 38,37.371853 38,36.581731 L 38,28 L 28,28 L 28,38 L 36.485577,38 z"
       id="path4486"
       style="opacity:1;fill:#000000;fill-opacity:1;stroke:none;stroke-width:1.5;stroke-linecap:round;stroke-miterlimit:4;stroke-opacity:1" />
    <path
       d="M 39.03125,41 C 40.115473,41 41,40.183409 41,39.15625 L 41,28 L 39,28 L 39,37 L 37,39 L 28,39 L 28,41 L 39.03125,41 z"
       id="path4488"
       style="fill:#000000;fill-opacity:1;stroke:none;stroke-width:1.5;stroke-linecap:round;stroke-miterlimit:4;stroke-opacity:1" />
    <path
       d="M 37.334135,39 C 38.251554,39 39,38.309038 39,37.439904 L 39,28 L 38,28 L 38,36.536481 C 38,37.387436 37.258026,38 36.51073,38 L 28,38 L 28,39 L 37.334135,39 z"
       id="path4490"
       style="fill:#4d4d4d;fill-opacity:1;stroke:none;stroke-width:1.5;stroke-linecap:round;stroke-miterlimit:4;stroke-opacity:1" />
    <path
       d="M 37,32.473428 C 37,30.052188 35.004712,28.089388 32.543399,28.089388 C 30.082085,28.089388 28.086798,30.052188 28.086798,32.473428 C 28.086798,34.894668 30.082085,36.857468 32.543399,36.857468 C 35.004712,36.857468 37,34.894668 37,32.473428 z"
       id="path4492"
       style="fill:#000000;fill-opacity:1;stroke:none;stroke-width:1.5;stroke-linecap:round;stroke-miterlimit:4;stroke-dasharray:none;stroke-opacity:1" />
  </g>
  <g
     transform="matrix(0.6153846,0,0,0.6153846,108.57841,205.49619)"
     id="south-mini-topleft">
    <path
       d="M 9.96875,7.9999998 C 8.884527,7.9999998 8,8.8165909 8,9.8437498 L 8,21 L 10,21 L 10,12 L 12,10 L 21,10 L 21,7.9999998 L 9.96875,7.9999998 z"
       id="path4530"
       style="fill:#333333;fill-opacity:1;stroke:none;stroke-width:1.5;stroke-linecap:round;stroke-miterlimit:4;stroke-opacity:1" />
    <path
       d="M 12,10.512605 C 11.115421,10.512605 10.393768,11.171368 10.393768,12 L 10.393768,21 L 21,21 L 21,10.512605 L 12,10.512605 z"
       id="path4532"
       style="opacity:0.8;fill:#333333;fill-opacity:1;stroke:none;stroke-width:1.5;stroke-linecap:round;stroke-miterlimit:4;stroke-opacity:1" />
    <path
       d="M 11.665865,10 C 10.748446,10 10,10.690962 10,11.560096 L 10,21 L 11,21 L 11,12.613734 C 11,11.609112 11.665236,11 12.665236,11 L 21,11 L 21,10 L 11.665865,10 z"
       id="path4544"
       style="fill:#000000;fill-opacity:1;stroke:none;stroke-width:1.5;stroke-linecap:round;stroke-miterlimit:4;stroke-opacity:1" />
  </g>
  <g
     transform="matrix(0.6153846,0,0,0.6153846,110.08525,205.59174)"
     id="south-mini-topright">
    <path
       d="M 28,8 L 41,21 L 38,21 L 28,11 L 28,8 z"
       id="path4548"
       style="fill:#333333;fill-opacity:1;stroke:none;stroke-width:1.5;stroke-linecap:round;stroke-miterlimit:4;stroke-opacity:1" />
    <path
       d="M 28,10.599407 L 38.364175,21 L 28,21 L 28,10.599407 z"
       id="path4550"
       style="opacity:0.8;fill:#333333;fill-opacity:1;stroke:none;stroke-width:1.5;stroke-linecap:round;stroke-miterlimit:4;stroke-opacity:1" />
    <path
       d="M 28,10 L 39,21 L 38,21 L 28,11 L 28,10 z"
       id="path4552"
       style="fill:#000000;fill-opacity:1;stroke:none;stroke-width:1.5;stroke-linecap:round;stroke-miterlimit:4;stroke-opacity:1" />
  </g>
  <g
     transform="matrix(0.9910198,0,0,0.6153846,100.14122,205.49563)"
     id="south-mini-top">
    <path
       d="M 21.890649,8.0363203 L 21.890649,11 L 26.935957,11 L 26.935957,8.0363203 L 21.890649,8.0363203 z"
       id="path4556"
       style="fill:#333333;fill-opacity:1;stroke:none;stroke-width:1.5;stroke-linecap:round;stroke-miterlimit:4;stroke-opacity:1" />
    <path
       d="M 21.890649,11.03632 L 21.890649,21.03632 L 26.935957,21.03632 L 26.935957,11.03632 L 21.890649,11.03632 z"
       id="path4558"
       style="opacity:0.8;fill:#333333;fill-opacity:1;stroke:none;stroke-width:1.5;stroke-linecap:round;stroke-miterlimit:4;stroke-opacity:1" />
    <path
       d="M 21.890649,10 L 21.890649,11.176777 L 26.935957,11.176777 L 26.935957,10 L 21.890649,10 z"
       id="path4560"
       style="fill:#000000;fill-opacity:1;stroke:none;stroke-width:1.5;stroke-linecap:round;stroke-miterlimit:4;stroke-opacity:1" />
  </g>
  <g
     transform="matrix(0.6153846,0,0,0.6153846,108.67396,206.90748)"
     id="south-mini-bottomleft">
    <path
       d="M 21,41 L 8,28 L 11,28 L 21,38 L 21,41 z"
       id="path4564"
       style="fill:#000000;fill-opacity:1;stroke:none;stroke-width:1.5;stroke-linecap:round;stroke-miterlimit:4;stroke-opacity:1" />
    <path
       d="M 21,39 L 10,28 L 11,28 L 21,38 L 21,39 z"
       id="path4566"
       style="fill:#4d4d4d;fill-opacity:1;stroke:none;stroke-width:1.5;stroke-linecap:round;stroke-miterlimit:4;stroke-opacity:1" />
    <path
       d="M 21,38 L 11,28 L 21,28 L 21,38 z"
       id="path4568"
       style="opacity:1;fill:#000000;fill-opacity:1;stroke:none;stroke-width:1.5;stroke-linecap:round;stroke-miterlimit:4;stroke-opacity:1" />
  </g>
  <g
     transform="matrix(0.9910198,0,0,0.6153846,100.16896,206.90804)"
     id="south-mini-bottom">
    <path
       d="M 27.109351,40.96368 L 27.109351,38 L 22.064043,38 L 22.064043,40.96368 L 27.109351,40.96368 z"
       id="path4572"
       style="fill:#000000;fill-opacity:1;stroke:none;stroke-width:1.5;stroke-linecap:round;stroke-miterlimit:4;stroke-opacity:1" />
    <path
       d="M 27.109351,37.96368 L 27.109351,27.96368 L 22.064043,27.96368 L 22.064043,37.96368 L 27.109351,37.96368 z"
       id="path4574"
       style="opacity:1;fill:#000000;fill-opacity:1;stroke:none;stroke-width:1.5;stroke-linecap:round;stroke-miterlimit:4;stroke-opacity:1" />
    <path
       d="M 27.109351,39 L 27.109351,37.911612 L 22.064043,37.911612 L 22.064043,39 L 27.109351,39 z"
       id="path4576"
       style="fill:#4d4d4d;fill-opacity:1;stroke:none;stroke-width:1.5;stroke-linecap:round;stroke-miterlimit:4;stroke-opacity:1" />
  </g>
  <g
     transform="matrix(1,0,0,0.99102,99.996442,196.9813)"
     id="south-mini-center"
     style="opacity:1">
    <path
       d="M 27,21.954693 L 22,21.954693 L 22,27 L 27,27 L 27,21.954693 z"
       id="path4580"
       style="opacity:1;fill:url(#linearGradient4632);fill-opacity:1;stroke:none;stroke-width:1.5;stroke-linecap:round;stroke-miterlimit:4;stroke-opacity:1" />
  </g>
  <g
     transform="matrix(0.6153846,0,0,0.99102,109.98971,196.9813)"
     id="south-mini-right">
    <path
       d="M 41,21.954693 L 38,21.954693 L 38,27 L 41,27 L 41,21.954693 z"
       id="path4584"
       style="fill:#000000;fill-opacity:1;stroke:none;stroke-width:1.5;stroke-linecap:round;stroke-miterlimit:4;stroke-opacity:1" />
    <path
       d="M 38,21.954693 L 28,21.954693 L 28,27 L 38,27 L 38,21.954693 z"
       id="path4586"
       style="opacity:1;fill:url(#linearGradient4634);fill-opacity:1;stroke:none;stroke-width:1.5;stroke-linecap:round;stroke-miterlimit:4;stroke-opacity:1" />
    <path
       d="M 41,21.954693 L 38,21.954693 L 38,27 L 41,27 L 41,21.954693 z"
       id="path4588"
       style="fill:url(#linearGradient4636);fill-opacity:1;stroke:none;stroke-width:1.5;stroke-linecap:round;stroke-miterlimit:4;stroke-opacity:1" />
    <path
       d="M 39,21.954693 L 38,21.954693 L 38,27 L 39,27 L 39,21.954693 z"
       id="path4590"
       style="fill:#1a1a1a;fill-opacity:1;stroke:none;stroke-width:1.5;stroke-linecap:round;stroke-miterlimit:4;stroke-opacity:1" />
    <path
       d="M 41,21.954693 L 38,21.954693 L 38,27 L 41,27 L 41,21.954693 z"
       id="path4592"
       style="fill:#1a1a1a;fill-opacity:0;stroke:none;stroke-width:1.5;stroke-linecap:round;stroke-miterlimit:4;stroke-opacity:1" />
    <path
       d="M 39,21.954693 L 38,21.954693 L 38,27 L 39,27 L 39,21.954693 z"
       id="path4594"
       style="fill:url(#linearGradient4638);fill-opacity:1;stroke:none;stroke-width:1.5;stroke-linecap:round;stroke-miterlimit:4;stroke-opacity:1" />
  </g>
  <g
     transform="matrix(0.6153846,0,0,0.99102,108.67438,196.92434)"
     id="south-mini-left">
    <path
       d="M 7.972276,27.14567 L 11,27.14567 L 11,22.100363 L 7.972276,22.100363 L 7.972276,27.14567 z"
       id="path4598"
       style="fill:#000000;fill-opacity:1;stroke:none;stroke-width:1.5;stroke-linecap:round;stroke-miterlimit:4;stroke-opacity:1" />
    <path
       d="M 10.972276,27.14567 L 20.972276,27.14567 L 20.972276,22.100363 L 10.972276,22.100363 L 10.972276,27.14567 z"
       id="path4600"
       style="opacity:1;fill:url(#linearGradient4640);fill-opacity:1;stroke:none;stroke-width:1.5;stroke-linecap:round;stroke-miterlimit:4;stroke-opacity:1" />
    <path
       d="M 7.972276,27.14567 L 11,27.14567 L 11,22.100363 L 7.972276,22.100363 L 7.972276,27.14567 z"
       id="path4602"
       style="fill:url(#linearGradient4642);fill-opacity:1;stroke:none;stroke-width:1.5;stroke-linecap:round;stroke-miterlimit:4;stroke-opacity:1" />
    <path
       d="M 10,27.14567 L 11,27.14567 L 11,22.100363 L 10,22.100363 L 10,27.14567 z"
       id="path4604"
       style="fill:#1a1a1a;fill-opacity:1;stroke:none;stroke-width:1.5;stroke-linecap:round;stroke-miterlimit:4;stroke-opacity:1" />
    <path
       d="M 10,27.14567 L 11,27.14567 L 11,22.100363 L 10,22.100363 L 10,27.14567 z"
       id="path4606"
       style="fill:url(#linearGradient4644);fill-opacity:1;stroke:none;stroke-width:1.5;stroke-linecap:round;stroke-miterlimit:4;stroke-opacity:1" />
  </g>
  <g
     transform="matrix(0.6153846,0,0,0.6153846,110.1808,206.90748)"
     id="south-mini-bottomright">
    <path
       d="M 36.485577,38 C 37.319595,38 38,37.371853 38,36.581731 L 38,28 L 28,28 L 28,38 L 36.485577,38 z"
       id="path4610"
       style="opacity:1;fill:#000000;fill-opacity:1;stroke:none;stroke-width:1.5;stroke-linecap:round;stroke-miterlimit:4;stroke-opacity:1" />
    <path
       d="M 39.03125,41 C 40.115473,41 41,40.183409 41,39.15625 L 41,28 L 39,28 L 39,37 L 37,39 L 28,39 L 28,41 L 39.03125,41 z"
       id="path4612"
       style="fill:#000000;fill-opacity:1;stroke:none;stroke-width:1.5;stroke-linecap:round;stroke-miterlimit:4;stroke-opacity:1" />
    <path
       d="M 37.334135,39 C 38.251554,39 39,38.309038 39,37.439904 L 39,28 L 38,28 L 38,36.536481 C 38,37.387436 37.258026,38 36.51073,38 L 28,38 L 28,39 L 37.334135,39 z"
       id="path4614"
       style="fill:#4d4d4d;fill-opacity:1;stroke:none;stroke-width:1.5;stroke-linecap:round;stroke-miterlimit:4;stroke-opacity:1" />
  </g>
  <g
     transform="matrix(0,-0.6153846,0.6153846,0,208.95955,137.21749)"
     id="east-mini-bottomleft">
    <path
       d="M 9.96875,7.9999998 C 8.884527,7.9999998 8,8.8165909 8,9.8437498 L 8,21 L 10,21 L 10,12 L 12,10 L 21,10 L 21,7.9999998 L 9.96875,7.9999998 z"
       id="path4654"
       style="fill:#333333;fill-opacity:1;stroke:none;stroke-width:1.5;stroke-linecap:round;stroke-miterlimit:4;stroke-opacity:1" />
    <path
       d="M 12,10.512605 C 11.115421,10.512605 10.393768,11.171368 10.393768,12 L 10.393768,21 L 21,21 L 21,10.512605 L 12,10.512605 z"
       id="path4656"
       style="opacity:0.8;fill:#333333;fill-opacity:1;stroke:none;stroke-width:1.5;stroke-linecap:round;stroke-miterlimit:4;stroke-opacity:1" />
    <path
       d="M 11.665865,10 C 10.748446,10 10,10.690962 10,11.560096 L 10,21 L 11,21 L 11,12.613734 C 11,11.609112 11.665236,11 12.665236,11 L 21,11 L 21,10 L 11.665865,10 z"
       id="path4668"
       style="fill:#000000;fill-opacity:1;stroke:none;stroke-width:1.5;stroke-linecap:round;stroke-miterlimit:4;stroke-opacity:1" />
  </g>
  <g
     transform="matrix(0,-0.6153846,0.6153846,0,208.95955,135.8062)"
     id="east-mini-topleft">
    <path
       d="M 28,8 L 41,21 L 38,21 L 28,11 L 28,8 z"
       id="path4672"
       style="fill:#333333;fill-opacity:1;stroke:none;stroke-width:1.5;stroke-linecap:round;stroke-miterlimit:4;stroke-opacity:1" />
    <path
       d="M 28,10.599407 L 38.364175,21 L 28,21 L 28,10.599407 z"
       id="path4674"
       style="opacity:0.8;fill:#333333;fill-opacity:1;stroke:none;stroke-width:1.5;stroke-linecap:round;stroke-miterlimit:4;stroke-opacity:1" />
    <path
       d="M 28,10 L 39,21 L 38,21 L 28,11 L 28,10 z"
       id="path4676"
       style="fill:#000000;fill-opacity:1;stroke:none;stroke-width:1.5;stroke-linecap:round;stroke-miterlimit:4;stroke-opacity:1" />
  </g>
  <g
     transform="matrix(0,-0.9910198,0.6153846,0,208.95899,145.65468)"
     id="east-mini-left">
    <path
       d="M 21.890649,8.0363203 L 21.890649,11 L 26.935957,11 L 26.935957,8.0363203 L 21.890649,8.0363203 z"
       id="path4680"
       style="fill:#333333;fill-opacity:1;stroke:none;stroke-width:1.5;stroke-linecap:round;stroke-miterlimit:4;stroke-opacity:1" />
    <path
       d="M 21.890649,11.03632 L 21.890649,21.03632 L 26.935957,21.03632 L 26.935957,11.03632 L 21.890649,11.03632 z"
       id="path4682"
       style="opacity:0.8;fill:#333333;fill-opacity:1;stroke:none;stroke-width:1.5;stroke-linecap:round;stroke-miterlimit:4;stroke-opacity:1" />
    <path
       d="M 21.890649,10 L 21.890649,11.176777 L 26.935957,11.176777 L 26.935957,10 L 21.890649,10 z"
       id="path4684"
       style="fill:#000000;fill-opacity:1;stroke:none;stroke-width:1.5;stroke-linecap:round;stroke-miterlimit:4;stroke-opacity:1" />
  </g>
  <g
     transform="matrix(0,-0.6153846,0.6153846,0,210.2753,137.21749)"
     id="east-mini-bottomright">
    <path
       d="M 21,41 L 8,28 L 11,28 L 21,38 L 21,41 z"
       id="path4688"
       style="fill:#000000;fill-opacity:1;stroke:none;stroke-width:1.5;stroke-linecap:round;stroke-miterlimit:4;stroke-opacity:1" />
    <path
       d="M 21,39 L 10,28 L 11,28 L 21,38 L 21,39 z"
       id="path4690"
       style="fill:#4d4d4d;fill-opacity:1;stroke:none;stroke-width:1.5;stroke-linecap:round;stroke-miterlimit:4;stroke-opacity:1" />
    <path
       d="M 21,38 L 11,28 L 21,28 L 21,38 z"
       id="path4692"
       style="opacity:1;fill:#000000;fill-opacity:1;stroke:none;stroke-width:1.5;stroke-linecap:round;stroke-miterlimit:4;stroke-opacity:1" />
  </g>
  <g
     transform="matrix(0,-0.9910198,0.6153846,0,210.27586,145.81804)"
     id="east-mini-right">
    <path
       d="M 27.109351,40.96368 L 27.109351,38 L 22.064043,38 L 22.064043,40.96368 L 27.109351,40.96368 z"
       id="path4696"
       style="fill:#000000;fill-opacity:1;stroke:none;stroke-width:1.5;stroke-linecap:round;stroke-miterlimit:4;stroke-opacity:1" />
    <path
       d="M 27.109351,37.96368 L 27.109351,27.96368 L 22.064043,27.96368 L 22.064043,37.96368 L 27.109351,37.96368 z"
       id="path4698"
       style="opacity:1;fill:#000000;fill-opacity:1;stroke:none;stroke-width:1.5;stroke-linecap:round;stroke-miterlimit:4;stroke-opacity:1" />
    <path
       d="M 27.109351,39 L 27.109351,37.911612 L 22.064043,37.911612 L 22.064043,39 L 27.109351,39 z"
       id="path4700"
       style="fill:#4d4d4d;fill-opacity:1;stroke:none;stroke-width:1.5;stroke-linecap:round;stroke-miterlimit:4;stroke-opacity:1" />
  </g>
  <g
     transform="matrix(0,-1,0.99102,0,200.49731,145.89501)"
     id="east-mini-center"
     style="opacity:1">
    <path
       d="M 27,21.954693 L 22,21.954693 L 22,27 L 27,27 L 27,21.954693 z"
       id="path4704"
       style="opacity:1;fill:url(#linearGradient4756);fill-opacity:1;stroke:none;stroke-width:1.5;stroke-linecap:round;stroke-miterlimit:4;stroke-opacity:1" />
  </g>
  <g
     transform="matrix(0,-0.6153846,0.99102,0,200.49731,135.8062)"
     id="east-mini-top">
    <path
       d="M 41,21.954693 L 38,21.954693 L 38,27 L 41,27 L 41,21.954693 z"
       id="path4708"
       style="fill:#000000;fill-opacity:1;stroke:none;stroke-width:1.5;stroke-linecap:round;stroke-miterlimit:4;stroke-opacity:1" />
    <path
       d="M 38,21.954693 L 28,21.954693 L 28,27 L 38,27 L 38,21.954693 z"
       id="path4710"
       style="opacity:1;fill:url(#linearGradient4758);fill-opacity:1;stroke:none;stroke-width:1.5;stroke-linecap:round;stroke-miterlimit:4;stroke-opacity:1" />
    <path
       d="M 41,21.954693 L 38,21.954693 L 38,27 L 41,27 L 41,21.954693 z"
       id="path4712"
       style="fill:url(#linearGradient4760);fill-opacity:1;stroke:none;stroke-width:1.5;stroke-linecap:round;stroke-miterlimit:4;stroke-opacity:1" />
    <path
       d="M 39,21.954693 L 38,21.954693 L 38,27 L 39,27 L 39,21.954693 z"
       id="path4714"
       style="fill:#1a1a1a;fill-opacity:1;stroke:none;stroke-width:1.5;stroke-linecap:round;stroke-miterlimit:4;stroke-opacity:1" />
    <path
       d="M 41,21.954693 L 38,21.954693 L 38,27 L 41,27 L 41,21.954693 z"
       id="path4716"
       style="fill:#1a1a1a;fill-opacity:0;stroke:none;stroke-width:1.5;stroke-linecap:round;stroke-miterlimit:4;stroke-opacity:1" />
    <path
       d="M 39,21.954693 L 38,21.954693 L 38,27 L 39,27 L 39,21.954693 z"
       id="path4718"
       style="fill:url(#linearGradient4762);fill-opacity:1;stroke:none;stroke-width:1.5;stroke-linecap:round;stroke-miterlimit:4;stroke-opacity:1" />
  </g>
  <g
     transform="matrix(0,-0.6153846,0.99102,0,200.44034,137.21707)"
     id="east-mini-bottom">
    <path
       d="M 7.972276,27.14567 L 11,27.14567 L 11,22.100363 L 7.972276,22.100363 L 7.972276,27.14567 z"
       id="path4722"
       style="fill:#000000;fill-opacity:1;stroke:none;stroke-width:1.5;stroke-linecap:round;stroke-miterlimit:4;stroke-opacity:1" />
    <path
       d="M 10.972276,27.14567 L 20.972276,27.14567 L 20.972276,22.100363 L 10.972276,22.100363 L 10.972276,27.14567 z"
       id="path4724"
       style="opacity:1;fill:url(#linearGradient4764);fill-opacity:1;stroke:none;stroke-width:1.5;stroke-linecap:round;stroke-miterlimit:4;stroke-opacity:1" />
    <path
       d="M 7.972276,27.14567 L 11,27.14567 L 11,22.100363 L 7.972276,22.100363 L 7.972276,27.14567 z"
       id="path4726"
       style="fill:url(#linearGradient4766);fill-opacity:1;stroke:none;stroke-width:1.5;stroke-linecap:round;stroke-miterlimit:4;stroke-opacity:1" />
    <path
       d="M 10,27.14567 L 11,27.14567 L 11,22.100363 L 10,22.100363 L 10,27.14567 z"
       id="path4728"
       style="fill:#1a1a1a;fill-opacity:1;stroke:none;stroke-width:1.5;stroke-linecap:round;stroke-miterlimit:4;stroke-opacity:1" />
    <path
       d="M 10,27.14567 L 11,27.14567 L 11,22.100363 L 10,22.100363 L 10,27.14567 z"
       id="path4730"
       style="fill:url(#linearGradient4769);fill-opacity:1;stroke:none;stroke-width:1.5;stroke-linecap:round;stroke-miterlimit:4;stroke-opacity:1" />
  </g>
  <g
     transform="matrix(0,-0.6153846,0.6153846,0,210.37084,135.8062)"
     id="east-mini-topright">
    <path
       d="M 36.485577,38 C 37.319595,38 38,37.371853 38,36.581731 L 38,28 L 28,28 L 28,38 L 36.485577,38 z"
       id="path4734"
       style="opacity:1;fill:#000000;fill-opacity:1;stroke:none;stroke-width:1.5;stroke-linecap:round;stroke-miterlimit:4;stroke-opacity:1" />
    <path
       d="M 39.03125,41 C 40.115473,41 41,40.183409 41,39.15625 L 41,28 L 39,28 L 39,37 L 37,39 L 28,39 L 28,41 L 39.03125,41 z"
       id="path4736"
       style="fill:#000000;fill-opacity:1;stroke:none;stroke-width:1.5;stroke-linecap:round;stroke-miterlimit:4;stroke-opacity:1" />
    <path
       d="M 37.334135,39 C 38.251554,39 39,38.309038 39,37.439904 L 39,28 L 38,28 L 38,36.536481 C 38,37.387436 37.258026,38 36.51073,38 L 28,38 L 28,39 L 37.334135,39 z"
       id="path4738"
       style="fill:#4d4d4d;fill-opacity:1;stroke:none;stroke-width:1.5;stroke-linecap:round;stroke-miterlimit:4;stroke-opacity:1" />
  </g>
  <path
     d="M 85.984873,90.07791 L 85.984873,150.07791 L 51.984873,150.07791 L 51.984873,90.07791 L 85.984873,90.07791 z"
     id="west-center"
     style="fill:url(#linearGradient4112);fill-opacity:1;stroke:none;stroke-width:1.50000000000000000;stroke-linecap:round;stroke-miterlimit:4;stroke-opacity:1" />
  <path
     d="M 162.36317,89.7112 L 162.36317,149.7112 L 196.36317,149.7112 L 196.36317,89.7112 L 162.36317,89.7112 z"
     id="east-center"
     style="fill:url(#linearGradient4116);fill-opacity:1;stroke:none;stroke-width:1.50000000000000000;stroke-linecap:round;stroke-miterlimit:4;stroke-opacity:1" />
  <path
     d="M 93.954475,82.494301 L 153.95448,82.494301 L 153.95448,48.494301 L 93.954475,48.494301 L 93.954475,82.494301 z"
     id="north-center"
     style="fill:url(#linearGradient4120);fill-opacity:1;stroke:none;stroke-width:1.50000000000000000;stroke-linecap:round;stroke-miterlimit:4;stroke-opacity:1" />
</svg>
