<?xml version="1.0" encoding="UTF-8" standalone="no"?>
<!-- Created with Inkscape (http://www.inkscape.org/) -->
<svg
   xmlns:svg="http://www.w3.org/2000/svg"
   xmlns="http://www.w3.org/2000/svg"
   xmlns:xlink="http://www.w3.org/1999/xlink"
   version="1.0"
   width="800"
   height="600"
   id="svg2">
  <defs
     id="defs4">
    <linearGradient
       id="linearGradient3455">
      <stop
         id="stop3457"
         style="stop-color:#ffffff;stop-opacity:1"
         offset="0" />
      <stop
         id="stop3459"
         style="stop-color:#ffffff;stop-opacity:0"
         offset="1" />
    </linearGradient>
    <linearGradient
       id="linearGradient3134">
      <stop
         id="stop3136"
         style="stop-color:#6a6a6a;stop-opacity:1"
         offset="0" />
      <stop
         id="stop3138"
         style="stop-color:#383838;stop-opacity:1"
         offset="1" />
    </linearGradient>
    <linearGradient
       x1="0"
       y1="300"
       x2="800"
       y2="300"
       id="linearGradient4115"
       xlink:href="#linearGradient3134"
       gradientUnits="userSpaceOnUse"
       gradientTransform="translate(-780,-160)"
       spreadMethod="pad" />
    <linearGradient
       x1="380"
       y1="177.29565"
       x2="380"
       y2="479.81668"
       id="linearGradient3461"
       xlink:href="#linearGradient3455"
       gradientUnits="userSpaceOnUse" />
  </defs>
  <g
     id="layer1">
    <g
       transform="matrix(1,0,0,1.19,20,29.01817)"
       id="g4052">
      <rect
         width="800"
         height="600"
         x="0"
         y="0"
         transform="matrix(1,0,0,0.8333333,-20,-20.183333)"
         id="rect3445"
         style="opacity:1;fill:#000000;fill-opacity:1;stroke:none;stroke-width:3.5999999;stroke-linecap:round;stroke-linejoin:round;stroke-miterlimit:4;stroke-dasharray:none;stroke-opacity:1" />
      <path
         d="M -20,-20.183333 L -20,-18.527703 L -20,80.810044 L -20,82.465672 L -20,180.14779 L -20,181.80343 L -20,279.48554 L -20,281.14117 L -20,378.82329 L -20,380.47892 L -20,478.16104 L -20,479.81667 L -18.35058,479.81667 L 81.237065,479.81667 L 82.886486,479.81667 L 180.82471,479.81667 L 182.47413,479.81667 L 280.41236,479.81667 L 282.06178,479.81667 L 380,479.81667 L 381.64942,479.81667 L 479.58764,479.81667 L 481.23707,479.81667 L 579.17529,479.81667 L 580.82471,479.81667 L 677.11351,479.81667 L 678.76293,479.81667 L 680.41236,479.81667 L 778.35058,479.81667 L 780,479.81667 L 780,478.16104 L 780,380.47892 L 780,378.82329 L 780,377.16766 L 780,279.48554 L 780,277.82991 L 780,180.14779 L 780,178.49216 L 780,80.810044 L 780,79.154414 L 780,-18.527703 L 780,-20.183333 L 778.35058,-20.183333 L 680.41236,-20.183333 L 678.76293,-20.183333 L 580.82471,-20.183333 L 579.17529,-20.183333 L 481.23707,-20.183333 L 479.58764,-20.183333 L 381.64942,-20.183333 L 380,-20.183333 L 282.06178,-20.183333 L 280.41236,-20.183333 L 182.47413,-20.183333 L 180.82471,-20.183333 L 82.886486,-20.183333 L 81.237065,-20.183333 L -18.35058,-20.183333 L -20,-20.183333 z M -16.701159,-16.872075 L 79.587645,-16.872075 L 79.587645,79.154414 L -16.701159,79.154414 L -16.701159,-16.872075 z M 82.886486,-16.872075 L 179.17529,-16.872075 L 179.17529,79.154414 L 82.886486,79.154414 L 82.886486,-16.872075 z M 182.47413,-16.872075 L 278.76293,-16.872075 L 278.76293,79.154414 L 182.47413,79.154414 L 182.47413,-16.872075 z M 282.06178,-16.872075 L 378.35058,-16.872075 L 378.35058,79.154414 L 282.06178,79.154414 L 282.06178,-16.872075 z M 381.64942,-16.872075 L 477.93822,-16.872075 L 477.93822,79.154414 L 381.64942,79.154414 L 381.64942,-16.872075 z M 481.23707,-16.872075 L 577.52587,-16.872075 L 577.52587,79.154414 L 481.23707,79.154414 L 481.23707,-16.872075 z M 580.82471,-16.872075 L 677.11351,-16.872075 L 677.11351,79.154414 L 580.82471,79.154414 L 580.82471,-16.872075 z M 680.41236,-16.872075 L 776.70116,-16.872075 L 776.70116,79.154414 L 680.41236,79.154414 L 680.41236,-16.872075 z M -16.701159,82.465672 L 79.587645,82.465672 L 79.587645,178.49216 L -16.701159,178.49216 L -16.701159,82.465672 z M 82.886486,82.465672 L 179.17529,82.465672 L 179.17529,178.49216 L 82.886486,178.49216 L 82.886486,82.465672 z M 182.47413,82.465672 L 278.76293,82.465672 L 278.76293,178.49216 L 182.47413,178.49216 L 182.47413,82.465672 z M 282.06178,82.465672 L 378.35058,82.465672 L 378.35058,178.49216 L 282.06178,178.49216 L 282.06178,82.465672 z M 381.64942,82.465672 L 477.93822,82.465672 L 477.93822,178.49216 L 381.64942,178.49216 L 381.64942,82.465672 z M 481.23707,82.465672 L 577.52587,82.465672 L 577.52587,178.49216 L 481.23707,178.49216 L 481.23707,82.465672 z M 580.82471,82.465672 L 677.11351,82.465672 L 677.11351,178.49216 L 580.82471,178.49216 L 580.82471,82.465672 z M 680.41236,82.465672 L 776.70116,82.465672 L 776.70116,178.49216 L 680.41236,178.49216 L 680.41236,82.465672 z M -16.701159,181.80343 L 79.587645,181.80343 L 79.587645,277.82991 L -16.701159,277.82991 L -16.701159,181.80343 z M 82.886486,181.80343 L 179.17529,181.80343 L 179.17529,277.82991 L 82.886486,277.82991 L 82.886486,181.80343 z M 182.47413,181.80343 L 278.76293,181.80343 L 278.76293,277.82991 L 182.47413,277.82991 L 182.47413,181.80343 z M 282.06178,181.80343 L 378.35058,181.80343 L 378.35058,277.82991 L 282.06178,277.82991 L 282.06178,181.80343 z M 381.64942,181.80343 L 477.93822,181.80343 L 477.93822,277.82991 L 381.64942,277.82991 L 381.64942,181.80343 z M 481.23707,181.80343 L 577.52587,181.80343 L 577.52587,277.82991 L 481.23707,277.82991 L 481.23707,181.80343 z M 580.82471,181.80343 L 677.11351,181.80343 L 677.11351,277.82991 L 580.82471,277.82991 L 580.82471,181.80343 z M 680.41236,181.80343 L 776.70116,181.80343 L 776.70116,277.82991 L 680.41236,277.82991 L 680.41236,181.80343 z M -16.701159,281.14117 L 79.587645,281.14117 L 79.587645,377.16766 L -16.701159,377.16766 L -16.701159,281.14117 z M 82.886486,281.14117 L 179.17529,281.14117 L 179.17529,377.16766 L 82.886486,377.16766 L 82.886486,281.14117 z M 182.47413,281.14117 L 278.76293,281.14117 L 278.76293,377.16766 L 182.47413,377.16766 L 182.47413,281.14117 z M 282.06178,281.14117 L 378.35058,281.14117 L 378.35058,377.16766 L 282.06178,377.16766 L 282.06178,281.14117 z M 381.64942,281.14117 L 477.93822,281.14117 L 477.93822,377.16766 L 381.64942,377.16766 L 381.64942,281.14117 z M 481.23707,281.14117 L 577.52587,281.14117 L 577.52587,377.16766 L 481.23707,377.16766 L 481.23707,281.14117 z M 580.82471,281.14117 L 677.11351,281.14117 L 677.11351,377.16766 L 580.82471,377.16766 L 580.82471,281.14117 z M 680.41236,281.14117 L 776.70116,281.14117 L 776.70116,377.16766 L 680.41236,377.16766 L 680.41236,281.14117 z M -16.701159,380.47892 L 79.587645,380.47892 L 79.587645,476.5054 L -16.701159,476.5054 L -16.701159,380.47892 z M 82.886486,380.47892 L 179.17529,380.47892 L 179.17529,476.5054 L 82.886486,476.5054 L 82.886486,380.47892 z M 182.47413,380.47892 L 278.76293,380.47892 L 278.76293,476.5054 L 182.47413,476.5054 L 182.47413,380.47892 z M 282.06178,380.47892 L 378.35058,380.47892 L 378.35058,476.5054 L 282.06178,476.5054 L 282.06178,380.47892 z M 381.64942,380.47892 L 477.93822,380.47892 L 477.93822,476.5054 L 381.64942,476.5054 L 381.64942,380.47892 z M 481.23707,380.47892 L 577.52587,380.47892 L 577.52587,476.5054 L 481.23707,476.5054 L 481.23707,380.47892 z M 580.82471,380.47892 L 677.11351,380.47892 L 677.11351,476.5054 L 580.82471,476.5054 L 580.82471,380.47892 z M 680.41236,380.47892 L 776.70116,380.47892 L 776.70116,476.5054 L 680.41236,476.5054 L 680.41236,380.47892 z"
         id="rect3158"
         style="opacity:1;fill:url(#linearGradient3461);fill-opacity:1;stroke:none;stroke-width:3.28633547;stroke-miterlimit:4;stroke-dasharray:none;stroke-opacity:1" />
    </g>
  </g>
</svg>
