/* XPM */
static char *nix0000[]={
"23 32 246 2",
"bV c #321e0e",
".g c #3a1602",
".h c #3d1d09",
".y c #3e1513",
".# c #421e22",
".o c #461e0e",
"Qt c #46272e",
"bZ c #462a1e",
"bR c #482516",
".u c #492207",
"bY c #4a1e02",
".i c #511d08",
".d c #512202",
".z c #512211",
".f c #512711",
".n c #52281f",
"bS c #522e26",
"bW c #562613",
"bX c #56321a",
".k c #5a280e",
".l c #5a2e0a",
".m c #5a2e16",
".c c #5b2207",
".a c #5b261c",
".q c #5e1a02",
".4 c #602218",
".M c #62260f",
"bO c #622e02",
".A c #632819",
"bM c #633413",
".s c #64200b",
".x c #642e0c",
".e c #642e18",
".j c #643207",
"bT c #643620",
".p c #652a0d",
".r c #662602",
".t c #6a3602",
"#m c #6c2804",
".N c #6c2815",
".L c #6c290c",
".5 c #6d2e09",
"a3 c #6d3113",
".b c #6d3612",
".C c #6e1602",
"bU c #6e3e16",
".B c #6f2104",
"bq c #721a06",
"aO c #722f1d",
"a4 c #742e0e",
"aN c #743116",
"aG c #752606",
".6 c #752a11",
"#E c #75320f",
"#8 c #762206",
".v c #763e0e",
"aU c #793622",
"aA c #793702",
"bB c #793715",
".Q c #7a2002",
".F c #7a3606",
".w c #7a4602",
"#k c #7b2d0d",
"a2 c #7d2605",
".E c #7d3207",
"aF c #7e2a1e",
"#l c #7e3119",
"#D c #7e3a14",
".G c #7e4206",
".R c #813604",
"bx c #822a02",
".O c #823009",
"aw c #823722",
"bG c #84421a",
"bv c #844616",
"a7 c #853717",
".P c #862202",
".7 c #862a10",
"ai c #86321e",
"aV c #863e1a",
".J c #864202",
"bp c #864222",
"bs c #864622",
".D c #873b04",
"ar c #882904",
"aS c #882f03",
".K c #884702",
"ba c #885006",
"ao c #893820",
"be c #8a3713",
"bd c #8e3218",
"#G c #8e3602",
".3 c #8e4018",
"bi c #8e4206",
"bP c #8e4a12",
".H c #8e5105",
"#9 c #8f3a17",
"#B c #8f3e04",
"ax c #903f23",
"#F c #923e11",
"aq c #93440f",
"#U c #944205",
"#. c #944602",
"#H c #945007",
"aM c #952d08",
"aj c #963a11",
"bo c #964a16",
"#j c #974317",
".I c #985e0a",
"bm c #995125",
"a1 c #9a330a",
"#o c #9a3a0e",
"#S c #9a3e0d",
"ap c #9a401e",
".9 c #9a4212",
"aY c #9a4403",
"b. c #9a4a02",
"ac c #9a4a1e",
"#C c #9a4e1e",
".S c #9a4f06",
".T c #9a5a02",
"aK c #9c4a08",
"#7 c #9c4a14",
".8 c #9e360a",
"aL c #9e3a02",
"#O c #9e4606",
"aR c #9e5602",
"#n c #9f4321",
"aT c #a03818",
"bc c #a04108",
"#Z c #a04618",
"#2 c #a05611",
"#P c #a14e05",
"ab c #a14e22",
"ad c #a25113",
"#V c #a26602",
"#N c #a45204",
"bu c #a45a10",
".2 c #a46024",
"aW c #a65611",
"#1 c #a6561a",
"bN c #a66a26",
"a9 c #a75602",
"#T c #a8501e",
"#M c #a86006",
"an c #a93e16",
"am c #a9460c",
"#0 c #aa4e0e",
"aJ c #aa6e05",
"#p c #ad6809",
"aZ c #ae510e",
"#v c #ae5606",
"ah c #ae5e22",
"aQ c #ae6216",
"## c #ae7616",
"#x c #af5d09",
"bj c #b16208",
"aa c #b24e06",
"a0 c #b24e1e",
"#w c #b25610",
"by c #b2661a",
"av c #b3460e",
"bf c #b36b08",
"#i c #b36e1b",
"bl c #b47210",
"bQ c #b56929",
"#4 c #b65b02",
"#u c #b66606",
"ay c #b66e16",
"bF c #b67626",
"#6 c #b7621a",
"as c #b85e26",
"#Y c #bc720a",
"ae c #be6b0b",
"#y c #be760a",
"bK c #be7c2e",
"bh c #be8616",
"aE c #c27112",
"aP c #c27c0c",
"a. c #c2820a",
"bt c #c28e0e",
"bD c #c67e22",
"bb c #c68602",
"#3 c #c97612",
"bk c #ca7a16",
"b# c #ca961e",
"#A c #cc8228",
"#Q c #cd850e",
"aX c #cd8b22",
"#t c #ce8a11",
"bz c #ce9212",
"ag c #d07d28",
"a8 c #d09a1a",
"au c #d28319",
"bL c #d28a42",
".U c #d28e2a",
"bH c #d29636",
"#5 c #d48432",
"a6 c #d58a1a",
".1 c #d68e3a",
"#L c #d69212",
"bg c #d69616",
"a5 c #da8e1e",
"bE c #da9242",
"#I c #daa036",
"#e c #dd8e2d",
"bw c #e2b222",
"br c #e49832",
"#d c #e49a2e",
".Y c #e59742",
"bJ c #e6a65e",
"ak c #e6ae22",
"aB c #eaa231",
"az c #eaab3b",
"#f c #ee9a38",
".0 c #eea642",
"aI c #eeb236",
"bn c #efa03a",
"aH c #f2ae46",
"al c #f2b026",
"#q c #f2b23a",
"aD c #f4b632",
"af c #f6a242",
".X c #f6a656",
"#X c #f8ba30",
".Z c #faaa42",
"bI c #faba6e",
"#h c #fbb24e",
"#z c #fcb640",
".W c #feb656",
"#g c #febc46",
"aC c #febd39",
"#R c #febe56",
".V c #fec356",
"at c #fec540",
"#c c #fec64b",
"#s c #fecc40",
"#a c #fecc4a",
"#r c #fecd50",
"a# c #fed240",
"bC c #fed44c",
"#b c #fed45c",
"#K c #fed644",
"#W c #feda4a",
"#J c #fede56",
"bA c #fee256",
"Qt.#.a.b.c.d.a.a.e.f.g.h.f.i.j.j.k.l.m.f.n.o.#",
"Qt.n.p.q.r.s.p.b.j.t.l.u.i.p.v.v.w.t.x.f.f.f.y",
".z.A.B.C.D.E.F.G.G.H.I.H.H.D.J.K.G.F.L.c.M.a.a",
".e.N.O.P.Q.R.S.T.U.V.V.W.X.Y.Z.0.1.2.3.s.N.s.4",
".5.6.7.8.9#.###a#b#c#d#e#f.Y#g#c#h#i#j#k#k#l.N",
"#m#k#n#o.D#p#q#r#s#t#u#v#w#x#y#z.V#A#B#C#D#k.N",
"#E.D#F#G#H#I#J#K#L#M#N#O#P#x#p#Q#R#e#S#T#j.O.6",
".B#j.9#U#V#s#W#X#Y#P#N#Z#0#1#2#p#3#4#5#6#7#F#8",
"#9#U#P.Sa.#Wa##t#vaa#Z#n#nabacad#xaeafagah#.ai",
"aj#Z#P#paka#al#uamamanaoaoap#9aq#U#u#h.U#A#H.R",
"aras#x#tatatau#4aaavajaoawaxai#k.Eay#Raz.0.TaA",
"ajas#xaBaCaDaEavavanajawaiaoaFaG.E#iaHaI#caJaA",
"#Zah#x.0#r#QaKaLaMaM.OaN.NaO.B.6.D#M#t#q#raP.F",
"aqaQaE#f#IaRaSamaTaS.OaN.NaNaUawaVaWaPat#KaX.E",
"#2#Mag.Z#NaYaZa0a1ara2.r.4aNa3a4aV.SaP#s#K#L.D",
"#HaQa5#ga6ay#4anana1a7.6.sa3.b#E.R#.#Qa#a#a8.H",
"#2#MaPatat#ua9#0ana1aj.6.5.b.p#Ea7b.aPa##Wb#ba",
"#2#MaPa#albb#ubcanaTbdaG.M.L.p#lbe#ObfaD#Kb#.H",
"ad#paEaD#zaBaeaaaMaM.7a2.5.5aNa7aqaK#Mbg#rbh.K",
"bi#1#Ma5a##zbj#xaTaMar.Q.B#maUaoac#xbk#t#gbl.K",
"bm.S#Pa6#aat#Y#xam.8ar.Q.B.BawaxaKbj#faubn#x#B",
"#Cbo.Ra5#gaC#y#M#P#F#G.7.QaFaw#jaYaE.WaEag#P.O",
"bpbm#Bau#ra#a8aJay#Tap.7bq#kax#C#Mbr#R#4asbcaS",
"bsbm#Ua9atat#sbtayadabaia2#9bobu#Y#h#hb.#0#Sar",
"#Dbv.D#U#Q#s#KbwaJ#M#Ua2bxaj#Pbybr.Vag#S#Saj.O",
".b.R#B.O#Mat#W#sbz#paKaS#B#Ua9bk#zaHbi.Saqbe.B",
".p#EaV.Db..U#rbAaC#tb.aj#N#P#3#h#RaR#2aV#ka7bB",
".5#E.Oa7.F.Ha8.VbC.VbDbE.Y#eafafbfbFaqbG.L.b.p",
".e.MaO.N#m.Gbabl#IbHbhbIbJbK#A#5bL.2bG.M.MbMbM",
".a.n.A.c.x.tbM.GbN.GbO.k.tbPbQbQ.J.5.p.A.n.fbR",
"bS.n.o.o.o.ubTbUbO.i.l.u.u.x.vaVbBaN.c.z.nbRbV",
".n.y.#bR.h.f.f.d.ibWbTbX.ubY.4.6.L.A.i.ybRbZbV"};
