/* XPM */
static char *nix0001[]={
"23 32 239 2",
".r c #331406",
".q c #391b0e",
"bK c #3b1308",
".o c #3e1a10",
"bR c #3e1e0f",
"bS c #3e1e1a",
"bQ c #3e2216",
".c c #421612",
"bN c #441f13",
".G c #451705",
".p c #45221b",
".S c #461e02",
".# c #482719",
".e c #4a1212",
".B c #4a1e11",
"bJ c #4a2213",
"bP c #4a221e",
".D c #4a2606",
"Qt c #4a2e1e",
".h c #4d1903",
".d c #4d1911",
".i c #4e1f06",
".f c #4f1a1a",
".R c #4f1e10",
".s c #4f2213",
".n c #4f2619",
".C c #50280e",
".a c #512a17",
".H c #521a08",
".j c #561602",
".6 c #562413",
".m c #56251d",
".b c #572c1e",
".g c #581e0c",
".T c #591e04",
".F c #592508",
"bx c #592a15",
"bC c #592e15",
".k c #5a1a02",
".v c #5a2511",
".w c #5d2b04",
"bI c #5e2606",
".Q c #5e2a13",
".l c #5e2a22",
".u c #5f2217",
".V c #601905",
".I c #601e05",
".7 c #602611",
"#B c #621a14",
".t c #621e12",
".z c #622406",
".A c #622a13",
".E c #622e12",
"bD c #622e1e",
"bE c #623216",
"a# c #661a02",
"aD c #661e0a",
".x c #66320e",
".O c #663602",
"bO c #673629",
"#P c #681e02",
"#Q c #682016",
".9 c #682205",
"#A c #68220c",
"bm c #682a18",
".U c #692a0f",
".P c #692e14",
"#z c #6a2608",
"#m c #6a260e",
"aE c #6c2614",
"#D c #6e1909",
"#F c #6e2202",
"#E c #6e220c",
"#y c #6e260a",
"ab c #6e2b02",
".J c #6e3202",
"#j c #712a0e",
"#i c #71321b",
".y c #713605",
"aj c #722a06",
"#1 c #722a1a",
".8 c #722e13",
"as c #72320e",
"by c #723a1a",
"bM c #723e0a",
"#l c #732609",
"aI c #742203",
"aH c #761e04",
"#. c #762602",
"au c #762a02",
"#C c #762e26",
"aF c #763616",
"al c #772a06",
"#0 c #772a0d",
"aM c #772f06",
".W c #782e0d",
"aq c #783218",
"#k c #792a1d",
"#2 c #792e1a",
"aU c #7a1e02",
"ar c #7a3212",
"#4 c #7b2505",
"#T c #7e2a02",
"aa c #7e2a0e",
"#n c #7e360a",
"ak c #7e3617",
"a7 c #7e3a02",
".5 c #7e3c1c",
"#3 c #7f2e0d",
"aA c #7f3205",
"#O c #7f3210",
"#x c #7f3217",
".N c #7f4102",
"#o c #812e05",
"a2 c #82260e",
"#R c #823224",
".X c #823603",
".K c #824c0c",
"ai c #833619",
"a0 c #843a0e",
"bL c #84540c",
"at c #853610",
"aC c #853a1b",
"b# c #862606",
"aT c #862b08",
"aG c #863211",
"aR c #863e18",
"aV c #8a2a12",
"ao c #8a4802",
".Y c #8a520a",
"ah c #8b3e16",
"a1 c #8b3e25",
"a3 c #8c260c",
"#S c #8c3610",
"b. c #8c3a17",
"#5 c #8e3602",
"ap c #8e4220",
"#G c #903c03",
"#h c #904a1c",
"aL c #905602",
"aN c #923a0e",
"a8 c #924414",
"## c #943a0a",
"aS c #943e19",
"a4 c #953209",
"a. c #96421e",
"aX c #964802",
"aB c #964a28",
"#w c #964e2e",
"aQ c #965a02",
"a6 c #985408",
"aW c #9a3e1a",
"be c #9a4222",
"am c #9a4515",
"#Z c #9a4a1a",
"#p c #9e4212",
"bf c #9e4a26",
"#N c #9e5220",
".4 c #9e5e1a",
"av c #9f4815",
"aO c #a05012",
"az c #a16306",
"#H c #a23e02",
"bb c #a24a02",
"bn c #a2560a",
"#a c #a65e0a",
"bA c #a6621a",
".L c #a66a0a",
"an c #a8501a",
"#q c #a95a07",
"bd c #ab530f",
"#I c #ae5e02",
"bw c #b0641a",
"#v c #b16806",
"#g c #b2722e",
".M c #b27616",
"ac c #b35312",
".3 c #b67404",
"bh c #b75d13",
"#9 c #b96b0d",
"#M c #ba6606",
"bl c #ba6616",
"bo c #ba6e1a",
"bg c #be7202",
"aw c #be7a0e",
".Z c #be8a2e",
"ad c #c06c08",
"bv c #c48014",
"#Y c #c5750b",
"#u c #c68202",
"#f c #c68a12",
"#8 c #c88604",
"a9 c #ca7226",
"bq c #ca7a0e",
"#X c #ce8a06",
"aJ c #ce960a",
"#b c #ce962a",
"bc c #d29e0a",
"aK c #d2a212",
"bH c #d2a23e",
"bi c #d49e06",
"#J c #d69a1a",
"#6 c #dea21e",
"#U c #dea61e",
"bs c #e0a612",
"bu c #e29a22",
"ae c #e5ad1e",
"a5 c #e6b21f",
".2 c #e6b23a",
"aZ c #e8ae28",
"bG c #eaba52",
"ax c #ebb927",
".0 c #eebe52",
"bk c #f0b22a",
"ba c #f0c628",
"bF c #f2ba62",
"aY c #f2be1a",
"br c #f6b236",
"aP c #f6c222",
".1 c #f6c648",
"bp c #fabe2a",
"ay c #faca36",
"#W c #fdd432",
"bt c #fec526",
"bz c #fec63a",
"bj c #fece26",
"#e c #fed13f",
"#t c #fed63f",
"#r c #fed652",
"bB c #fed662",
"#K c #feda31",
"#c c #feda3d",
"af c #fede34",
"#d c #fee054",
"ag c #fee236",
"#V c #fee23f",
"#L c #fee631",
"#s c #fee63e",
"#7 c #feea36",
"Qt.#.a.b.c.d.e.f.f.g.h.i.j.k.g.l.m.n.n.o.o.p.q",
".rQt.n.d.d.s.d.t.u.v.w.x.y.y.z.A.m.s.m.B.#.#.q",
".C.D.E.F.G.h.H.j.I.J.K.L.M.L.N.O.P.v.Q.R.B.n.S",
".S.F.T.U.H.F.V.W.X.Y.Z.0.1.2.3.4.5.P.u.h.h.6.s",
".7.P.8.9.z.T.9#.###a#b#c#d#e#f#g#h#i#j.I.k.7.F",
".u.k#k#l#m.T#n#o#p#q#b#r#s#t#u#v#w#x#y.I.I#z#A",
"#B#C#D#k#E#m#F#G#H#I#J#K#L#K#u#M#N#O#.#P.V#z#z",
"#Q#k#R#D#A.I#S#T#H#M#U#V#L#W#X#Y#Z.W#0#F#P#E#m",
"#1#2#3#4#y#j#3#5#H#M#6#L#7#W#8#9a.#x#x#0a##0#j",
"#j#2aa#.#zab#o#5acadaeafagaf.3#aahai#x.W#P#j#1",
"ajak#oalabab#3aman#Yaeag#7#W.Lao#napaiaq#Parak",
"asaiat#T.Wau#oavacawax#K#LayazaoaAaBaC#2aDaE#j",
"aFataGaH#0aI#4#5###9aJ#W#WaKaL.UaMaBaC.W#lar.5",
"#OaC#SaIaI#D#4aNaO#9#J#c#saPaQ.NaRaBaC#..9.8.W",
"#0aRaSaT#DaUaVaWaX#a#8aYaPaZaL.Japapa0#.#0arak",
"#2a1#S#5aIa2a3a4an#va5#V#K#ea6a7a8at#S#l.W#xar",
"#ka1#SaG#4#4a3a4aca9ae#V#L#t#a.XaNb.#Oaaaj#Oar",
"#RaC#naAalaUb#a4acadaZagagbaaQ#5a.aNb.#3#.akaj",
"aiaC#naAalaIb###bb#Mbcafagaeaz#GaNaSaS#0#l#Raq",
"#xaiauar#lau#o##bbazae#Kagax#9bd#pbebfaa#l.8aq",
"#xak#l#y#P#laM.XaX.3aeag#KaKbgbh#paSap#0#y.8#i",
".W#n#y#E.I#Aal#naO.La5afbabi#Ibhav#SaGaI#y#i#i",
"#1aq#z#E.taD#0ah#Iawae#Vbjbk#YblanaW#OaI#z#ibm",
"#i.8#m#1#B.V#EaibnboaZ#WaYbpbqa9bfaN#3.9.I#i.P",
".P#i.U.I#B#B#EaNa.adbrbsbtbtbgblamaS#l.V#A.P.7",
".6.A#i#A#AaEaH#o#Zblbuae#Waybvbwa8ai#y.9.Q#ibx",
".Cbxby.x#j.8aE#0am#q#Ybk#tbzbvbAa7#A.k.k.R.Abx",
"bxbx.E.z.T.AakaCat#NawbB#r.1.L.N.8.7.k.R.HbCbD",
".a.a.F.F.h.hbE.Pby#h.MbFbGbH.Y.JbIbD.m.s.s.bbJ",
".D.C.abC.SbK.G.obI.g.y.KbL.KbM.P.R.a.B.cbN.n.r",
".p.o.B.c.r.q.S.#bJ.R.Q.Q.w.w.xbO.s.#.o.q.qbP.q",
".p.o.sbKbKbQ.rbRbN.bbObObJ.G.d.gbPbSbSbSbKbQ.o"};
