/* XPM */
static char *nix0002[]={
"23 32 237 2",
".n c #4a1a16",
".m c #4a261a",
".h c #4e1a02",
".l c #4e2416",
".b c #522103",
"Qt c #542521",
".Q c #55260b",
".v c #5c2804",
".a c #5d2b11",
".# c #5e2c1c",
".i c #5e2e06",
".p c #5f210b",
".d c #61321b",
".C c #621a02",
".A c #622816",
"bP c #624202",
".q c #652a08",
".g c #652e05",
"aw c #652e11",
".c c #653617",
"aE c #661d03",
"bM c #66260a",
".P c #663202",
".w c #683c07",
"#8 c #69220a",
"a5 c #692614",
".4 c #692a17",
".o c #692e21",
".f c #6a3212",
".u c #6c3608",
".e c #6c3b18",
".B c #6e3226",
"aj c #6f2103",
".r c #6f3d09",
"ai c #70270c",
"an c #702914",
".D c #703019",
".z c #703823",
".E c #713009",
"bN c #724602",
"aW c #762405",
"#A c #763519",
"ar c #78260e",
"ao c #782c0c",
"ax c #782c14",
"#K c #792c04",
".T c #793305",
".3 c #79350f",
".F c #793a02",
".y c #793e03",
"bQ c #7a5002",
"aP c #7b2502",
".R c #7c321b",
".5 c #7c3b19",
"ae c #7e2c08",
"ay c #7e2e14",
"#j c #7e3507",
"bO c #7e5a12",
".k c #7f421b",
".j c #7f471e",
"a# c #822e0e",
".6 c #823a1e",
"#k c #823e06",
"bD c #82460e",
".t c #824a0a",
"ac c #83321a",
"#m c #833611",
"as c #833a02",
".7 c #843206",
"ak c #843211",
"#z c #843604",
"#l c #853e1b",
"aQ c #862d08",
"aG c #863a0e",
"bA c #864616",
".s c #864622",
"aA c #865103",
"ab c #872d11",
"ad c #882d1a",
"aJ c #894506",
"bn c #8a260a",
"#4 c #8a3213",
"#O c #8a3613",
"aF c #8a361e",
"#9 c #8a3e04",
"bH c #8a5e1a",
"aq c #8b3e21",
"#D c #8c3507",
".S c #8c3a19",
"#X c #8c3e0e",
"aO c #8d3a07",
"bo c #8e3222",
"az c #8e3313",
"bz c #8e4a02",
"#R c #904221",
"#C c #914205",
"b# c #914513",
"aa c #923612",
"ap c #92361c",
"#N c #923a16",
"#n c #924a06",
".H c #925a02",
"#3 c #933113",
"a6 c #943a0c",
"#L c #943e02",
"#r c #944604",
".x c #945a24",
"#M c #953904",
"#Q c #953b1f",
"#u c #964a11",
"#F c #964a1e",
"af c #965606",
"bh c #984622",
"#i c #985004",
"aT c #994a04",
"aR c #9a3e02",
"#s c #9a4507",
"bL c #9a662e",
"bG c #9a761e",
"#2 c #9b3d12",
"bk c #9c4e16",
"bw c #9c501c",
"#U c #9c5a04",
"#h c #9d6205",
"#1 c #9e4206",
"ba c #9e4a06",
"bv c #9e4e26",
".G c #9e621a",
"#P c #9f4929",
"#c c #a05107",
"#G c #a24916",
"#t c #a25616",
"#E c #a2562e",
"bm c #a43c14",
".8 c #a65a16",
"be c #a65f07",
".M c #a66a22",
"av c #a66e02",
"#T c #a8520e",
"#B c #a85904",
"bj c #aa4a1e",
"#b c #aa5f07",
"#S c #ab5223",
"aS c #ae661a",
"#7 c #ae6c07",
".L c #ae6d16",
"#Y c #b2621e",
".N c #b27325",
"#o c #b46104",
"#v c #b4660e",
"bq c #b64e16",
"#H c #b65912",
"a7 c #b66c04",
".I c #b66e1e",
"ah c #b67212",
"bx c #b67602",
"bs c #ba8002",
"a. c #bb6723",
"a0 c #bc6e12",
".K c #bc7929",
"bu c #be5e0a",
"aB c #be8612",
"bE c #be8e42",
"aN c #c07416",
"#I c #c26e02",
"#d c #c27e36",
"#y c #c48008",
".J c #c48536",
"bK c #c49630",
"#0 c #c67626",
"bp c #c68a0e",
".O c #c68d34",
"bl c #ca622a",
"bi c #ca6a26",
"bt c #ca8606",
"aK c #ca8622",
".U c #ca8d23",
"aU c #ce7a2a",
"aV c #ce861a",
"b. c #ce8a16",
"bI c #ce9634",
"a4 c #d07618",
"#e c #d2862a",
"a1 c #d28812",
"bJ c #d2a232",
"aI c #d59221",
"#q c #d68226",
"bC c #d6a25e",
"aZ c #da8e2a",
".0 c #dc9a48",
"bf c #dca02e",
"#a c #de9626",
"bg c #dea61a",
"ag c #deaa24",
"al c #deb226",
"#J c #e09246",
"#V c #e59f27",
"by c #ea8e3e",
"aY c #ea9636",
"#w c #ea9e3a",
"#5 c #eaa82e",
"br c #eaa83c",
"bd c #eaae22",
"bB c #eea24e",
"aD c #f1b735",
"aM c #f2ba46",
"bb c #f2be2e",
"at c #f2c43a",
".V c #f3b03f",
"a8 c #f4b02a",
".1 c #f5b14b",
"aX c #f5b643",
"#x c #f6aa32",
".Y c #f6b25c",
"am c #f6ca32",
".W c #f9be4f",
"#Z c #faa64c",
".9 c #fcbc45",
".2 c #fcc853",
"#W c #fccb48",
"aH c #fdcd3d",
"## c #feb63a",
"#f c #feb64a",
".Z c #febc66",
"#. c #fec243",
"a9 c #fec63a",
"#g c #fec646",
".X c #fec85f",
"#p c #feca36",
"bF c #feca6c",
"aL c #fece4e",
"#6 c #fed246",
"a3 c #fed251",
"au c #fed636",
"bc c #fed644",
"aC c #feda42",
"a2 c #feda56",
"QtQt.#.a.b.c.a.d.e.f.g.h.b.i.j.j.k.e.d.dQt.l.m",
".nQt.o.p.q.p.r.r.s.t.u.v.w.w.x.x.y.u.e.a.z.a.l",
".A.B.C.D.E.F.G.H.I.J.K.L.M.t.N.K.J.O.y.P.q.q.Q",
".A.D.R.S.T.G.U.V.W.X.Y.Y.Z.0.1.2.X.1.O.F.3.3.4",
".D.5.6.7.8.I.9#.###a#b#c#d.I#e#f#g.W.V#h#i#j#k",
".p#l#m#n#o.V#p.9#q#r#s#t#u#n#v#v#w#x#y.V#v#z#j",
"#A.j.T#i#a.W.9#y#B#C#D.S#E#F#G#H#I#o#y.2#J#c#K",
"#A#m#C#t#w.X#a#b#L#M#N#O#P#Q#R#S#T#U#V#W.V#b#C",
".D.6#X#Y#J#Z#0#1#M#2#3#4.S#Q#Q#Q#S#i#5#6.9#7#k",
"#8.R#K#9#ta.#1a##3#3aaabac.Sadae#zafag#6#6ah#k",
".4.Daiajaj.7a##4#3abaa.7ak#Radac.E#halamam#7#k",
".i.ganajaeaoacacapab#zaeaoaqaraoas#hatau#pav.y",
".d.gaw#8axaiay.Raz#4#m#j.3#lax.TaAaBamaCaD#U.T",
".daw#8aEaEajayaFa##O.7.6aG#lao#z#UaD#paHaIaJ.E",
".oawanaiajaoa##4azad#D#z.F#9ai#raK#.aLaMaNaO#K",
".B.4anaj#KaP#4aQ#2aR#1#r#iaSaTaU.W#5.VaV#c.7ao",
".B.DaraWaWaQaa#2aR#Y#7.UaX#xaU.ZaYaZa0#b#9.T.R",
"#A.TacaPaQ#DaQaR#oa1.Va2a3.Wa4a4#Ta.aT#z.7.Ra5",
".D.5akaea6#C#ia7#Va8#pa9aXb.#HaRaR#Sa6arao.Ra5",
".5b#a##4#r#ib.aD#6#paHa8#V#BbaaR#G#P#4ararai.D",
".5#R.7aO#c#7bbbcbcbd#ya0#t#L#M#G#3#Na#ajaraian",
".S.S.7a#bebfaHaHbgah#B#BaaaaaR#Dae#RadaEanan.o",
"bh#R#L#C.U#WbcaD#y#vbibj#3aQ#3aQae#Rao.C.4.A.A",
"#Pbk#C#B.V#6a9aI#I#Hbj#3ad#3ab#4.7aoanaia5.p.o",
"#Dba#n#baXaL.V#v#HblbmbnabboadadaxaF.Raia5.4.A",
"#S#u#c#hbp#W#a#obibqbm#3#4a#ab.Sae.RajaEax.R.p",
"#R#u#7brbgbsbt#Ibubq#M#T#uas#C#L#zaO#9.kao.E.D",
"bvbw.LaMaHbbbxa1#Zbybi#J.0#d#n#i#7aNaS.8bzan.E",
".kbAaf.WaHaCbcaD#wbB.NbBbC.U#5.9#g#..X.Z.J.k.5",
".kbDbDbE.2at#W#WbF.N.E.gaAbE.W.2aLaL.XbFbC.t.h",
".z.z.3bDaAbGbGbGbH.u.p.u.r.tbEbIbJbKbKbEbL.c.b",
".z.v#AbM.qbNbObP.w.e.r.D.b.q.yaAbQbQbN.w.w.c.Q"};
