/* XPM */
static char *nix0003[]={
"23 32 244 2",
"bW c #46120a",
"bS c #482016",
"bV c #4a1612",
"bX c #4a1e22",
"bU c #4a2616",
"bR c #4e301c",
"bG c #522016",
"bI c #542823",
"bx c #561606",
"#R c #592011",
".s c #592206",
"aK c #5c270c",
".K c #5c2802",
"ag c #5d2614",
"#5 c #5d2825",
".t c #5e2a14",
"#z c #5e2f1c",
"aL c #612111",
"at c #622207",
"#i c #62321d",
".g c #632a05",
".# c #632a15",
".u c #632e1c",
".L c #633002",
".i c #641a07",
"aM c #642609",
"aA c #642612",
"#Q c #643028",
"bK c #652f0f",
"#S c #662011",
".h c #662105",
".4 c #663602",
"#7 c #6a1a06",
"aB c #6a2e06",
"Qt c #6a361a",
"bF c #6a3632",
"#A c #6b1d10",
".c c #6b2206",
"#j c #6b3206",
"a5 c #6c2218",
".C c #6c2606",
"#6 c #6c2612",
"aJ c #6d2211",
".B c #6d2a09",
".a c #6d2a12",
".r c #6d380d",
".q c #6e2e02",
".3 c #6e421a",
"bw c #703228",
"a6 c #722212",
".b c #722e19",
".J c #72320c",
"aR c #72321a",
"bt c #723a26",
".j c #732610",
"bb c #732618",
"au c #732806",
"az c #742a12",
"as c #742e0f",
"bu c #762016",
"#T c #76220a",
"bh c #762e02",
"bv c #763206",
"bi c #76321a",
"#k c #773211",
".f c #783e0c",
"#8 c #7a2212",
"ah c #7a2606",
"a1 c #7a2c02",
"bf c #7a2c1a",
"ar c #7a2d0e",
"aC c #7b3712",
"aS c #7c361c",
".d c #7d3904",
"#E c #7e3204",
"ai c #7e3210",
"bL c #7e4602",
"a# c #7f270e",
"#X c #7f2e09",
"aN c #7f321b",
".o c #7f420b",
"ak c #822e1e",
"#B c #82370b",
"#4 c #823802",
".e c #824812",
"av c #84371b",
"#U c #86260a",
"#9 c #862a0e",
"aD c #862e02",
"ay c #873111",
"#G c #873e03",
"#Y c #89311e",
".V c #894305",
".p c #895017",
"b. c #8a391c",
".l c #8a431d",
"ba c #8a4a02",
"#P c #8a4a12",
".m c #8a4a1a",
"#C c #8e2e0e",
"#F c #8e4004",
".k c #8e4226",
".D c #8e460e",
".n c #8e5216",
".M c #8e5232",
"bT c #8e561a",
"aa c #8f351d",
"af c #90400a",
"aj c #913d21",
"#W c #914216",
"a. c #923202",
"by c #924604",
"bj c #924a1a",
"be c #945202",
"#l c #953a0e",
"#y c #954c06",
"#Z c #984418",
"#V c #993e13",
"bm c #9a420a",
"bn c #9a4520",
"bE c #9a5632",
".5 c #9a5a22",
"#H c #9d4b0a",
"#D c #9e3e02",
"bl c #9e4a27",
"bB c #9f631a",
"aX c #a04612",
"#p c #a0580b",
"al c #a14c17",
"ab c #a24a1e",
"a4 c #a25202",
"bg c #a25e04",
"b# c #a65e06",
".2 c #a66622",
"a9 c #a8660e",
"#3 c #a9560e",
".v c #aa623e",
".S c #aa6a06",
".A c #aa6e32",
".U c #ab5b12",
"aQ c #ac5220",
"bM c #ac6c14",
".x c #ae7236",
".R c #ae7a18",
"#x c #b0660c",
"#m c #b1560e",
"am c #b25e14",
"aU c #b26e02",
".T c #b2721e",
".G c #b27630",
"#J c #b66004",
"#K c #b66606",
"aP c #b67202",
".Q c #b68216",
"aW c #b75e17",
"ac c #b7621f",
"aG c #b86a02",
".z c #b87e36",
"aI c #ba5e2e",
".w c #ba7242",
"aV c #bb6c0d",
"aq c #bb6d31",
".I c #bc7a24",
"bp c #be661e",
"#0 c #be6636",
"aH c #be6c1e",
".y c #be763a",
"bs c #be7a12",
".0 c #be7e1a",
".F c #be7e36",
".H c #be8a3a",
"#r c #c26e06",
"ax c #c2761e",
"#q c #c57a1d",
".E c #c67e4a",
"aw c #c68206",
"a7 c #c7831f",
"#n c #c8721a",
".W c #c97e2e",
"#s c #ca8202",
"#O c #cd7e23",
".P c #cd8c21",
"#1 c #ce820e",
"aZ c #ce8e0a",
"bN c #ce923a",
"#I c #d2843e",
"bk c #d28612",
"#L c #d29202",
"bC c #d29232",
"bQ c #d29646",
"bc c #d68a1a",
"#o c #d68a2e",
"bo c #d78525",
"an c #d9952d",
"#g c #db911f",
"ao c #de9e1a",
"ae c #de9e32",
".Z c #dea632",
".N c #df9556",
"aO c #e09541",
"a0 c #e09721",
"a2 c #e2972a",
".O c #e29734",
"#t c #e2a616",
"aE c #e3a742",
"ap c #e69e3a",
".Y c #e6ae3e",
"#2 c #e79f33",
".X c #e8a242",
"bD c #eaa842",
"bd c #eaac2c",
"bH c #eab246",
"bJ c #eab25c",
"bq c #eea62a",
"bP c #eeb256",
"#f c #f1af30",
".9 c #f1b13d",
"aY c #f2a65a",
"#b c #f2a93d",
".1 c #f2b252",
"#. c #f2ba4a",
"#c c #f6ae46",
"#w c #f6b03a",
"#M c #f6be26",
"#a c #f8b25c",
"## c #f9ba54",
"bz c #faaa3e",
"aT c #fab646",
".6 c #fcaa5a",
".7 c #fcb551",
"#d c #fdb73d",
"#u c #fdc034",
"#h c #fdc151",
"#N c #feba4a",
"#v c #febe3a",
"a3 c #febe44",
"bO c #fec05e",
"br c #fec247",
"#e c #fec63b",
"bA c #fec652",
"a8 c #fec947",
"ad c #feca3c",
"aF c #fece36",
".8 c #fece58",
"Qt.#.a.b.c.d.e.f.f.g.h.i.j.k.l.m.n.e.o.p.q.r.s",
".t.u.o.v.w.x.y.z.x.A.B.C.k.D.E.F.G.H.I.I.x.J.K",
".r.L.M.y.N.O.P.P.Q.R.S.T.U.V.W.X.Y.Z.Q.0.1.2.n",
".3.4.5.N.6.7.8.9.8#.#####a#b#c#d#e#e#f#g#h.I.2",
"#i#j#k#l#m#n#n#g#o.I#p.W.6#q#r#s#t#u#v#w#b#x#y",
"#z.t#A#B#C#D#m.U#E#F#G#H#I#m#J#K#L#M#d#N#O#F#P",
"#Q#R#S#T#U#l#l#V#W#X#Y#Z#0.U#J#1#u#u#2.O#3#B#4",
"#5.u#6#7#8#9a.#Xa#aa#Y#labac#r#bad#fae.Waf#X#k",
".#ag.h.C#Tah#Xaiajak#Yaaalamanad#eaoapaq#Xaras",
"#zagat.h.C.Bau#Bav#Yaa#V#3#q#f#e#uawax#0ay#Taz",
".#.taA.g.CaBasaCai#Z#YaD.UaEaFaFaoaGaHaI#9#8aJ",
".taKataLaM.B.J#kavaN#9#HaO#had#MaP#KacaQ#9#8#A",
".t.taMaM.h#6aRaSaNazaDaf#OaTad#taUaVaWaX#C#8#A",
".L.#aA#S#6.a.baR.aarau#ZaY.7aoaZa0aO#ral#la1aJ",
"#zaAaL.i#7#A#6az.Jasar#EaXaG#ga2a3a3#2aVa4#XaC",
".#aga5#A#7a6.jaz.caz.Car#Z#H#pa7#ha8#v#ga9.d.D",
".uagaL#S.i.jas.C.C.j.j.Cb.#W#lb#.Oa3ad#ea7ba.f",
"#5ag#RaA.i.c#T.cazaJbba6aNb.#Balaxbcbd#vaebe.V",
"#i.t#RaAat.h.cauas.c#6#6bf#Yav#Zac#xa0#f#Nbgbh",
"#z#z#RaL#SaM.h.C.a.ha5a5bbbib.bjaQaWbk#g#NaU#G",
"#z#zag.sat.a.Basas#6a5#S#Aazajblbmaca2a0#N#q#G",
"#z#zagaA.h.qasasbi.a#6a5#Abbb.bnbnaWbo#g#va7be",
".uag.saA.cazbharaNaza5a6bbakajbnabbp#gbqbrbs#G",
"bt.tat.J.B#E#E#Baibfbubuakb.bnabbm#r#2#b#w.S.d",
".#aA.Bbv.N.N#yafa1avaNbuak#Y#laXaHboa2br#dbe.V",
".a.aataC#I.7#c#y#y#l#T#YblafaXamaH#2a2#wa7#paC",
"bwbxas.5a9#a#N#b#p.V#4a4#mbya4bobzbkbA#cbBaC.l",
".#bwat.o.FanaTa3.9bCa9aO.X#oap#2#g#NbDbgby.BbE",
"bFbG.#aB.p.z.Y#hbAbH.Z#..1.X#2#b#NbDa9ba.d.q.M",
"bIbIbG.t.s.pbBbJbJ.RbKbLbMbNbObPbQbB.p#jbK.sag",
"bRbSbSbS.saK.4.r.p.L.L.L.f.p.5bT.f.raK.uagbSbG",
"bRbUbSbGbVbWbG.sbU.K.4#i.K.s#j.g.#ag#5bGbIbGbX"};
