/* XPM */
static char *nix0004[]={
"23 32 246 2",
".# c #2a1202",
"bW c #2e1a16",
".q c #35100d",
".c c #361602",
".a c #371813",
".E c #391f12",
".e c #3e1202",
".b c #3e1a1c",
"bO c #3e1e02",
"bU c #3f221a",
".s c #401911",
".d c #402112",
"bV c #40322c",
".V c #462210",
".r c #462a22",
"bS c #462e16",
"Qt c #463216",
".f c #481805",
".o c #481a10",
".p c #49211d",
"bJ c #4d1e0d",
".F c #4d2612",
".D c #53251c",
"#q c #541202",
"#a c #551d12",
".u c #552308",
"#r c #561e07",
".H c #562210",
"bZ c #562e0a",
".t c #572a1d",
"#B c #582e1b",
"#b c #5a1602",
"#O c #5a2a0a",
"#5 c #5a3206",
".Y c #5c1e10",
".Z c #5d1e06",
".G c #5e291e",
".X c #5f2315",
"## c #5f2a13",
".g c #60230a",
".C c #60381b",
".W c #612e1d",
".h c #622302",
".n c #622e0e",
"#N c #623a32",
".v c #641d07",
"#p c #68220c",
"#X c #68270d",
"#M c #6a1e0a",
"#c c #6a261a",
"bX c #6a2e02",
".I c #6a2e1a",
".B c #6a3608",
"bD c #6e2606",
".w c #6e3202",
".U c #6e3a1e",
"#d c #70220c",
".0 c #711a07",
"a0 c #71270f",
"#o c #712718",
"#P c #712e16",
"bB c #723206",
"aK c #72362a",
"bA c #762a02",
"bP c #762e02",
".i c #763806",
"au c #763e22",
"ak c #764438",
"#s c #772e16",
"al c #782811",
"aR c #7a3e0e",
"aS c #7a4202",
".j c #7a4a02",
"#n c #7b3714",
"av c #7c1e04",
".K c #7c3216",
"#Y c #7e2910",
"aI c #7e2e15",
".T c #7e4616",
"#6 c #822c15",
"aZ c #82321a",
"aD c #823e2f",
"aJ c #82462a",
"a# c #843816",
"aj c #843b26",
".J c #843e18",
"bM c #853f06",
"bY c #864e12",
"#W c #87301b",
".L c #8a3814",
"bN c #8a461a",
"bz c #8a4e02",
"a2 c #8a5602",
"aQ c #8c4c2c",
"#4 c #8d412b",
"at c #8d4706",
"aY c #8e391c",
"ai c #8e421e",
"a1 c #8e4e18",
"be c #92321a",
".1 c #923716",
".m c #92562a",
"#3 c #944121",
"#A c #944628",
".M c #94481d",
"bH c #963a26",
"#D c #964216",
"#Z c #96460e",
"aw c #964906",
".x c #966a0e",
"ah c #974f05",
"ab c #975e02",
"#L c #984e2a",
"bs c #993e11",
"aa c #995216",
".N c #995615",
"aH c #9a4e12",
"am c #9c461b",
"aX c #9c4a1a",
"bm c #9e3a1a",
"#C c #9e4a26",
"an c #9e5a1e",
"#. c #9e6628",
"bC c #9f5217",
"#v c #a04c04",
"#K c #a05d07",
"#R c #a1560b",
"bE c #a24230",
"bK c #a2522e",
"bG c #a25626",
"a8 c #a27202",
"aV c #a55c14",
"a5 c #a65e1e",
"#w c #a66402",
"#u c #a84e1a",
"#t c #a94f23",
".2 c #a95513",
"aU c #aa5432",
"aA c #aa5a02",
"#E c #aa5c0c",
"bx c #aa6602",
"by c #aa7804",
"aN c #ab5b1a",
"#z c #ac671b",
"az c #ac7002",
"#Q c #ad5b26",
"a4 c #b0521e",
"#g c #b1670d",
".O c #b17113",
".A c #b2763e",
"aP c #b27806",
".k c #b28236",
"#S c #b47002",
".4 c #b67d21",
"bl c #b68202",
".y c #b68626",
"#V c #b76f23",
"#e c #b85e32",
"bd c #b97116",
".3 c #ba661e",
"a3 c #ba6e06",
"aq c #ba7e0a",
"bh c #bc7618",
"bi c #bc8618",
"bg c #be7e19",
".S c #be7f33",
".l c #be8246",
"aE c #be8407",
"#7 c #c08c0c",
"#f c #c26a2c",
"bc c #c2702e",
"aT c #c27c26",
"bw c #c28a3a",
"bn c #c28e1e",
"ar c #c48614",
"b. c #c67616",
"a7 c #c68032",
"ae c #c6960a",
"bf c #c69e02",
"bb c #ca7834",
"aM c #ca8628",
"ao c #ca9129",
".Q c #cca216",
"aB c #ce860e",
"aL c #ce9212",
"bF c #cea226",
"aF c #d29121",
"bj c #d2a20a",
"b# c #d2a226",
"#J c #d3a51a",
"#h c #d4992b",
"bT c #d69a52",
"aW c #d69e1e",
".P c #daaa26",
"ba c #daae12",
".R c #dca032",
"ag c #dca624",
"#F c #dda026",
".z c #dea252",
"#2 c #debe12",
"bu c #e29a46",
"a. c #e2be1e",
"aG c #e69e2e",
"as c #e6aa22",
"ay c #e8ab32",
"a9 c #e9c626",
"bQ c #eaae4a",
".9 c #ebb23b",
"#m c #ecb834",
"bp c #eebe2a",
"ac c #eebe38",
"#j c #eee224",
"af c #f0c52b",
"bk c #f1cb21",
".5 c #f2c448",
"br c #f2d222",
"bq c #f2d822",
"ax c #f4ba42",
"#y c #f6ee22",
"ad c #f9d12f",
"aC c #faba2e",
"bR c #fac262",
"#0 c #fac638",
"bv c #fcc648",
"#T c #fdd23c",
"#1 c #fdd833",
"bo c #fde428",
"aO c #feca38",
"a6 c #feca4e",
".8 c #fece3d",
"bI c #fed14c",
"#8 c #fed649",
"bt c #fed93e",
"#i c #feda49",
"ap c #feda56",
"#9 c #fede36",
"#G c #fede3c",
"#H c #fee23f",
"#U c #fee535",
"#l c #fee640",
"bL c #fee662",
"#I c #feeb36",
".7 c #feec41",
".6 c #feec4c",
"#k c #fef232",
"#x c #fefe3a",
"Qt.#.a.b.c.c.d.e.f.g.h.i.j.k.l.m.n.o.p.p.q.a.a",
".r.c.s.q.a.t.f.u.v.v.w.j.x.y.z.A.B.C.D.p.p.a.E",
".F.o.e.G.H.I.J.K.L.M.N.O.P.Q.R.S.T.U.t.D.o.q.V",
".W.D.H.X.Y.Z.0.1.2.3.4.5.6.7.8.9#.##.I.G.o.e.H",
".D.D#a#b#c#d.L#e#f#g#h#i#j#k#l#m.S#n#o#p#a#q.u",
".D.H#r###s#s#t#u#v#w.5.6#x#y.7.Q#z#A#s.Y.Y.f.g",
"#B#B.g.v.L#C#D#u#E#F#G#H#x#j#I#J#K#L.K#M.v#b.g",
"#N#O#q#P.L#C#Q#R#S#T#G#I.7#y#U.Q#V#A#W#o#b#X#X",
".C.u#p.K#Y#Z#R#w#0#T#1#2.7#I#l.P#z.M#3#4.v#b#X",
"#5#O#p#6#6#v.N#7#8#9#2a.#H#G#H#m#K#A#4a#.v.Z#X",
".C###p#W#Daaabacad#Hae#7af#H#8agahai#4aj#c.v.g",
"ak.Ial.1amanaoap#i#Jaqaras#T#8#hat#A#Aaj#c.Z.Z",
"aualav.1#uawaqaxayazaA#gaBaC.8aB#Z#Z#3.K#p.v.v",
"aDaj#Yam.2ahaEayaF.3#v#faGaCaCaFaHam#4aI#d.v.h",
"aJaK.Jah#KaL#8.9aM.3aN#g#hapaOaP#Ram#3aI#d.v#p",
"aQaRaSab#m#T#8ayaTaNaUaVaW#i#maEaVaXaYaZ.0#pa0",
"#Aa1a2.Q#1#l.9a3a4#va4a5aFa6.Pasa7#Q#3al#Y.0al",
"#L.Na8a9#9#9#Fb..3#t#QaV#h.8#0#0a7a5#A.1#Y.0#W",
"aH#Kb##1#GbaaEa3bbbcbbbd.Rax#TaOaEaVaaam#6avbe",
"#z.O.8#U#Hbfaq#SbgbhaTbibjba.8bkblaz#gawbeavbm",
".4bn#1bo#jbka9afafafbpadbqbr#Ubobk#m.9bgbcbsa4",
".Oao#1#I#9#U#l#G#9#9bt#Hbqbqbo#I#U#G#8aGbu.2#f",
".N.O#m#8btbt#8bv#0.8.8aObk#Ubo#9adaO.5bwa7#ZaN",
"#Latahaq#wbg#gbxaAbxazbybj.7#9a9bybybgbzatbA#A",
"bB#na#aabCaXa4bs#t#eaV#KaW#8#Hbf.x#zanbB#sbD#n",
"#P#PbDaZaUbE.1bEbE.1.1#Ray#8apbF#zbGa#bD#X.X#P",
".G.u.gbAai#DaYbH#Wbe#3#R.RbI#8bFaaaYala0#p#p.I",
"#BbJ.u.Z.v.JbK#AbHaZbAataFbLbIbibMal#d#d.Y#a.n",
".F.F#r.h#p#P.J#4#4#4a##D.Oax.9.4bN#o##.Y.Y#a.W",
"bO.VbJ.D#X#r#r.X.H#c#sbP#zbQbRbwaJ.G.GbJ.D.p#B",
"bS.E.E.o.q.e.E.s.s.taK#Xa1.AbT#.#5.V.FbU.r.E.d",
"bVbWbU.d.q.b.q.b.r#NakaubX.BbY.BbZbObObU.EbU.a"};
