/* XPM */
static char *nix0005[]={
"23 32 247 2",
".l c #3e1812",
".k c #421a16",
"bV c #431f19",
".N c #460a02",
".j c #461e0a",
"bU c #462a1e",
".B c #4a1a08",
"bW c #4a2226",
"#M c #4b1f15",
"bP c #4d2926",
"#k c #4e1202",
"#X c #4e160a",
"bX c #4e2208",
"b0 c #523202",
"#Y c #54200c",
".n c #542711",
".# c #552d03",
"aq c #561208",
"bQ c #562606",
".5 c #571806",
".A c #572922",
"Qt c #572f21",
"#A c #5a1713",
"bL c #5a3232",
"bI c #5e2e0e",
".C c #5e2e26",
".6 c #601e09",
"bE c #623413",
".m c #62362e",
"bz c #623702",
"ae c #63221a",
"bK c #642602",
"bJ c #66360a",
".M c #682a08",
"#l c #6a301c",
".a c #6a4602",
"bH c #6e2e08",
".E c #6e381c",
"aY c #723202",
".D c #723e36",
"#z c #73290a",
"aP c #733713",
"bR c #734107",
"#N c #743906",
".O c #743c27",
".i c #744e0c",
"#W c #762e22",
"aL c #76321e",
"ag c #763e1e",
".P c #764612",
"aA c #7a4a06",
"#6 c #7c3224",
"an c #7d3702",
"#C c #7d4007",
"bt c #7e290b",
"#3 c #7e3617",
"#m c #7e362a",
"#B c #7e3a1e",
"af c #7e3e2a",
"a3 c #7e420e",
"#U c #7f3114",
"#7 c #7f411c",
"bA c #844e06",
"bs c #862e16",
"#K c #863e1e",
"#n c #864a16",
"bZ c #865a10",
"aX c #874703",
".7 c #874927",
"#4 c #88320c",
"#j c #88391b",
"#v c #883c09",
"br c #8a2c11",
"aO c #8a5222",
"be c #8b2c04",
"ao c #8b420d",
"bY c #8b591e",
".g c #8b6c02",
"az c #8d4220",
"#L c #8d4230",
"#T c #8e3a16",
"#V c #8e3e22",
"bn c #913119",
".b c #916303",
"bh c #922e06",
".4 c #924e02",
"aK c #925226",
"bo c #94360c",
"a8 c #943f0b",
"bx c #944612",
"aa c #944d0c",
"bv c #95361a",
"ba c #953c26",
"#2 c #95421e",
"aJ c #954f17",
"a0 c #955607",
"a# c #955b02",
"bg c #962e04",
"#q c #964602",
"#5 c #964822",
".c c #967602",
".f c #968202",
".d c #987c02",
"ap c #9a462a",
".L c #9a5e1a",
"#r c #9b4615",
"#R c #9c3920",
"bi c #9c3f27",
"#Q c #9c4d08",
"#c c #9d5209",
"bp c #9e360e",
"bf c #9e3a0a",
"#H c #9e411a",
"bu c #9e5602",
"#b c #9e5c02",
"aI c #9e5e0e",
".F c #9e721e",
"aZ c #9f572a",
"#y c #a04e25",
"ah c #a26e02",
"aB c #a2761e",
".e c #a28a02",
"aW c #a46608",
"bj c #a54627",
"#I c #a64122",
"bb c #a64a26",
"b# c #a65002",
"#G c #a6560a",
"#u c #a6560e",
"a7 c #a65a02",
"ay c #a66202",
"#o c #a67810",
"ad c #a7561a",
"ak c #a75d09",
"#1 c #a76a06",
"aM c #a77010",
"#w c #a85028",
"#i c #a85a1c",
"#e c #a86212",
"aQ c #a87022",
"ac c #a94d1a",
"bc c #aa5e14",
".Q c #ab791a",
"bk c #ac5e28",
"aj c #ae6602",
"bO c #ae6e46",
"#O c #ae7e15",
".o c #ae8a32",
"#a c #af6f05",
"b. c #b05e0d",
"#S c #b1572a",
"ab c #b24e2e",
"bd c #b2601e",
"al c #b26618",
"a4 c #b26a1c",
"#8 c #b27a02",
".8 c #b2821a",
"#J c #b6562a",
"at c #b68402",
"ai c #b77615",
"#f c #ba7113",
"am c #ba762a",
"#D c #ba8616",
"#P c #bb8014",
"bq c #bc5e30",
"#h c #be7020",
"bN c #be8a2a",
"#x c #c06a22",
".h c #c09612",
"by c #c28e26",
".3 c #c58025",
"bl c #c68616",
"bS c #c69a2e",
".z c #c69e4a",
"#g c #ca862e",
"#s c #cc7242",
"#F c #cd931e",
"a2 c #ce8e20",
"bT c #cea63e",
".u c #ceae2a",
"a5 c #d0842a",
"## c #d29a10",
"bB c #d39521",
"aT c #d4a422",
"#t c #d68246",
"#d c #d68e3a",
"#p c #d69e2a",
"aD c #d6a905",
"aN c #d79935",
".X c #daa22a",
".v c #dcb430",
"a6 c #de9236",
"aH c #deae40",
"ax c #e0a83c",
"#. c #e2b616",
".2 c #e39b33",
"a1 c #e3a92d",
"aS c #e6b622",
"aR c #eab129",
".q c #eace46",
".W c #ebb136",
"as c #ebbe1d",
"au c #eea63a",
"aV c #eeb636",
".U c #eec62a",
"bD c #f0bf4c",
"#E c #f0c026",
".Y c #f1bc39",
"#0 c #f2ca2a",
".y c #f2ca5e",
".9 c #f2ce12",
".t c #f2d446",
".V c #f5c642",
"aw c #f6b646",
"bm c #f6ba42",
".K c #f6be5e",
"aU c #f6c222",
"bF c #f6c239",
"bG c #f6ca30",
"a. c #f7c62f",
"aE c #fac61e",
".Z c #fcc641",
"bw c #fcc64e",
"bM c #fcd65e",
".r c #fcdc4e",
"av c #fdc04c",
".0 c #fdc13b",
".T c #fdcd31",
"a9 c #fdcd40",
".J c #fdcd5b",
"#Z c #fdd341",
".w c #fdda43",
".s c #fdde45",
".1 c #fec242",
"aG c #fecc3a",
"ar c #fecd4c",
".I c #fed438",
"#9 c #fed44a",
"bC c #fed450",
"aF c #fed62e",
".S c #fedc2b",
".p c #fedc5c",
".H c #fee233",
".x c #fee254",
".G c #fee33e",
"aC c #fee349",
".R c #feea2d",
"QtQt.#.a.b.c.c.d.e.f.d.g.d.h.d.g.g.g.i.#.j.k.l",
".m.n.i.o.p.q.r.r.s.t.q.u.v.w.w.x.p.y.z.a.A.B.C",
".D.E.F.t.w.G.H.G.G.G.x.t.x.G.w.I.w.J.K.L.M.N.O",
".D.P.Q.w.R.R.S.T.U.V.W.X.Y.Z.T.0.1.2.3.4.5.6.7",
".O.E.8.s.R.9#.###a#b#c.3#d#e#b#f#g#h#i#j#k.5#l",
"#m#n#o.I.R.S#p#a#q#r#r#s#t#u#v#v#w#x#y#z#A.5.5",
"#B#C#D.w.S#E#F#G#r#H#I#J#s#y#K#B#v#y#L.6.5.6#M",
"#L#N#O.G.H#.#P#Q#H#I#R#R#S#H#T#U#j#V#V#W#X#X#Y",
"#L#C#O#Z.S#0#1#c#w#J#I#R#J#w#2#3#4#5#V#6.6#X#Y",
"#m#7#8#9.Ha.a#aa#iabac#Sadad#K#5#U#2#L#m.6.Nae",
"afag.Q.p.G#0ah#1aiaj#Qakalam.4anaoap#j#6aeaq#A",
"af#7.Qar.sasat##au.W.1avawax#Pay#Qaz#5#6aq#A#A",
"#7aAaBaraCaDat#E.TaE.I.TaFaG.YaH#paIaJaK#z#kaL",
".7#NaM.p.TaDaD.S.SaFaFaF.s.I.s#Z.1aNaMaO#C.5.7",
"#KaPaQ.KaR.T.wa.#EaSaTaTaR.Y#Z#9aU.waVaWaXaYaZ",
"afaPa0aN.1arara1#8#1a0aWai#1a2aRaF.T#Za1a#a3aa",
"agaP#Ca4a5a6#fa7aXa8#v#y#i#c#i#f.W.T.Ta9#P#N#e",
"ag.Man#Hb.b.b##r#Hbababa#H#Tbbbca2.0aFaFa1aobd",
"aP#z#3bebfbgbhbf#rbibibi#Rbj#SbkaWblaGaGbma7ad",
"#z#zbnbobpbhbebhbobnbgbnbn#Rbj#Had#bbma9.1aybq",
"#j#Ubrbhbhbgbebnbobsbtbrbrbp#w#waaajaR#Z.Zbu#x",
"#W#za8ac#J#J#Jbb#wbibnbnbnbabjapaa.3bm#Zaraj#h",
"#3#U#Q#h#G#G#q#v#jbsbtbrbnbvbi#Vaa#8.ZaE.ZaWak",
"afaO#Pbwa2.3aJao#UaLbtbnba#Lapbx.4#P#Z.Ibm.4a4",
"a3.LaxaG.0a1ayaXao#K#zbnbiba#y#v#a.Y.V#9byaXbd",
"bz.PaxaraF.Ya1bAaoan#U#2#wa8#iaIbBaGbCbDa#an#i",
"bEbz.bbFbG.w.I#Fa0a##Q#G#ib.aia1.0arbwaM#CbHbk",
".AbIbJ.F.VbG.waC.WbB.2a6auauaG.1bC.JbybAaYbKaZ",
"bL.A#YaA.Q.YaGasarbwavbmavbMararbDbNbA#N#Y.5bO",
"bPQtbQ.#bR.FbSbDaH#bbuaIbBav.JbT.FbAaAbEbJ.5#7",
"bUbVbWQtbQbXbzbYbY#N#N#naB.obZ.a.#bEbX.jbW.A.B",
"bUbUbW.A.B#Y#M#YbIagaObRbRbz.#b0.#bX.lbV#MbP.n"};
