/* XPM */
static char *nix0006[]={
"23 32 245 2",
".t c #2a0e0a",
".# c #2a1810",
".r c #2e1206",
"Qt c #2e2216",
".b c #321208",
".q c #321a0a",
".s c #36261e",
".a c #362a22",
".C c #3b1a10",
"#o c #3c0e06",
".W c #3c150e",
".V c #3e1202",
".p c #3e2018",
".m c #421a18",
".n c #422012",
".c c #44180d",
".o c #46221e",
"#n c #471105",
".e c #4a0a02",
"bW c #4a1e0f",
".D c #4a2a26",
"#b c #4a3622",
"#X c #4c2409",
".U c #4d2316",
".B c #4e2520",
"bS c #501808",
".d c #521102",
".l c #522508",
"#p c #542e26",
"#a c #55382c",
"## c #582218",
"bY c #582c02",
"#q c #591906",
".f c #592007",
".X c #5a1202",
"bR c #5a2a12",
"bU c #5e3202",
"#W c #613922",
".Y c #621a0e",
".E c #622920",
"#6 c #622e24",
"ac c #623222",
"bQ c #623e12",
".u c #63210f",
".T c #63362f",
"#. c #652716",
".A c #663602",
"bV c #66360e",
"bz c #663e0a",
"aK c #672903",
".g c #693002",
"#c c #6a1602",
".S c #6a3a32",
"bB c #6a4208",
"#l c #6d301c",
"ai c #6e322a",
"bP c #6e4616",
"#C c #722a02",
".F c #72361e",
"bE c #723e0a",
"aD c #744404",
"ay c #763e22",
".R c #763e2e",
"bw c #764e02",
"bL c #765208",
"bj c #7a4202",
".Q c #7a4222",
"bO c #7a4c08",
"bT c #7a4e36",
".0 c #7c2308",
"#M c #7c2c08",
"#m c #7c3426",
".v c #7c3b04",
".Z c #7e261a",
"#D c #7e320e",
"#B c #7f3319",
".G c #803b29",
"bd c #824602",
"at c #854d05",
".h c #865202",
".k c #86560e",
"bM c #876007",
"a9 c #8a461e",
"aS c #8a4c26",
"bX c #8a5a06",
"aT c #8a6802",
"#A c #8b3604",
"a6 c #8c2d07",
"bs c #8c3c06",
".1 c #8d3f23",
"ah c #8d4a02",
"as c #8e3e1a",
".P c #8e5216",
".w c #8e5602",
"a0 c #8e7602",
"bu c #8f340f",
"bm c #8f351a",
"bk c #905624",
"#Y c #924206",
"aN c #924a03",
"#k c #924e1a",
"aC c #925102",
"aL c #925636",
".H c #954932",
"aR c #95620b",
"#d c #96350e",
"be c #965c25",
"bC c #967014",
"#L c #973c04",
"bg c #973c16",
"#E c #97421a",
".9 c #98581e",
"az c #986908",
".I c #99560a",
"aj c #995a02",
"ab c #9a4904",
"bh c #9a4912",
"aw c #9a521a",
".2 c #9d500a",
"br c #9e461a",
"bt c #9e662e",
"ar c #9f4b1a",
"aM c #9f5d06",
"ax c #a05e4a",
"#e c #a15122",
"a7 c #a24226",
"aq c #a26702",
"a5 c #a34115",
"#5 c #a34f35",
"a8 c #a64928",
"aY c #a64a06",
".j c #a67c1a",
"#N c #a75212",
"ba c #a84a1b",
"#F c #a95905",
"#9 c #a96e0a",
"#f c #aa6616",
"bF c #aa724a",
"b. c #aa8e06",
"aO c #ab600c",
"#z c #ab6803",
"bb c #ac4d2c",
".i c #ad7605",
"aX c #ae561a",
"#s c #ae621e",
".J c #ae7119",
"#1 c #ae7a02",
"bJ c #ae841a",
"bx c #ae8a1e",
"#r c #b1522c",
"a4 c #b2560a",
"aU c #b2921e",
"aa c #b65a20",
".3 c #b67406",
"aE c #b68602",
"#K c #b76709",
"#O c #b77b06",
"bi c #ba8a02",
"#4 c #bc621c",
"aG c #bd8e22",
"a3 c #be6e02",
"bo c #be6e1a",
"by c #be7e0e",
"#V c #c06a10",
".K c #c1850e",
"#t c #c1851a",
"bK c #c29272",
"bf c #c4aa16",
"bq c #c67e1e",
"#g c #c68b0f",
"bp c #c6960e",
"ag c #c69e02",
"aW c #c77f0b",
".z c #ca9a46",
"a. c #cb8611",
"bn c #ccb01e",
"#G c #cd9b13",
"aP c #ce8d0e",
"#7 c #ce940d",
".8 c #ce9c22",
".x c #cf962a",
"#8 c #d2aa06",
"bl c #d2ba22",
"#2 c #d39020",
"#S c #d6aa0a",
"av c #da962a",
"aH c #da9a1e",
"bD c #da9e2a",
"bA c #dab739",
"#T c #dba018",
"a1 c #dec03a",
"bc c #e2aa36",
"#u c #e2b61e",
"ak c #e3af2b",
".4 c #e3b018",
".O c #e5b13a",
"#Z c #e6a816",
"ad c #e6b626",
"bI c #e6b642",
"aA c #e6c236",
"a# c #ea963e",
"#y c #eaba3a",
"aF c #edbc1f",
"aZ c #edc043",
"#U c #ee9e36",
"aI c #eeb021",
".y c #eec052",
"ap c #efbe32",
"#0 c #efc61d",
"bN c #f6c642",
"bG c #f6d242",
"af c #f6d612",
"#P c #f7c531",
"#3 c #fa9e4e",
".L c #faca3a",
"bv c #facb2f",
"aB c #face23",
"#x c #fad21e",
"b# c #fcde4a",
"ao c #fdcd46",
"#h c #fdd235",
".7 c #fdd54d",
"#J c #feba3e",
"an c #fecc36",
"am c #fed72e",
"#I c #fed826",
".M c #fed844",
"#H c #fed935",
"aQ c #fed93e",
"#i c #feda1a",
".N c #feda4f",
"#Q c #fede31",
"aJ c #fedf3a",
"aV c #fee042",
"#j c #fee126",
"au c #fee216",
".5 c #fee233",
"bH c #fee54d",
"#v c #fee635",
"a2 c #fee644",
"#w c #fee726",
"ae c #fee91a",
".6 c #feec35",
"al c #feee1a",
"#R c #feee41",
"Qt.#.a.#.b.c.d.e.f.g.h.i.j.k.l.l.m.n.o.p.q.r.q",
".sQt.t.b.c.u.u.u.v.w.x.y.y.z.A.l.B.o.B.C.C.q.n",
".o.D.c.E.F.G.H.I.J.K.L.M.N.O.P.Q.R.S.T.U.V.W.o",
".C.m.X.Y.Z.0.1.2.3.4.5.6.7.8.9.1#.#..E##.c.W#a",
"#b.W.d#c.0#d#e#f#g#h#i#j.4.i#k.1#l#m.E.E#n#o#p",
"#a.c#q.Z#d#r#s#t#u#v#w#x#y#z#A.0#B#m#C##.c#n.T",
"#b.n.f#D#E#r#F#G#H.6#I.4#J#K#L#M#M.G#l#q#n.V.T",
"#a.l.l#C#N#F#O#P#Q#R#S#T#U#V#L#A#A.H.G#..V.V#W",
"#W#X#l#Y#N#z#Z#Q#R#0#1#2#3#4#L#A#5.H#m#m.f#o.T",
"#6.u#l#k#K#7#x#j#j#8#9a.a#aaab#Y.1#5.H.G.d#nac",
".E#l#B.I#tad#waeafag.i#7#2#z.wah#e#5.1#M.Y#q.E",
"ai#l.vajak#waealaf#xamanaoap#Gaq#Faras#D.d.d.F",
".S#lat#g.L#waeaeauau#Q#i.5#v#Q#Pav#Fawaw.u.dax",
"ayayazaA#Haualau#w#x#0aB#Q#Q#i.5an#2#zaC.v.Xax",
"aDaDaE.7#v.6#IaF.4#TaG#gaHaI#h#H#HaJaIazataKaL",
"aDazaA#Q#I#I#7#T.iaMaNaOaO#KaPaI.5aQam#GaRaKaS",
"aTaUaV#H#h#ZaW#Nab.2#A#NaXaY#KaWaIaQaQaZ#9aKaS",
"a0a1a2.5aIa3#Va4aYa5a6a7a8a8a4#Va.an#QaJ#t.va9",
"b.b#aQana.#YaYaYbabba8#ra8a8#r#saO#G.5.5bcbdbe",
"bfa2a2anaWaba6a6a5bga6bgbga8bbbhaMbi.5amaZbjbk",
"blaV.5.4.3aba5baa5#da6a6bmbabb#eaCaE#I#v.LaCbe",
"bna2.5aFa.boaabba8babg#Ebga8bb#eajbp.5a2.Latbe",
"bfa2#I#0#Obq#Nbga6#d.0#d#Ebra5bsaCbp#Q#h.OaDbt",
"b..N.5#h.3#2abbua6a6.0#LarbrbhbsajaIaV.7.8.v.9",
"aT#y.5.5aI#gaO#Lbmbma6#Ebhbhahahbpbvb#ao#9.gbe",
"bwbxaQ#H.5#T.KaCbsbm.Gaw.2ataOby#P.N.N.xat#D.P",
"bzbwbAaJ.5bvap.Kahah.2.JaOaq#7.LaQb#.yaRaKaKbk",
".BbBbCbfaQ#R#H.M.ObD.xbDakap.7.N.N#y.ibE.gaKbF",
".T#WbzaTbAbG.MaQ#h.7.N.7.7b#bH.7bIbJbB.l.laKbK",
".B#X#WbLbM.jbIbGbG.LbNao.N.7a1.zbCbObPbQbRbSbT",
".D.B.n#X.nbUaDaRazazaz.ibJ.jbM.AbV#X#XbW.UbW.B",
".B.W.D.B.U#X.lbUaD.kazbX.k.AbY#X#X.c.n.C.U.U.m"};
