/* XPM */
static char *nix0007[]={
"23 32 242 2",
"bK c #2d140a",
"bP c #321608",
"bQ c #360e0a",
"bS c #361b13",
"bL c #39161a",
"bF c #391b0d",
"bE c #3b1d16",
"bA c #3c1507",
"bv c #3c1612",
"bJ c #3e2a16",
"bT c #3e2c26",
"bB c #42120e",
"bH c #421e0e",
"bD c #42260e",
"bq c #45190f",
"bz c #461803",
"bO c #48261c",
"bu c #492016",
"bp c #4a1a12",
"bt c #4a1e02",
"bV c #4e0e12",
"a5 c #511f0f",
"aB c #52211b",
"aj c #522616",
"aK c #522e22",
"aL c #541903",
"ai c #542a16",
"a6 c #551a0f",
"aY c #56280d",
"bI c #563226",
"aC c #581e0d",
"as c #58220d",
"at c #591f04",
"#0 c #592e15",
"#1 c #5a1a05",
"ab c #5a2919",
".# c #5a2e06",
"#Q c #5e2607",
".q c #5e2a12",
"a4 c #5e2a1c",
".p c #5e3202",
"#D c #601e03",
"#C c #602212",
"bo c #60331b",
"aq c #622204",
"a3 c #62260e",
"bR c #622e06",
"aX c #642e15",
"bU c #662222",
"bh c #672d1e",
"#j c #682913",
"#P c #683326",
"#2 c #692603",
"aJ c #69260a",
"be c #6a160a",
"bd c #6a1e0c",
"#B c #6a2e2a",
"bi c #6a321a",
".r c #6c3c1e",
"bN c #6e3614",
".h c #6e3a0a",
"bM c #6e3e02",
"#k c #6f2e16",
"aM c #702a16",
"#R c #712613",
"ak c #71290a",
"a9 c #72220c",
"ac c #722a02",
"#l c #722e08",
"ar c #723220",
".o c #724e02",
"bf c #762212",
"a2 c #763017",
"aA c #763606",
"bw c #763622",
"Qt c #764632",
"aD c #792a0f",
"#Y c #7b3b11",
"#E c #7c3614",
"bC c #7c3b27",
"aS c #7d2f11",
"#. c #7d4923",
"#U c #7e2a0c",
"bn c #7e311e",
"#m c #7e3605",
"ah c #7e3b1e",
"aa c #7e422e",
".a c #7e5009",
"b. c #7f2a1a",
"#6 c #822609",
"bs c #82362e",
"ap c #824206",
"#O c #824a02",
".s c #824e20",
".G c #82561a",
"#5 c #832a0b",
"aT c #833b0f",
"#I c #842e10",
"ad c #852a12",
"au c #863216",
"aE c #86321a",
"#z c #864a02",
"aR c #864a16",
"## c #874f05",
"#Z c #883a28",
".b c #886004",
"#T c #8a3214",
"aZ c #8a331e",
"aN c #8a3c02",
"bc c #8a420e",
"bj c #8a4228",
"a# c #8a5602",
".n c #8a6a0a",
"b# c #8b3626",
"ae c #8c2e12",
"aF c #8d3a18",
"#H c #8e3a0a",
"bl c #8e3c26",
"bk c #8e520a",
".e c #8e6e02",
".m c #8e7602",
"#s c #8f3612",
"a8 c #8f4916",
"#7 c #903213",
"br c #923e2a",
"av c #924015",
"#r c #924802",
".l c #927d02",
"#4 c #943a16",
"#i c #955217",
"#3 c #964623",
"#A c #964816",
".z c #965e06",
".W c #965e1e",
".g c #966a16",
"#V c #973513",
".i c #986406",
"#F c #994219",
"aI c #9a5606",
".c c #9a7202",
"bm c #9c5612",
"#t c #9d5006",
"by c #9e4e16",
".d c #9e7a02",
".f c #9e7a16",
".X c #9f6f25",
"#W c #a2421c",
"aw c #a25a1a",
"aU c #a26117",
"#M c #a26602",
".H c #a2762a",
"ba c #a3561d",
".8 c #a36d05",
"af c #a64a1e",
"#d c #a66202",
"aG c #a86012",
"#S c #aa5632",
"#p c #aa6216",
"az c #aa6a0e",
".9 c #aa6a22",
"aQ c #aa7220",
".k c #aa8e1a",
"#a c #ab7008",
"#n c #ac6610",
"a1 c #ae760e",
".V c #ae820e",
"#G c #b05c24",
"#q c #b27216",
"#8 c #b6562e",
"#g c #b6840a",
".A c #b68620",
"#L c #b7691d",
"bb c #b87614",
"ao c #ba8319",
".j c #ba962e",
"#o c #bc7c18",
"#J c #bd6033",
"aW c #be820c",
"#w c #c07624",
"al c #c27a2a",
"#x c #c2940a",
"#y c #c68a1e",
".F c #c69c40",
"#b c #cc901a",
"ay c #cd9815",
"#u c #ce7a2e",
"ax c #ce8e32",
"#c c #d19822",
".O c #d2a220",
"bg c #d2aa1e",
"#h c #d2ae12",
"aH c #d6a034",
"#e c #d8922a",
"#K c #da7e4e",
"bx c #daaa32",
".P c #dcb02c",
"aP c #dea622",
".Y c #deae46",
"a0 c #e2b226",
".y c #e2b64e",
".N c #e3b731",
"a7 c #e7af35",
"an c #ecc232",
".M c #eebd35",
"bG c #eebe56",
".v c #eeca46",
".t c #efc552",
"#9 c #f0ca37",
"am c #f2b63e",
".L c #f2d23a",
".D c #f2de4a",
"aV c #f6c62e",
".w c #f7d55d",
"#v c #faa65a",
".Z c #fbcd36",
".Q c #fcd44f",
".E c #fce650",
".1 c #fdcd41",
".3 c #fdda38",
".4 c #fde027",
"#f c #febe5a",
".2 c #fec642",
".u c #fece4a",
"aO c #fed236",
".0 c #fed440",
".K c #fed631",
".x c #fedc6c",
".T c #fede32",
"ag c #fede3c",
".J c #fede45",
".I c #fede56",
".R c #fee233",
"#N c #fee23d",
".C c #fee242",
"a. c #fee633",
".U c #fee63e",
".B c #fee65d",
".S c #feea34",
".6 c #feee26",
".7 c #feee39",
"#X c #feee4e",
".5 c #fef22e",
"Qt.#.a.b.c.d.e.f.b.g.a.h.i.j.k.l.l.l.m.n.o.p.q",
".r.s.j.t.u.v.w.w.x.y.z.a.A.t.B.C.D.E.B.w.F.aQt",
".G.H.w.I.J.K.K.E.L.M.N.O.P.Q.L.J.R.S.T.U.J.V.W",
".s.X.Y.M.Z.Z.J.0.J.0.1.2.Q.u.0.3.4.5.6.7.Z.8.9",
"#..h##.i#a#b.N#b#c#a#d#e#f#e#b#g#h.S.4.4.Z.8#i",
"#j#k#l#m#n#o#p#q#r#s#t#u#v#w#d.8#x.4.S.3#y#z#A",
"#B#C#D#E#A#F#G#H#I#F#F#J#K#G#L#M.V#N.7.R#g#O#E",
"#P#Q#D#R#S#F#T#U#s#V#V#W#J#J#G#q.N#X.T.v.i#Y#Z",
"#0#Q#1#2#3#4#5#6#H#V#7#V#8#G#p#y#9a..U.Na##Yaa",
"ab#Q#Dac#F#sad#I#7#7ae#Vaf#G#L#c.Ka.ag.O#O#2ah",
"aiaj#Dak#s#5#6#7#4#Vae#V#W#Galam.T.Ranaoapaqar",
"ajasatakau#6#5#s#I#I#5auavawax.u.R.TayazaAaq#R",
"aiaBaCaDaEad#5#7#s#I#saF#AaGaH.Q#N.Z#oaI#RaqaJ",
"aKajaLaMauaead#IaE#IaEaN#iaz.P.KaOaPaQaR#k#DaJ",
"aiaj#1ak#Iaeadad#U#UaSaTaU#c.K.RaVaWaUahar#CaX",
"aiaYatak#5#Tae#5#IaZaDaN#da0a..R.1a1#ia2a3#Ca4",
"aja5aq#RaD#U#U#U#U#U#H#r#o.Za..R.u#q#i#kaMa6#B",
".qaC#Q#laDau#IaEaZae#T#tay.Ka..Ca7aGa8ac#jaC#P",
"abas#CaJ#Ra9a9b.b##3babb.M.3.S.J#o#tbca2#jaC#P",
"ab.qaX#j#Rbdbebfb##3#taWaO.R#NbgaIaN#Ea2#CaC#P",
"aXbhbibhaMa9bfb#bja8bkay.K.4.3#g#tbc#EaDaCaC#P",
"#0abaX#j#2#RaSbl#3#i.8#9.R.UaVa1ba#F#ZaMaCas#P",
"aiaB.q#Qaq#2#RaEbj###g.3.R.T#cbmaFaSbnaqaC#Qbo",
"abajab#Q#Da9#RaDaTbk.P.3.T.Z#o#A#Zb.bn#1aLa5ab",
"a5aBa5aba3#2aSbn#Y.ian.U.Ta7#n#3b##Zbn#1aLasbo",
"aBbpbqbh.raMaM#l#Y.A.Ja..Kaybabr#ZbsaJaLaLbtbo",
"bububvas#Parbw#Y##bx.Ta..3.Vbyahbn#B#1aLbzbAai",
"bububqbBa6bhbCaRaQ.t#N#N.0#aaRbsbha3bzbBbzbAaK",
"bDbEbvbFa5aB#P#.aQbG.Q.1bx#MaRbiabaBbqbFbtbHbI",
"bJbKbLbHbqbzbq#0.G.X.8.iapbMbNaXbuajbHbAbEbFbO",
"bJbKbPbLbQbAbBbAaYbRaAaa#EbhaBbqbHbSbFbKbFbSbL",
"bTbKbEbEbQbLbvbQa5.rbjbCbUbVbzbAbPbKbFbPbEbEbP"};
