/* XPM */
static char *nix0008[]={
"23 32 246 2",
"bY c #36221a",
".d c #3a0e02",
".p c #3b1507",
".C c #3e1c10",
".n c #421b15",
"bX c #42322e",
"bU c #44261c",
".r c #461602",
"Qt c #46220e",
".l c #4a1b0d",
".a c #4a1c18",
"bW c #4c1d05",
".o c #4d2515",
"bV c #4e2202",
".q c #512a1f",
".7 c #521e16",
".f c #542305",
".R c #562a18",
".# c #56322a",
".b c #572415",
"ay c #581c03",
"bT c #5a2206",
".Q c #5b2e07",
".h c #5e2806",
"bZ c #5e3202",
".m c #5f2c26",
".e c #602e16",
".c c #603322",
"#O c #612715",
".B c #623a22",
"#z c #662605",
".g c #663307",
"#B c #663a22",
"#A c #682a22",
".j c #692205",
"#9 c #692b08",
".D c #692b16",
".t c #6a3e06",
".x c #6c3305",
".k c #6e2909",
".9 c #6e3317",
".w c #6e3a09",
"bM c #6e3a18",
"#k c #6f3b26",
"a7 c #721e04",
".S c #722a02",
".i c #723505",
"#j c #723e02",
".E c #732b10",
"aO c #76260a",
"a. c #763216",
".s c #76400e",
".8 c #76402c",
".u c #76460e",
"#C c #7a381e",
".y c #7b3904",
".N c #7b3e02",
".F c #7d3f12",
"aI c #7e2c02",
"bv c #7e2c13",
"#1 c #7e4a1a",
"ap c #823e1e",
".6 c #82540c",
"ao c #834428",
"bn c #842e15",
"#. c #843502",
"#D c #843a0c",
"br c #844011",
"ax c #844303",
"az c #863a1e",
"af c #863e27",
"an c #86460e",
"#8 c #864a02",
"aP c #864e26",
"#l c #873e03",
"aA c #883213",
"bw c #883617",
"bK c #8a3606",
".A c #8a4a19",
"bx c #8a4e16",
"#y c #8a5202",
".z c #8c4019",
"bh c #8e3a15",
"bc c #8e3e12",
"a1 c #8e3f03",
"bb c #8e4022",
".T c #905004",
"bL c #923e02",
"#W c #92512b",
".P c #926a1a",
"a6 c #93430c",
"bF c #944202",
"bm c #953e23",
"bq c #954a02",
"bi c #963606",
"bt c #964a28",
"aV c #964e15",
"#L c #964f05",
"#v c #965e16",
"bs c #973d1a",
"a0 c #974327",
"#5 c #98481b",
"#K c #9a4a12",
"#r c #9c3e0e",
"#H c #9c5602",
"aN c #9d5a07",
".v c #9d6621",
"bl c #9e4202",
"#q c #9e4f06",
"bR c #9e5e20",
"#X c #9e6212",
"ac c #9f4a28",
"bo c #9f4e25",
"#S c #a05112",
"#6 c #a15615",
"#2 c #a15f03",
"#3 c #a23a26",
"aa c #a24602",
"ak c #a24814",
".G c #a27612",
"#R c #a46602",
"#I c #a6422a",
"#U c #a64a3e",
"bj c #a65a22",
"#e c #a65b02",
".M c #a66618",
"bk c #a66a06",
"#s c #a8481e",
"#V c #a85227",
"ab c #a9503b",
"aJ c #aa5206",
"al c #aa6602",
"#7 c #aa6a08",
"aQ c #ab6205",
"#4 c #ac5840",
"#T c #ad492f",
"ai c #ad5c08",
"av c #ae5c14",
"#p c #ae7002",
".H c #ae8222",
"aj c #b35a27",
"#u c #b3660b",
"ba c #b3661a",
".L c #b37125",
"at c #b46216",
"au c #b46224",
"aE c #b47018",
"#G c #b57705",
"ag c #b66a1a",
".K c #b6761e",
".U c #b7861a",
"#N c #b97b1a",
"bd c #ba6f07",
"a5 c #bd7a03",
"bG c #be6e1e",
"bP c #be863a",
"bS c #be8e3a",
"#g c #c07232",
"bI c #c07830",
"#J c #c2664a",
"## c #c37e1d",
"bN c #c47620",
"#d c #c48204",
"bJ c #c48220",
"#f c #c57221",
"aF c #c67810",
".O c #c68b2a",
"#w c #c68f11",
"a3 c #c98a12",
".I c #c98e22",
"bf c #ca8612",
"be c #ca961e",
"ad c #ca9a36",
"a# c #cb8323",
"aC c #ce8606",
"aw c #ce910b",
"as c #d28a14",
".5 c #d2aa3a",
"aB c #d3832a",
"bA c #d3923a",
"#h c #d39725",
"aD c #d4920e",
"bu c #d5912a",
"bC c #d68a3a",
"a4 c #d69222",
".J c #d6a22e",
"aM c #d8960c",
"aR c #daa212",
"aK c #daa60a",
".2 c #db9842",
"ah c #db9a1d",
"#t c #de864e",
"bE c #de992d",
"bz c #dea222",
"aZ c #dea60e",
"#M c #dea62e",
"#Q c #deae26",
"b. c #e2a21b",
"aX c #e2ba12",
".1 c #e4a44e",
"#m c #e59d2b",
"a2 c #e5a229",
"#Z c #e5a63f",
"bp c #e6a632",
"aq c #e8a037",
"#E c #e8aa32",
"am c #ebb027",
"a8 c #eeae32",
"#0 c #eeb24a",
"aH c #eeb624",
"#o c #eebc24",
"#P c #eebe32",
"aY c #eec21e",
"bD c #f0b03f",
".0 c #f1a54d",
"ar c #f2a632",
"bO c #f2b252",
".3 c #f2b646",
"#Y c #f2ba42",
"#x c #f4c630",
"bg c #f6ae36",
"bQ c #f6bc68",
"b# c #f8bd32",
"aL c #f9c53d",
"#F c #facc2c",
"aG c #fbb340",
".Z c #fdc356",
"bB c #feb64c",
"bH c #febb57",
".Y c #febc44",
"a9 c #fec22a",
"by c #fec44a",
"#c c #fecc3c",
".4 c #fecc46",
".X c #fed052",
"#b c #fed232",
".V c #fed242",
"#n c #fed74a",
"ae c #fed860",
"#a c #fed93c",
"aS c #feda2e",
"aT c #fedf34",
"#i c #fedf43",
".W c #fee151",
"aW c #fee636",
"aU c #feee36",
"Qt.#.a.b.c.d.e.f.g.h.h.h.h.i.j.k.b.l.m.n.o.o.p",
".q.o.m.r.r.s.t.u.v.v.w.x.y.s.z.A.w.c.B.b.o.C.C",
".B.l.D.E.F.v.G.H.I.J.K.L.M.N.L.O.H.P.t.Q.R.a.q",
".e.h.j.S.T.U.V.W.X.Y.Z.0.1.2.3.X.4.5.6.Q.e.7.m",
".8.9.j#.##.4#a#b#c#d#e#f.0#g#h.X#i#a.U#j.9.7.m",
"#k.D.S#l#m#n#i#o#p#q#r#s#t#u#v#w#x#i.J#y.x#z#A",
"#B#C#D.T#E#a#F#G#H#q#r#I#J#K#L#p#M.4#M#N.y#O#A",
".8.9#l###P#a#Q#R#S#r#T#T#U#V#W#X#h#Y#Z#0.T.j.D",
".8#1.i.I#o#n#w#2#V#I#3#I#U#4#5#6#7.I.Z.3#8#9a.",
"#C.8.ya##o#n#w#Laa#T#Iabababac#S#2adae.3#y.i#z",
"af#C.Nag#E#cah#uaiaj#sababacakaialam.X#han#9.E",
"aoap#D#6aq.4aras#fatai#K#6auavagaw#n.X.Iaxay#9",
"afazaA#SaBaqaCaDaD#G#G#N.KaEaFaGaH#c#h#2ax.Sa.",
"aoaoaI#3aJai#paK#F#F#PaL.X.4amaMaHaH.IaN#D.kaO",
"aPapaA#raaaQaRaSaTaUaTaT#iaT#F#oaK#waEaV#D.E.E",
"#W.NaAaaaias#caSaWaT#a#i#a#aaXaY.VaZaEaVazaOaf",
"a0#Da1aQa2aL#a#bamawa3a4a2a3a5#x#a.Xa3#Ha6a7az",
"a0#5#Lasa8#Fa9b.a5agatag#NaQ#2#h.4.Wb###ba#.bb",
"acbc#2#mb#aLaDbdatatajajaj#K#q.Lbe#x.Xbf#uaI.z",
"aba6##bgaLah#e#K#Sak#3#rbhbia0bjbkbe.4#ma##l.z",
"#V#Sbdam.4a5#e#qblbmaAaAbnbna0bo#2#N.Ybp#mbqbr",
"#5#LaQbpb##d#e#Sbo#sbs#3aAbnbmbt#6#7bgaM#m.Tan",
"bt#Hbu.V#c#h#H#SbcbhaAbnbvbvbwbbboagaGarar#q.A",
"bxan#Nby.4bzaQ#Dbbbwbnbvbvbwbw#.#KataGbgar.T.N",
"bt#CaxbA.Xa8ala1bhbvbnbvaOaAbwbhavaBbBaGbC#Dbx",
".k.xbx.MbDbDbEbqbcbwa7bvbhaAbhbFbGaqaqbHai.y.i",
"a.#z.ybIbJbB.YbfbFbKaObsbcbLbL#f#mbEbB.2#.#zbM",
"#O#O#9.ybAbubp.Z.0#g#5#gbN#fbC.2bz.X.1ax#9#9#k",
".e.e.h#9#v.2bO#ZbO.1aEbC.2a####E.Zad#X#j.7.f.c",
".#.a.o.Q.g#1bPbQ.1bR.x.ian.LbAbQbS.6.ubT.r.b.R",
"bUbUbU.pbVbW.Q.s.6.i.f.x.x#C.A.s.w.B.r.7.a.p.n",
"bXbYbUbU.abWbW.f.hbZ.ubM.bayay.fbWbW.r.a.a.n.C"};
