/* XPM */
static char *nix0009[]={
"23 32 243 2",
"bV c #2a1206",
"bU c #321208",
"bS c #341e18",
"bN c #351918",
".q c #37160d",
"bL c #371a0b",
"bK c #3a1e12",
"bM c #3a2226",
".E c #401c08",
"bH c #401c15",
".D c #420e02",
"bE c #44261c",
"bF c #45220f",
"bR c #462202",
"bT c #46262a",
"bO c #4a1a08",
".p c #4a1a1a",
"bJ c #4a2206",
".n c #4d2217",
"bI c #4e240a",
".l c #522215",
"bQ c #522e12",
".# c #541c08",
"bB c #541e14",
".o c #542220",
".w c #542404",
"bP c #562a0e",
"by c #5a2e2a",
".a c #5b2118",
".g c #5d2a06",
".m c #5d2b1a",
"bu c #5e1a0a",
"bt c #5e1a12",
"bA c #5e210a",
".C c #622e12",
"bW c #623a32",
".4 c #642a08",
".r c #65291b",
"bx c #662216",
".R c #6a361c",
".F c #6b2906",
".b c #6b2919",
".x c #6b3207",
".Q c #6b360b",
"bl c #6c210b",
".h c #6c301a",
"Qt c #6d3129",
"bc c #723222",
".S c #723b03",
"bm c #742005",
"bh c #752814",
".c c #762e0c",
".j c #763213",
".k c #76360a",
"bk c #772c20",
"#S c #78280a",
".i c #783718",
".B c #784410",
"bj c #7a2916",
"bD c #7a3202",
".f c #7a3d06",
"bg c #7a3e2e",
"aK c #7e320e",
".s c #7e3a1e",
"#h c #7e3e07",
"ai c #7f3707",
"aB c #802b09",
"bd c #822d14",
"bf c #823205",
".y c #82451d",
"ar c #842e02",
"a9 c #843213",
"aD c #863611",
"#R c #863702",
"aw c #87351d",
"aY c #883a17",
"bG c #884012",
"ae c #893206",
"ao c #893a21",
".e c #894204",
"af c #8b3e07",
"a# c #8b4316",
"aq c #8c2e12",
"a8 c #8c3807",
".t c #8c4a02",
".G c #8c5206",
"ax c #8d4602",
"ad c #8e3818",
"b. c #8e421e",
".d c #8e4612",
".A c #8e4e1e",
".H c #8e5a0e",
"b# c #92461a",
"#8 c #943a1c",
"aJ c #944103",
"#A c #944e05",
".z c #945226",
"#I c #953515",
"#q c #954703",
"aO c #963206",
"#H c #963602",
"#r c #96400e",
"an c #96401c",
"#B c #964e16",
".5 c #964e26",
"bw c #965210",
"aa c #966e02",
"#p c #985802",
"#s c #9a3a02",
"aG c #9a4206",
".6 c #9a4a12",
"#i c #9a5612",
"bs c #9a6206",
"ap c #9b4531",
"#9 c #9c3e22",
"#J c #9e3811",
"aI c #9e4011",
"#a c #9e4e06",
"bq c #9e5222",
"aZ c #9e522a",
"aE c #9e5e02",
".I c #9e6e12",
"#X c #9f411d",
"#W c #9f4618",
".N c #9f6215",
"#7 c #a04204",
"#2 c #a15a04",
"#M c #a24e05",
"bi c #a24e14",
"## c #a26618",
"az c #a2760e",
"as c #a27a0a",
"#V c #a35205",
"#v c #a35605",
"#Y c #a44629",
"#1 c #a55e03",
"av c #a63e0a",
"#K c #a64206",
"bn c #a64618",
"#L c #a64a0e",
"#C c #a66216",
".M c #a66626",
"#Z c #a83f17",
"am c #a84608",
"#0 c #a8541c",
"#N c #a85a02",
".O c #a86e12",
"aX c #a96607",
"aH c #aa4e0a",
"aT c #aa550e",
"#u c #aa5602",
"a3 c #aa5632",
"aR c #aa602e",
"ba c #aa620a",
"#G c #ac6c04",
".v c #ad6f25",
"bp c #ae5806",
"#b c #b2590e",
"aN c #b25e02",
"#6 c #b26208",
"aU c #b27602",
"#j c #b46c04",
"#t c #b55e15",
"aM c #b56606",
".K c #b57a12",
"#Q c #b66a1e",
".L c #b87e20",
"aP c #b97b07",
"#w c #ba7402",
"al c #be6c08",
".u c #be7c3a",
".P c #be802e",
"#F c #be8e16",
"at c #be9616",
".J c #c08212",
"#d c #c17511",
"aQ c #c17b11",
"#U c #c27a02",
"#z c #c2851e",
"bz c #c67a26",
"aW c #c68202",
"aj c #c6a222",
"bb c #c6a602",
"#O c #ca8f1c",
"#5 c #ca9632",
".T c #cb8a17",
"aL c #cc8606",
"#o c #ce9a16",
"bo c #d28418",
"bv c #d29a2a",
"be c #d2a20e",
"ab c #d2a636",
"#c c #d6822a",
"ak c #d8921a",
"au c #d89612",
"#4 c #da9232",
"#P c #db9b15",
"#e c #dd9827",
".Z c #e09a40",
"#T c #e2aa12",
"#k c #e3aa26",
".3 c #e4a846",
"a0 c #e5a426",
"#g c #e6a23a",
"a1 c #e6b222",
"aC c #e9aa31",
"a6 c #eac616",
"aA c #ecac28",
"#E c #ecb818",
"#. c #edb13b",
".7 c #f0be2c",
"ag c #f2ba2a",
"bC c #f2ba4e",
"ac c #f5c32e",
"a2 c #f6ca36",
".Y c #f7b15d",
"aV c #f8be2e",
"ay c #f9be3d",
"aS c #fab03c",
"ah c #fab830",
".0 c #fcb83e",
"#3 c #fcba4a",
"#y c #fcc23e",
"a. c #fdcb34",
"#l c #fdd733",
"br c #febe52",
"#x c #fec54a",
"#f c #fec553",
"#D c #fec63c",
".U c #fecc40",
".X c #fecd5f",
"#n c #fed230",
".W c #fed240",
".2 c #fed252",
".1 c #fed262",
"aF c #fed548",
"a7 c #fed626",
".9 c #fed63e",
".8 c #feda3d",
".V c #feda4e",
"#m c #fede38",
"a4 c #fee24c",
"a5 c #feee42",
"Qt.#.a.a.b.c.c.d.e.f.g.#.#.h.i.j.k.l.m.n.o.p.q",
".pQt.r.h.k.s.e.t.u.v.k.w.x.y.z.A.B.B.m.C.D.l.E",
".c.h.F.G.H.I.J.K.L.L.v.M.N.t.O.O.P.H.B.Q.R.w.m",
".i.d.S.G.T.U.V.W.X.X.Y.Z.Y.Z.0.1.2.3.I.Q.#.4.g",
".5.6.t.K.7.8.9.9#.###a#b#c#d#e#f.2.X#g.t#h.F.B",
".d#i#j#k#l#m#n#o#p#q#r#s#t#u#v#w#x#y#z.P#A.F.F",
"#B#C#z#D#n#E#F#G.t#H#I#J#K#L#M#N#d#O#P#f#Q#R#S",
".N###..V#T#P#U#V#W#X#I#Y#Z#X#W#0#1#2#3#x#4.e#h",
"###5.2.W#P#w#6#7#J#8#9#9#9#L#X#r#V#1#ya.#..6a#",
"aaab.Wac#P#j#L#J#9#J#8#8ad#Y#Haeaf#pag.8ah#2ai",
"aaaj.8.8akalam#Z#Z#Janadaoapaqaraf.Nag#mag#v.k",
"asat.9.9aual#Kav#Z#J#Xadawapaqaeax.Ka.#may.tai",
"az#F.Wa.aA#u#Havavav#9aqaq#9aB#R#a#O.W.9aCaxaD",
"aE.KayaFau#1aGaH#LavaIaq#IapaeaJaE#k.8.U#O.eaK",
".N.M.T#xaL#UaMaN#W#saOaO#JaIai#AaP#E.8ayaQ#RaK",
"aR.6#1aS#yay#P#j#6#V#LaTaT#V#aaU.7#DaV#O#2aiaD",
".daR#q#d.0ah.WahauaWal#waX.TaL#y.8#n#O#jaJaeaY",
"aZa##7#bala0#D.9#l#Da1.7a2ac#E.8#na.#U#2#qaDa3",
"a#a#aeaG#M#da0.U.Ua4#l#la5a6a7#m.UaA.K#aa8a9b.",
".ib#araeaH#qbaaWa0.7a2.8#lbba6a.aVaQaMa8aia9ao",
".ybcbda9#8aJaJ#p#vaX#GaUasbe.8a.#e#w#0bfa9#Sao",
"bg.bbhaw#S#XaJbi#t#V#v#GaUa0ahakaMaT#0arbjbjbk",
"Qtbcbla9bmarae#sbnaHaT#6#e#yaSbobpbqa3#Sbmbkbh",
".C.rbl.cblbmadadbnamaHalbr#3bo#b#NaIbdbmbkbh.r",
".b.bblbdaKbmaBad#X#M#j#g#y#.bs#v.6anbdblbt.b.r",
".a.#bu.Fbhbkbdaoaf#abo#k.2bv#1bwb#.sbkbxbx.rby",
".r.a.rblbxbkbkaoafbzaCayaybsax.d.cblbA.#.abB.n",
".pbB.rbBbA.r.h.saZ.Y#g.1bC#pbD.j.FbB.a.p.n.nbE",
"bFbF.wbA.w.w.4.k.z.u.u.Y.O.fbGbh.4.4.o.nbHbHbH",
"bEbFbFbIbJbJbF.w.R.c.k.S.S.x.F.gbB.nbHbH.qbKbL",
"bMbNbL.q.qbL.q.EbObO.RbPbQbRbObJ.E.E.qbNbSbSbS",
"bMbNbTbUbVbSbVbSbHbQbWbWbE.qbL.E.EbU.qbNbEbSbS"};
