/* XPM */
static char *nixcol[]={
"11 26 198 2",
"#Y c #461202",
"a6 c #461e0e",
".b c #4a1202",
"#U c #4a120a",
"#X c #4a1602",
"aX c #4a1a06",
"bd c #4a1a12",
"ba c #4a2202",
"a7 c #4a220e",
"#3 c #4e1602",
".d c #4e1a02",
"#M c #4e1a0e",
"bc c #4e1e12",
"aW c #4e220e",
"b# c #4e2602",
".i c #521606",
"#0 c #52160e",
"#2 c #521a02",
"#D c #521a06",
"#1 c #521a0a",
"Qt c #521a16",
"#E c #521e02",
"#Z c #521e12",
"a5 c #521e16",
"#8 c #52220a",
".# c #561e16",
"#F c #562202",
"a0 c #562602",
"a4 c #562616",
"aY c #562a06",
"bb c #562a12",
"#9 c #5a1602",
".q c #5a1a02",
"#K c #5a1e06",
".c c #5a2202",
".e c #5a220e",
"#T c #5a2212",
".g c #5a2216",
"#P c #5a2602",
"#N c #5a2612",
"#5 c #5a2616",
"#O c #5a2a02",
"a1 c #5a2e02",
"a8 c #5a2e1a",
".h c #5e1e12",
"#L c #5e220a",
".p c #5e2612",
".a c #5e2616",
".f c #5e261a",
"aS c #5e2a0a",
"#4 c #5e2a16",
"#7 c #5e2e12",
"aZ c #5e3202",
"#B c #622202",
"aR c #62220a",
".z c #622602",
".j c #622a02",
".o c #622a0e",
".n c #622e0a",
"#Q c #622e0e",
"aj c #622e16",
"a2 c #62360a",
"a3 c #62361a",
"b. c #623a12",
"a9 c #623a1a",
"aM c #662202",
"#C c #662606",
"#S c #662e1a",
".k c #663202",
"ac c #663212",
"#6 c #663606",
"#j c #6a2602",
".K c #6a2a02",
"#r c #6a2a06",
".r c #6a2a0a",
"aN c #6a2e0a",
"aQ c #6a3202",
"#J c #6a320e",
".l c #6a3602",
"aT c #6a3a0a",
"aL c #6e2e02",
".m c #6e3602",
"#G c #6e3a0e",
".L c #722602",
"aF c #722a02",
".A c #722a0a",
".B c #722e02",
".s c #723602",
"#s c #72361a",
".y c #723a0a",
"#t c #723a12",
"#V c #723a1a",
"#R c #723a1e",
".x c #723e02",
"#W c #723e16",
"#b c #762e0a",
"a. c #763202",
".V c #76360e",
"ad c #763a02",
"#l c #763a0a",
"ai c #764216",
"aC c #7a2e02",
"#A c #7a3a0a",
"au c #7a3e1a",
"ab c #7a460a",
"av c #7e3202",
".6 c #7e320e",
"aB c #7e360e",
".5 c #7e3a12",
".J c #7e4206",
"aO c #7e420e",
".t c #7e4602",
"aU c #7e4e0a",
"ap c #823e0a",
"#i c #823e0e",
"#k c #823e16",
"#I c #824e1e",
"#H c #825216",
"ao c #863e06",
"aK c #864e06",
"#z c #86521a",
"aV c #865612",
"#c c #8a460a",
"#u c #8a4e1e",
".M c #8e420a",
"aA c #8e460e",
".4 c #8e4e12",
".U c #8e4e16",
".C c #8e520e",
".W c #92421e",
"aD c #964e0e",
".7 c #964e16",
"#m c #965a16",
"aa c #9a6622",
"ak c #9e5e12",
".I c #9e5e1a",
".w c #9e661a",
"aw c #a25616",
".N c #a25e12",
"aG c #a25e22",
"#q c #a2661a",
".u c #a66e26",
"a# c #a67222",
".3 c #aa661a",
".v c #aa7622",
"#v c #aa762a",
"#n c #aa7a1e",
"ax c #ae661a",
".T c #ae7226",
".X c #b26a16",
".8 c #b26e1a",
".H c #b27a22",
"#d c #b67a16",
"aH c #b67a2a",
"at c #ba7a12",
"aq c #ba7a22",
".2 c #ba7e0e",
"#a c #ba7e16",
"an c #ba821a",
"az c #be7e16",
"ae c #be8632",
"aE c #c2821e",
".S c #c2861e",
"#h c #c28626",
".D c #c28a2e",
".O c #d2922a",
"#y c #d29e4a",
".9 c #da963a",
"as c #da9a2a",
"al c #da9e42",
"ah c #deaa46",
"#. c #e6aa26",
"ay c #eaaa3a",
"ar c #eaaa4a",
".Z c #eaae26",
".G c #eab24e",
"#x c #eab662",
"#e c #eeb23e",
"#w c #eeba6a",
".Y c #f2b24a",
".F c #f2be4e",
"af c #f2be5a",
".0 c #fac236",
"aP c #fac676",
"aJ c #febe5a",
".1 c #fec242",
"## c #fec24a",
"#g c #fec252",
"aI c #fec262",
".R c #fec64a",
".E c #fec65a",
"#p c #fec66a",
".P c #feca42",
"am c #feca56",
"ag c #feca5a",
"#f c #fece52",
"#o c #fece66",
".Q c #fed24e",
"Qt.#.a.b.c.d.d.e.f.g.g",
".h.i.c.j.k.l.m.n.o.p.p",
".q.r.s.t.u.v.w.x.y.z.c",
".A.B.C.D.E.F.G.H.I.J.K",
".L.M.N.O.P.Q.R.S.T.U.V",
".W.M.X.Y.Z.0.1.2.3.4.5",
".6.7.8.9#..P###a.3.4.5",
"#b#c.N#d#e#f#g#h.I#i#j",
"#k#l#m#n#o#o#p#q.J.K#r",
"#s#t#u#v#w#x#y#z#A#B#C",
"#D#E#F#G#H#z#I.k#J#K#L",
"#M#N.d#O#O#P#Q#R#S#T#K",
"#U.g.o#V#W#F#X#Y#N#Z#M",
"#0#1#2#3#F.d#F#P#4#5#Z",
".h#L.n.j.m.k#6#O#7#4#8",
"#9#Ba..t.ua#aaab.kac#F",
".Kad.4aeafagah.Haaaiaj",
"a.#cakalag#faman.u#I.5",
"aoapaqaras.R##at.X.Uau",
"avawax.9ay.R##az#qaAaB",
"aCaDawaq.Y.E#gaEawaoaF",
"ap#baGaHaI#oaJ#qaKaLaM",
"aNauaO.uaP#x#yaKaQ#BaR",
"#XaS#PaTaUaVaU.J.j#F.a",
"aWaXaWaYaZa0a1a2a3a4a5",
"a6a7a8a9b.b#bababbbcbd"};
