/* XPM */
static char *nixdp[]={
"11 13 141 2",
"aa c #48180c",
"ag c #491c00",
".b c #4b1300",
"ak c #4d1814",
"ab c #4e1e10",
"ah c #4e2000",
"#Q c #501704",
"#1 c #501c0f",
".e c #501e00",
"aj c #501e15",
".d c #521e00",
"#3 c #521f0a",
"af c #522500",
".k c #531508",
"Qt c #541716",
"a# c #541d18",
"#6 c #562800",
"#S c #572100",
"#R c #572107",
".i c #57221e",
"a. c #572316",
"#2 c #582514",
"ai c #582716",
"ac c #582718",
".# c #591c17",
".E c #591e0e",
"#Z c #59220e",
".h c #592317",
".u c #5a1800",
"#0 c #5a1f17",
".c c #5a2500",
"#4 c #5a2909",
"#5 c #5a2b00",
".t c #5c231c",
".f c #5c2900",
"#7 c #5c2e00",
".s c #5d2514",
".g c #5d2911",
".j c #5e1f16",
".l c #5e210c",
"#O c #5f2307",
".a c #5f2519",
"#P c #612213",
".D c #61280d",
".m c #612906",
".r c #622b0c",
"#9 c #623017",
".q c #632f00",
"ad c #663620",
"#Y c #67310f",
"#8 c #67380c",
".n c #683301",
".P c #692910",
"ae c #693b19",
"#E c #6a2810",
"#F c #6a2d0e",
".o c #6a3600",
"#T c #6a3708",
"#t c #6b2605",
".v c #6b2a0c",
"#D c #6c2c06",
"#X c #6d3c02",
"#N c #6e3406",
".p c #6f3b01",
".Q c #702a00",
".G c #702e00",
".F c #712e03",
".C c #71380d",
".B c #713c00",
".w c #73330d",
"#G c #733913",
"#j c #783300",
".0 c #783312",
"#a c #7c3700",
".O c #7d3f1a",
"#v c #7d400a",
"#C c #7d4105",
"## c #7e3814",
"#u c #7e3e10",
".x c #7e420e",
"#U c #814f10",
"#s c #823e0f",
"#W c #82510e",
"#M c #865209",
"#V c #865711",
"#H c #8a501e",
".2 c #8b4500",
"#k c #8b4a08",
".R c #8c4706",
".Z c #8f4d1d",
".H c #8f4e14",
".1 c #904907",
"#. c #904a16",
"#i c #914b17",
"#w c #925514",
"#b c #945007",
".N c #9b5e27",
".A c #9b661a",
"#r c #9f5f18",
"#l c #a26111",
"#B c #a26a13",
".S c #a35f14",
".y c #a76e29",
"#h c #a9671b",
".9 c #aa681c",
".z c #aa7527",
".3 c #ae6a15",
"#c c #ae6c16",
"#x c #ae7623",
".M c #af7625",
".Y c #b06f2b",
"#I c #b07b39",
"#m c #b47816",
".8 c #ba7d13",
"#q c #bf8420",
".X c #c18525",
".I c #c3843d",
"#L c #cf9b45",
".T c #d09036",
"#d c #d79831",
"#e c #e4a82e",
".5 c #e8ac34",
".L c #e9b154",
"#n c #ecb03e",
"#J c #ecb865",
"#K c #edbc60",
".K c #f1b958",
".4 c #f5b450",
"#A c #f6c159",
"#p c #fac14d",
".6 c #fbc042",
".J c #fcc068",
"#g c #fcc245",
".7 c #fdc348",
"#y c #fec763",
".W c #ffc655",
".U c #ffc65b",
"#f c #ffca4a",
"#o c #ffcb50",
".V c #ffd25e",
"#z c #ffd366",
"Qt.#.a.b.c.d.e.f.g.h.i",
".j.k.l.m.n.o.p.q.r.s.t",
".u.v.w.x.y.z.A.B.C.D.E",
".F.G.H.I.J.K.L.M.N.O.P",
".Q.R.S.T.U.V.W.X.Y.Z.0",
".1.2.3.4.5.6.7.8.9#.##",
"#a#b#c#d#e#f#g.8#h#i##",
"#j#k#l#m#n#o#p#q#r#s#t",
"#u#v#w#x#y#z#A#B#C#D#E",
"#F#G#H#I#J#K#L#M#N#O#P",
"#Q#R#S#T#U#V#W#X#Y#Z#0",
"#1#2#3#4#5#6#7#8#9a.a#",
"aaabacadaeafagahaiajak"};
