<?xml version="1.0" encoding="UTF-8" standalone="no"?>
<!-- Created with Inkscape (http://www.inkscape.org/) -->

<svg
   xmlns:dc="http://purl.org/dc/elements/1.1/"
   xmlns:cc="http://creativecommons.org/ns#"
   xmlns:rdf="http://www.w3.org/1999/02/22-rdf-syntax-ns#"
   xmlns:svg="http://www.w3.org/2000/svg"
   xmlns="http://www.w3.org/2000/svg"
   xmlns:xlink="http://www.w3.org/1999/xlink"
   xmlns:sodipodi="http://sodipodi.sourceforge.net/DTD/sodipodi-0.dtd"
   xmlns:inkscape="http://www.inkscape.org/namespaces/inkscape"
   version="1.0"
   width="200"
   height="100"
   id="svg7229"
   inkscape:version="0.48.3.1 r9886"
   sodipodi:docname="configuration-icons.svg">
  <sodipodi:namedview
     pagecolor="#ffffff"
     bordercolor="#666666"
     borderopacity="1"
     objecttolerance="10"
     gridtolerance="10"
     guidetolerance="10"
     inkscape:pageopacity="0"
     inkscape:pageshadow="2"
     inkscape:window-width="1280"
     inkscape:window-height="955"
     id="namedview109"
     showgrid="false"
     inkscape:zoom="5.5720014"
     inkscape:cx="127.21827"
     inkscape:cy="22.139365"
     inkscape:window-x="0"
     inkscape:window-y="0"
     inkscape:window-maximized="1"
     inkscape:current-layer="layer1" />
  <defs
     id="defs7231">
    <linearGradient
       id="linearGradient4158">
      <stop
         id="stop4160"
         style="stop-color:#ffffff;stop-opacity:1"
         offset="0" />
      <stop
         id="stop4162"
         style="stop-color:#ffffff;stop-opacity:0"
         offset="1" />
    </linearGradient>
    <linearGradient
       x1="417.97501"
       y1="238.5744"
       x2="417.97501"
       y2="300.05838"
       id="linearGradient2649"
       xlink:href="#linearGradient4158"
       gradientUnits="userSpaceOnUse"
       gradientTransform="translate(-119.86428,90.38004)" />
    <linearGradient
       x1="395.53571"
       y1="413.50504"
       x2="395.53571"
       y2="400.50504"
       id="linearGradient3900"
       xlink:href="#linearGradient4158-9"
       gradientUnits="userSpaceOnUse" />
    <linearGradient
       id="linearGradient4158-9">
      <stop
         id="stop4160-8"
         style="stop-color:#888888;stop-opacity:1"
         offset="0" />
      <stop
         id="stop4162-4"
         style="stop-color:#232323;stop-opacity:1"
         offset="1" />
    </linearGradient>
    <linearGradient
       x1="374.53571"
       y1="405.50504"
       x2="374.53571"
       y2="403.50504"
       id="linearGradient3832"
       xlink:href="#linearGradient4158-3"
       gradientUnits="userSpaceOnUse" />
    <linearGradient
       id="linearGradient4158-3">
      <stop
         id="stop4160-0"
         style="stop-color:#888888;stop-opacity:1"
         offset="0" />
      <stop
         id="stop4162-1"
         style="stop-color:#232323;stop-opacity:1"
         offset="1" />
    </linearGradient>
    <linearGradient
       x1="143"
       y1="85"
       x2="143"
       y2="71"
       id="linearGradient3795"
       xlink:href="#linearGradient4158-3"
       gradientUnits="userSpaceOnUse" />
    <linearGradient
       id="linearGradient4439">
      <stop
         id="stop4441"
         style="stop-color:#888888;stop-opacity:1"
         offset="0" />
      <stop
         id="stop4443"
         style="stop-color:#232323;stop-opacity:1"
         offset="1" />
    </linearGradient>
  </defs>
  <metadata
     id="metadata7234">
    <rdf:RDF>
      <cc:Work
         rdf:about="">
        <dc:format>image/svg+xml</dc:format>
        <dc:type
           rdf:resource="http://purl.org/dc/dcmitype/StillImage" />
        <dc:title />
      </cc:Work>
    </rdf:RDF>
  </metadata>
  <g
     transform="translate(-214.53572,-326.50504)"
     id="layer1">
    <g
       transform="translate(21.167262,4.5996094e-6)"
       id="close">
      <rect
         width="16"
         height="16"
         x="368.53571"
         y="347.50504"
         id="rect3403"
         style="opacity:0;fill:#000000;fill-opacity:0.49803922;fill-rule:nonzero;stroke:none" />
      <g
         transform="translate(40.81332,0.02209709)"
         id="g3242">
        <path
           d="m 116.25,21.34375 -0.5,0.5 -1.53125,1.53125 -0.5,0.5 0.5,0.5 4.28125,4.3125 -4.28125,4.3125 -0.5,0.46875 0.5,0.5 1.53125,1.53125 0.5,0.5 0.46875,-0.5 4.3125,-4.28125 4.3125,4.28125 0.5,0.5 0.5,-0.5 1.53125,-1.53125 0.46875,-0.5 L 127.875,33 l -4.3125,-4.3125 4.3125,-4.3125 0.46875,-0.5 -0.46875,-0.5 -1.53125,-1.53125 -0.5,-0.5 -0.5,0.5 -4.3125,4.3125 -4.3125,-4.3125 -0.46875,-0.5 z m -0.0312,1 4.8125,4.78125 4.8125,-4.78125 1.53125,1.53125 -4.8125,4.8125 4.8125,4.78125 L 125.84375,35 121.03125,30.21875 116.21875,35 114.6875,33.46875 119.5,28.6875 l -4.8125,-4.8125 1.53125,-1.53125 z"
           transform="translate(214.53572,326.50504)"
           id="path3165"
           style="fill:#000000;fill-opacity:0.66666669;fill-rule:nonzero;stroke:none" />
        <path
           d="m 340.36713,348.84281 -4.8,4.8 -4.8,-4.8 -1.53846,1.53846 4.8,4.8 -4.8,4.8 1.53846,1.53846 4.8,-4.8 4.8,4.8 1.53846,-1.53846 -4.8,-4.8 4.8,-4.8 -1.53846,-1.53846 z"
           id="path3507"
           style="fill:#ffffff;fill-opacity:0.86274511;fill-rule:nonzero;stroke:none" />
      </g>
    </g>
    <g
       transform="translate(21.167262,4.5996094e-6)"
       id="rotate">
      <rect
         width="16"
         height="16"
         x="319.53571"
         y="346.50504"
         id="rect3407"
         style="opacity:0;fill:#000000;fill-opacity:0.49803922;fill-rule:nonzero;stroke:none" />
      <g
         transform="translate(22.627417,0)"
         id="g3234">
        <path
           d="m 95.0625,20.34375 c -0.256659,0.01677 -0.48943,0.15643 -0.625,0.375 l -1.125,1.65625 c -1.022979,-0.540891 -2.08944,-0.90625 -3.28125,-0.90625 -3.943629,9e-6 -7.1875,3.24388 -7.1875,7.1875 -9e-6,3.943629 3.24389,7.15625 7.1875,7.15625 3.943611,-10e-7 7.15625,-3.21263 7.15625,-7.15625 0.0044,-0.216801 -0.09667,-0.44042 -0.25,-0.59375 -0.153333,-0.153329 -0.3457,-0.22313 -0.5625,-0.21875 l -1.59375,0 c -0.211379,0.004 -0.41597,0.0976 -0.5625,0.25 -0.146541,0.152399 -0.22301,0.35112 -0.21875,0.5625 -9e-6,2.203539 -1.76521,3.96875 -3.96875,3.96875 -2.203539,-10e-7 -4,-1.76523 -4,-3.96875 -9e-6,-2.203531 1.79647,-4 4,-4 0.524021,-1e-6 0.94993,0.25467 1.40625,0.4375 l -0.8125,1.1875 c -0.196459,0.267139 -0.21197,0.62822 -0.03125,0.90625 0.180722,0.27803 0.51986,0.41484 0.84375,0.34375 L 96.125,26.625 c 0.431521,-0.08622 0.71138,-0.50601 0.625,-0.9375 L 95.875,21 c -0.06964,-0.390551 -0.41604,-0.67034 -0.8125,-0.65625 z m 0.03125,0.8125 0.875,4.6875 -4.6875,0.875 1.40625,-2.03125 C 91.9257,24.17266 90.987996,23.875 90,23.875 c -2.63449,0 -4.75,2.115491 -4.75,4.75 0,2.63448 2.115506,4.78125 4.75,4.78125 2.6345,0 4.781252,-2.146769 4.78125,-4.78125 l 1.59375,0 c 0,3.51266 -2.862344,6.374999 -6.375,6.375 -3.51266,0 -6.343748,-2.862339 -6.34375,-6.375 0,-3.51267 2.831086,-6.34375 6.34375,-6.34375 1.32917,0 2.461931,0.349669 3.5625,1.09375 l 1.53125,-2.21875 z"
           transform="translate(214.53572,326.50504)"
           id="path3174"
           style="fill:#000000;fill-opacity:0.66666669;fill-rule:nonzero;stroke:none" />
        <path
           d="m 309.61881,347.65154 -1.50636,2.21729 c -1.10057,-0.74408 -2.23541,-1.08876 -3.56458,-1.08876 -3.51266,0 -6.36352,2.85086 -6.36352,6.36353 0,3.51266 2.85086,6.36351 6.36352,6.36351 3.51266,0 6.36353,-2.85085 6.36353,-6.36351 l -1.59088,0 c 0,2.63448 -2.13815,4.77263 -4.77265,4.77263 -2.63449,0 -4.77264,-2.13815 -4.77264,-4.77263 0,-2.63451 2.13815,-4.77265 4.77264,-4.77265 0.988,0 1.9079,0.30049 2.6697,0.81533 l -1.39201,2.04826 4.68812,-0.89487 -0.89487,-4.68813 z"
           id="path3511"
           style="fill:#ffffff;fill-opacity:0.86274511;fill-rule:nonzero;stroke:none" />
      </g>
    </g>
    <g
       transform="translate(21.167262,4.5996094e-6)"
       id="configure">
      <rect
         width="16"
         height="16"
         x="343.53571"
         y="346.50504"
         id="rect3405"
         style="opacity:0;fill:#000000;fill-opacity:0.49803922;fill-rule:nonzero;stroke:none" />
      <g
         transform="translate(30.140427,-0.4375)"
         id="g3238">
        <path
           d="m 108.40625,21.5 c -0.0942,0.0035 -0.17505,0.03343 -0.28125,0.0625 -0.69015,0.188929 -1.33863,0.55738 -1.875,1.09375 -1.10376,1.103759 -1.35073,2.64193 -1.03125,4.0625 L 99.6875,32.25 c -0.739889,0.739839 -0.73983,1.94765 0,2.6875 l 0.78125,0.78125 c 0.73985,0.739869 1.94766,0.73982 2.6875,0 l 5.6875,-5.6875 c 1.29608,0.150609 2.63891,-0.17016 3.625,-1.15625 0.50327,-0.503281 0.99124,-1.13972 1.15625,-1.9375 0.0777,-0.375881 -0.0316,-0.61188 -0.125,-0.84375 -0.0934,-0.231871 -0.20717,-0.42837 -0.40625,-0.625 -0.15223,-0.150371 -0.37843,-0.3303 -0.71875,-0.375 -0.34032,-0.0447 -0.72028,0.12652 -0.9375,0.34375 l -1.3125,1.34375 -0.0312,0 c -0.21452,-0.107331 -0.55802,-0.3183 -0.84375,-0.59375 -0.28573,-0.275451 -0.52709,-0.6187 -0.625,-0.8125 L 110,24 c 0.20437,-0.204381 0.31186,-0.50416 0.3125,-0.71875 6.4e-4,-0.214591 -0.0681,-0.36807 -0.125,-0.5 -0.11386,-0.263861 -0.26122,-0.44619 -0.4375,-0.625 -0.17628,-0.178811 -0.37532,-0.34352 -0.625,-0.46875 -0.18726,-0.09392 -0.43628,-0.198048 -0.71875,-0.1875 z m -0.0625,0.875 c 0.46822,-0.12818 1.31573,0.77802 1.0625,1.03125 l -1.5625,1.5625 c -0.71928,0.71927 2.03368,3.24759 2.625,2.65625 l 1.5625,-1.59375 c 0.16016,-0.16017 0.32798,-0.1078 0.46875,0.03125 0.18101,0.17878 0.32376,0.51316 0.28125,0.71875 -0.11581,0.55992 -0.47166,1.06541 -0.90625,1.5 -0.9228,0.9228 -2.22804,1.24208 -3.40625,0.9375 L 102.5625,35.125 c -0.41138,0.41137 -1.08862,0.41139 -1.5,0 l -0.78125,-0.78125 c -0.41138,-0.41139 -0.411389,-1.08863 0,-1.5 l 5.78125,-5.78125 c -0.49909,-1.27541 -0.24824,-2.783 0.78125,-3.8125 0.43382,-0.43382 0.94644,-0.72346 1.5,-0.875 z m -1.5,5.6875 c -0.14535,0.01754 -0.31268,0.09393 -0.4375,0.21875 l -4.75,4.78125 c -0.24963,0.24963 -0.28963,0.58538 -0.0937,0.78125 0.19587,0.19587 0.56288,0.15588 0.8125,-0.09375 l 4.75,-4.75 c 0.24963,-0.24963 0.28961,-0.61663 0.0937,-0.8125 -0.0979,-0.09793 -0.22965,-0.14254 -0.375,-0.125 z"
           transform="translate(214.53572,326.50504)"
           id="path2386"
           style="fill:#000000;fill-opacity:0.66666669;fill-rule:nonzero;stroke:none" />
        <path
           d="m 322.88015,348.8681 c -0.55356,0.15154 -1.06618,0.44118 -1.5,0.875 -1.02949,1.0295 -1.28034,2.53709 -0.78125,3.8125 l -5.78125,5.78125 c -0.41139,0.41137 -0.41138,1.08861 0,1.5 l 0.78125,0.78125 c 0.41138,0.41139 1.08862,0.41137 1.5,0 l 5.90625,-5.90625 c 1.17821,0.30458 2.48345,-0.0147 3.40625,-0.9375 0.43459,-0.43459 0.79044,-0.94008 0.90625,-1.5 0.0425,-0.20559 -0.10024,-0.53997 -0.28125,-0.71875 -0.14077,-0.13905 -0.30859,-0.19142 -0.46875,-0.0312 l -1.5625,1.59375 c -0.59132,0.59134 -3.34428,-1.93698 -2.625,-2.65625 l 1.5625,-1.5625 c 0.25323,-0.25323 -0.59428,-1.15943 -1.0625,-1.03125 z m -1.5,5.6875 c 0.14535,-0.0175 0.27707,0.0271 0.375,0.125 0.19586,0.19587 0.15588,0.56287 -0.0937,0.8125 l -4.75,4.75 c -0.24962,0.24963 -0.61663,0.28962 -0.8125,0.0937 -0.19588,-0.19587 -0.15588,-0.53162 0.0937,-0.78125 l 4.75,-4.78125 c 0.12482,-0.12482 0.29215,-0.20121 0.4375,-0.21875 z"
           id="path3509"
           style="fill:#ffffff;fill-opacity:0.86274511;fill-rule:nonzero;stroke:none" />
      </g>
    </g>
    <g
       transform="translate(21.167262,4.5996094e-6)"
       id="move">
      <rect
         width="16"
         height="16"
         x="296.53571"
         y="347.50504"
         id="rect3409"
         style="opacity:0;fill:#000000;fill-opacity:0.49803922;fill-rule:nonzero;stroke:none" />
      <g
         transform="translate(15.003922,0)"
         id="g3226">
        <path
           d="m 74.5,21.25 -0.375,0.4375 -1.78125,2 -0.75,0.8125 1.125,0 0.8125,0 0,2.5 0,0.5 0.5,0 1,0 0.5,0 0,-0.5 0,-2.5 0.78125,0 1.125,0 -0.75,-0.84375 -1.8125,-2 L 74.5,21.25 z m 1.03125,6.25 0,0.5 0,1 0,0.5 0.5,0 2.5,0 0,0.8125 0,1.125 0.8125,-0.75 2,-1.8125 0.4375,-0.375 -0.4375,-0.375 -2,-1.78125 -0.8125,-0.75 0,1.125 0,0.78125 -2.5,0 -0.5,0 z m 0,2 -0.5,0 -1,0 -0.5,0 0,0.5 0,2.5 -0.8125,0 -1.125,0 0.75,0.84375 1.78125,2 0.375,0.40625 0.375,-0.40625 1.8125,-2 0.75,-0.84375 -1.125,0 -0.78125,0 0,-2.5 0,-0.5 z m -2,0 0,-0.5 0,-1 0,-0.5 -0.5,0 -2.5,0 0,-0.78125 0,-1.125 -0.84375,0.75 -2,1.78125 -0.40625,0.375 0.40625,0.375 2,1.8125 0.84375,0.75 0,-1.125 0,-0.8125 2.5,0 0.5,0 z M 74.5,22 76.3125,24 75,24 l 0,3 -1,0 0,-3 -1.28125,0 L 74.5,22 z M 70,26.6875 70,28 l 3,0 0,1 -3,0 0,1.3125 -2,-1.8125 2,-1.8125 z m 9,0 2,1.8125 -2,1.8125 0,-1.3125 -3,0 0,-1 3,0 0,-1.3125 z M 74,30 l 1,0 0,3 1.3125,0 L 74.5,35 72.71875,33 74,33 74,30 z"
           transform="translate(214.53572,326.50504)"
           id="path3197"
           style="fill:#000000;fill-opacity:0.66666669;fill-rule:evenodd;stroke:none" />
        <path
           d="m 289.03402,348.50668 -1.78672,2 1.3,0 0,3 1,0 0,-3 1.3,0 -1.81328,-2 z m -4.48672,4.7 -1.99816,1.79918 1.99816,1.80082 0,-1.3 3,0 0,-1 -3,0 0,-1.3 z m 9,0 0,1.3 -3,0 0,1 3,0 0,1.3 2.00355,-1.80082 -2.00355,-1.79918 z m -5,3.3 0,3 -1.3,0 1.78672,1.99836 1.81328,-1.99836 -1.3,0 0,-3 -1,0 z"
           id="path3513"
           style="fill:#ffffff;fill-opacity:0.86274511;fill-rule:evenodd;stroke:none" />
      </g>
    </g>
    <g
       transform="translate(20.999999,22.000005)"
       id="maximize">
      <rect
         width="16"
         height="16"
         x="215.53572"
         y="346.50504"
         id="rect3401"
         style="opacity:0;fill:#000000;fill-opacity:0.49803922;fill-rule:nonzero;stroke:none" />
      <g
         transform="translate(-49.32932,0)"
         id="g3230">
        <path
           d="m 51.96875,22.375 c -0.858029,1.9e-5 -1.5625,0.70446 -1.5625,1.5625 l 0,9.0625 c 2.1e-5,0.858039 0.70446,1.59375 1.5625,1.59375 l 12.0625,0 c 0.858061,1.9e-5 1.5625,-0.73571 1.5625,-1.59375 l 0,-9.0625 c 2.1e-5,-0.858051 -0.70446,-1.5625 -1.5625,-1.5625 l -12.0625,0 z m 0,0.59375 12.0625,0 C 64.56989,22.96875 65,23.39886 65,23.9375 L 65,33 c 0,0.53864 -0.43011,0.96875 -0.96875,0.96875 l -12.0625,0 C 51.43011,33.96875 51,33.53864 51,33 l 0,-9.0625 c 0,-0.53864 0.43011,-0.96875 0.96875,-0.96875 z m 0.03125,1 0,9 12,0 0,-9 -12,0 z m 5.0625,0.625 1.875,0 0.8125,0.8125 0.65625,0.65625 -1,0.96875 -0.4375,0.40625 0.4375,0.4375 0.625,0.625 -0.625,0.59375 -0.4375,0.40625 0.4375,0.4375 1,1 -0.65625,0.625 -0.8125,0.8125 -1.875,0 -0.78125,-0.8125 -0.625,-0.625 0.96875,-1 L 57.0625,29.5 56.59375,29.09375 56,28.5 56.625,27.875 57.03125,27.4375 56.625,27.03125 55.65625,26.0625 l 0.625,-0.65625 0.78125,-0.8125 z m -4.0625,0.375 2.84375,0 -1.0625,1.0625 1.40625,1.40625 -0.71875,0.71875 L 54.0625,26.75 53,27.8125 53,24.96875 z m 7.15625,0 2.84375,0 0,2.84375 -1.0625,-1.0625 -1.40625,1.40625 -0.71875,-0.71875 1.40625,-1.40625 -1.0625,-1.0625 z m -6.0625,2.65625 0.875,0.875 -0.90625,0.90625 -0.625,-0.625 -0.28125,-0.25 0.28125,-0.28125 0.65625,-0.625 z m 7.875,0 0.625,0.625 0.25,0.28125 -0.25,0.25 -0.625,0.625 L 61.0625,28.5 61.96875,27.625 z m -6.5,1.1875 0.71875,0.6875 -1.40625,1.40625 1.0625,1.0625 -2.84375,0 0,-2.78125 1.0625,1.03125 1.40625,-1.40625 z m 5.0625,0 1.40625,1.40625 L 63,29.1875 l 0,2.78125 -2.84375,0 1.0625,-1.0625 L 59.8125,29.5 60.53125,28.8125 z"
           transform="translate(214.53572,326.50504)"
           id="path3188"
           style="fill:#000000;fill-opacity:0.66666669;stroke:none" />
        <path
           d="m 266.50447,349.48103 c -0.53864,0 -0.96875,0.43011 -0.96875,0.96875 l 0,9.0625 c 0,0.53864 0.43011,0.96875 0.96875,0.96875 l 12.0625,0 c 0.53864,0 0.96875,-0.43011 0.96875,-0.96875 l 0,-9.0625 c 0,-0.53864 -0.43011,-0.96875 -0.96875,-0.96875 l -12.0625,0 z m 0.0312,1 12,0 0,9 -12,0 0,-9 z m 1,1 0,2.84375 1.0625,-1.0625 1.40625,1.40625 0.71875,-0.71875 -1.40625,-1.40625 1.0625,-1.0625 -2.84375,0 z m 7.15625,0 1.0625,1.0625 -1.40625,1.40625 0.71875,0.71875 1.40625,-1.40625 1.0625,1.0625 0,-2.84375 -2.84375,0 z m -4.6875,3.84375 -1.40625,1.40625 -1.0625,-1.03125 0,2.78125 2.84375,0 -1.0625,-1.0625 1.40625,-1.40625 -0.71875,-0.6875 z m 5.0625,0 -0.71875,0.6875 1.40625,1.40625 -1.0625,1.0625 2.84375,0 0,-2.78125 -1.0625,1.03125 -1.40625,-1.40625 z"
           id="scale"
           style="fill:#ffffff;fill-opacity:0.86274511;stroke:none" />
      </g>
    </g>
    <g
       transform="translate(21.167262,4.5996094e-6)"
       id="size-vertical">
      <path
         d="m 69.40625,21.25 -0.375,0.4375 -1.78125,2 -0.75,0.8125 1.125,0 0.8125,0 0,2.5 0,0.5 0.5,0 1,0 0.5,0 0,-0.5 0,-2.5 0.78125,0 1.125,0 -0.75,-0.84375 -1.8125,-2 -0.375,-0.40625 z M 69.375,22 l 1.8125,2 -1.28125,0 0,3 -1,0 0,-3 -1.3125,0 1.78125,-2 z"
         transform="translate(214.53572,326.50504)"
         id="path3282"
         style="fill:#000000;fill-opacity:0.66666669;fill-rule:evenodd;stroke:none" />
      <path
         d="m 68.4375,29.5 0,0.5 0,2.5 -0.8125,0 -1.125,0 0.75,0.84375 1.78125,2 0.375,0.40625 0.375,-0.40625 1.8125,-2 0.75,-0.84375 -1.125,0 -0.78125,0 0,-2.5 0,-0.5 -0.5,0 -1,0 -0.5,0 z m 0.46875,0.5 1,0 0,3 1.28125,0 -1.8125,2 -1.78125,-2 1.3125,0 0,-3 z"
         transform="translate(214.53572,326.50504)"
         id="path3278"
         style="fill:#000000;fill-opacity:0.66666669;fill-rule:evenodd;stroke:none" />
      <path
         d="m 283.91397,348.50504 -1.78672,2 1.3,0 0,3 1,0 0,-3 1.3,0 -1.81328,-2 z"
         id="path3266"
         style="fill:#ffffff;fill-opacity:0.86274511;fill-rule:evenodd;stroke:none" />
      <path
         d="m 283.43883,356.50668 0,3 -1.3,0 1.78672,1.99836 1.81328,-1.99836 -1.3,0 0,-3 -1,0 z"
         id="path3256"
         style="fill:#ffffff;fill-opacity:0.86274511;fill-rule:evenodd;stroke:none" />
      <rect
         width="16"
         height="16"
         x="275.53571"
         y="347.50504"
         id="rect3411"
         style="opacity:0;fill:#000000;fill-opacity:0.49803922;fill-rule:nonzero;stroke:none" />
    </g>
    <g
       transform="translate(26.470563,4.5996094e-6)"
       id="size-horizontal">
      <path
         d="m 51.53125,25.59375 0,1.125 0,0.78125 -2.5,0 -0.5,0 0,0.5 0,1 0,0.5 0.5,0 2.5,0 0,0.8125 0,1.125 0.8125,-0.75 2,-1.8125 0.4375,-0.375 -0.4375,-0.375 -2,-1.78125 -0.8125,-0.75 z M 52,26.6875 54,28.5 52,30.3125 52,29 l -3,0 0,-1 3,0 0,-1.3125 z"
         transform="translate(214.53572,326.50504)"
         id="path3280"
         style="fill:#000000;fill-opacity:0.66666669;fill-rule:evenodd;stroke:none" />
      <path
         d="m 43.53125,25.59375 -0.84375,0.75 -2,1.78125 -0.40625,0.375 0.40625,0.375 2,1.8125 0.84375,0.75 0,-1.125 0,-0.8125 2.5,0 0.5,0 0,-0.5 0,-1 0,-0.5 -0.5,0 -2.5,0 0,-0.78125 0,-1.125 z M 43,26.6875 43,28 l 3,0 0,1 -3,0 0,1.3125 -2,-1.8125 2,-1.8125 z"
         transform="translate(214.53572,326.50504)"
         id="path3276"
         style="fill:#000000;fill-opacity:0.66666669;fill-rule:evenodd;stroke:none" />
      <path
         d="m 257.5473,353.20668 -1.99816,1.79918 1.99816,1.80082 0,-1.3 3,0 0,-1 -3,0 0,-1.3 z"
         id="path3264"
         style="fill:#ffffff;fill-opacity:0.86274511;fill-rule:evenodd;stroke:none" />
      <path
         d="m 266.5473,353.20668 0,1.3 -3,0 0,1 3,0 0,1.3 2.00355,-1.80082 -2.00355,-1.79918 z"
         id="path3262"
         style="fill:#ffffff;fill-opacity:0.86274511;fill-rule:evenodd;stroke:none" />
      <rect
         width="16"
         height="16"
         x="254.53572"
         y="346.50504"
         id="rect3413"
         style="opacity:0;fill:#000000;fill-opacity:0.66666669;fill-rule:nonzero;stroke:none" />
    </g>
    <g
       transform="translate(0,-23.9375)"
       id="size-diagonal-tl2br">
      <rect
         width="16"
         height="16"
         x="236.53572"
         y="370.50504"
         id="rect2432"
         style="opacity:0;fill:#000000;fill-opacity:0.49803922;fill-rule:nonzero;stroke:none" />
      <path
         d="m 238.53572,372.95817 c -0.83142,2e-5 -1.53125,0.66857 -1.53125,1.5 l 0,9.0625 c -1e-5,0.83143 0.69983,1.53125 1.53125,1.53125 l 12.0625,0 c 0.83142,2e-5 1.5,-0.69982 1.5,-1.53125 l 0,-9.0625 c -1e-5,-0.83143 -0.66857,-1.5 -1.5,-1.5 l -12.0625,0 z m -0.0312,0.53125 12.0625,0 c 0.53864,0 0.96875,0.4301 0.96875,0.96875 l 0,9.0625 c 0,0.53864 -0.43011,0.96875 -0.96875,0.96875 l -12.0625,0 c -0.53864,0 -0.96875,-0.43011 -0.96875,-0.96875 l 0,-9.0625 c 0,-0.53865 0.43011,-0.96875 0.96875,-0.96875 z m 0.0312,1 0,9 12,0 0,-9 -12,0 z m 5.09375,0.5625 6.375,0 0,3.46875 -0.84375,0.8125 -0.65625,0.65625 -1.03125,-1.03125 -0.375,-0.375 -0.40625,0.375 -0.71875,0.6875 -0.40625,0.375 0.40625,0.40625 1,1.03125 -0.65625,0.65625 -0.84375,0.84375 -6.375,0 0,-3.375 0.84375,-0.84375 0.65625,-0.65625 1.03125,1 0.40625,0.375 0.375,-0.375 0.71875,-0.71875 0.375,-0.40625 -0.375,-0.375 -1.03125,-1 0.6875,-0.6875 0.84375,-0.84375 z m -4.09375,0.4375 2.84375,0 -1.0625,1.0625 1.40625,1.40625 -0.71875,0.71875 -1.40625,-1.40625 -1.0625,1.0625 0,-2.84375 z m 7.53125,3.84375 1.40625,1.40625 1.0625,-1.03125 0,2.78125 -2.84375,0 1.0625,-1.0625 -1.40625,-1.40625 0.71875,-0.6875 z"
         id="path2446"
         style="fill:#000000;fill-opacity:0.66666669;stroke:none" />
      <path
         d="m 238.51891,373.49666 c -0.53865,0 -0.96875,0.43011 -0.96875,0.96876 l 0,9.0625 c 0,0.53864 0.4301,0.96874 0.96875,0.96874 l 12.0625,0 c 0.53864,0 0.96875,-0.4301 0.96875,-0.96874 l 0,-9.0625 c 0,-0.53865 -0.43011,-0.96876 -0.96875,-0.96876 l -12.0625,0 z m 0.0312,1 12,0 0,9 -12,0 0,-9 z m 1,1 0,2.84376 1.0625,-1.0625 1.40625,1.40624 0.71875,-0.71874 -1.40626,-1.40626 1.0625,-1.0625 -2.84374,0 z m 7.53125,3.84376 -0.71876,0.6875 1.40626,1.40624 -1.0625,1.0625 2.84375,0 0,-2.78124 -1.0625,1.03124 -1.40625,-1.40624 z"
         id="path2438"
         style="fill:#ffffff;fill-opacity:0.86274511;stroke:none" />
    </g>
    <g
       transform="matrix(-1,0,0,1,510.10269,-23.9375)"
       id="size-diagonal-tr2bl">
      <rect
         width="16"
         height="16"
         x="236.53572"
         y="370.50504"
         id="rect3243"
         style="opacity:0;fill:#000000;fill-opacity:0.49803922;fill-rule:nonzero;stroke:none" />
      <path
         d="m 238.53572,372.95817 c -0.83142,2e-5 -1.53125,0.66857 -1.53125,1.5 l 0,9.0625 c -1e-5,0.83143 0.69983,1.53125 1.53125,1.53125 l 12.0625,0 c 0.83142,2e-5 1.5,-0.69982 1.5,-1.53125 l 0,-9.0625 c -1e-5,-0.83143 -0.66857,-1.5 -1.5,-1.5 l -12.0625,0 z m -0.0312,0.53125 12.0625,0 c 0.53864,0 0.96875,0.4301 0.96875,0.96875 l 0,9.0625 c 0,0.53864 -0.43011,0.96875 -0.96875,0.96875 l -12.0625,0 c -0.53864,0 -0.96875,-0.43011 -0.96875,-0.96875 l 0,-9.0625 c 0,-0.53865 0.43011,-0.96875 0.96875,-0.96875 z m 0.0312,1 0,9 12,0 0,-9 -12,0 z m 5.09375,0.5625 6.375,0 0,3.46875 -0.84375,0.8125 -0.65625,0.65625 -1.03125,-1.03125 -0.375,-0.375 -0.40625,0.375 -0.71875,0.6875 -0.40625,0.375 0.40625,0.40625 1,1.03125 -0.65625,0.65625 -0.84375,0.84375 -6.375,0 0,-3.375 0.84375,-0.84375 0.65625,-0.65625 1.03125,1 0.40625,0.375 0.375,-0.375 0.71875,-0.71875 0.375,-0.40625 -0.375,-0.375 -1.03125,-1 0.6875,-0.6875 0.84375,-0.84375 z m -4.09375,0.4375 2.84375,0 -1.0625,1.0625 1.40625,1.40625 -0.71875,0.71875 -1.40625,-1.40625 -1.0625,1.0625 0,-2.84375 z m 7.53125,3.84375 1.40625,1.40625 1.0625,-1.03125 0,2.78125 -2.84375,0 1.0625,-1.0625 -1.40625,-1.40625 0.71875,-0.6875 z"
         id="path3245"
         style="fill:#000000;fill-opacity:0.66666669;stroke:none" />
      <path
         d="m 238.51891,373.49666 c -0.53865,0 -0.96875,0.43011 -0.96875,0.96876 l 0,9.0625 c 0,0.53864 0.4301,0.96874 0.96875,0.96874 l 12.0625,0 c 0.53864,0 0.96875,-0.4301 0.96875,-0.96874 l 0,-9.0625 c 0,-0.53865 -0.43011,-0.96876 -0.96875,-0.96876 l -12.0625,0 z m 0.0312,1 12,0 0,9 -12,0 0,-9 z m 1,1 0,2.84376 1.0625,-1.0625 1.40625,1.40624 0.71875,-0.71874 -1.40626,-1.40626 1.0625,-1.0625 -2.84374,0 z m 7.53125,3.84376 -0.71876,0.6875 1.40626,1.40624 -1.0625,1.0625 2.84375,0 0,-2.78124 -1.0625,1.03124 -1.40625,-1.40624 z"
         id="path3247"
         style="fill:#ffffff;fill-opacity:0.86274511;stroke:none" />
    </g>
    <g
       id="status">
      <rect
         width="16"
         height="16"
         x="-274.53571"
         y="368.50504"
         transform="scale(-1,1)"
         id="rect2428"
         style="opacity:0;fill:#000000;fill-opacity:0.49803922;fill-rule:nonzero;stroke:none" />
      <path
         d="m 45.96875,44.46875 c -0.831419,9e-6 -1.5,0.66857 -1.5,1.5 l 0,9.0625 c -9e-6,0.831429 0.66857,1.53125 1.5,1.53125 l 12.0625,0 c 0.831431,9e-6 1.53125,-0.69983 1.53125,-1.53125 l 0,-9.0625 c -9e-6,-0.831421 -0.69982,-1.5 -1.53125,-1.5 l -12.0625,0 z m 0,0.53125 12.0625,0 C 58.5699,45 58.999999,45.4301 59,45.96875 l 0,9.0625 C 59,55.56989 58.569899,56 58.03125,56 l -12.0625,0 C 45.43011,56 44.999999,55.56989 45,55.03125 l 0,-9.0625 C 45,45.4301 45.430109,45 45.96875,45 z M 46,46 l 0,4 2.8125,0 1.8125,-1.8125 0.4375,-0.46875 0.34375,0.5625 2.15625,3.75 L 54.53125,50.25 54.6875,50 54.96875,50 58,50 58,46 46,46 z m 0.5625,0.5625 10.90625,0 0,2.90625 -2.5,0 -0.28125,0 -0.3125,0 -0.15625,0.25 -0.15625,0.25 0,0.03125 -0.5,0.9375 L 51.875,48 l -0.34375,-0.5625 -0.375,-0.625 -0.5,0.53125 -0.4375,0.46875 -1.625,1.65625 -2.03125,0 0,-2.90625 z m 4.28125,2.78125 -1.5,1.5 L 49.21875,51 49,51 l -3,0 0,4 12,0 0,-4 -2.75,0 -1.25,2.28125 -0.4375,0.75 -0.4375,-0.75 -2.28125,-3.9375 z M 50.75,50.25 l 1.90625,3.3125 0.4375,0.75 0.09375,0.15625 -6.625,0 0,-2.90625 2.4375,0 0.21875,0 0.28125,0 0.15625,-0.21875 L 49.75,51.25 49.78125,51.1875 50.75,50.25 z m 4.84375,1.3125 1.875,0 0,2.90625 -3.53125,0 0.09375,-0.15625 0.4375,-0.75 0.03125,0 1.09375,-2 z"
         transform="translate(214.53572,326.50504)"
         id="path2435"
         style="fill:#000000;fill-opacity:0.66666669;stroke:none" />
      <path
         d="m 260.50448,371.50504 c -0.53864,0 -0.96875,0.4301 -0.96875,0.96875 l 0,9.0625 c 0,0.53864 0.43011,0.96875 0.96875,0.96875 l 12.0625,0 c 0.53865,0 0.96875,-0.43011 0.96875,-0.96875 l 0,-9.0625 c 0,-0.53865 -0.4301,-0.96875 -0.96875,-0.96875 l -12.0625,0 z m 0.0312,1 12,0 -10e-6,4.01562 -3.03125,0 -0.28125,0 -0.15625,0.25 -0.96875,1.76563 -2.15625,-3.75 -0.34375,-0.5625 -0.4375,0.46875 -1.8125,1.8125 -2.8125,0 10e-6,-4 z m 4.84374,3.34375 2.28125,3.9375 0.4375,0.75 0.4375,-0.75 1.25,-2.26563 2.75,0 10e-6,3.98438 -12,0 -10e-6,-4 3,0 0.21875,0 0.125,-0.15625 1.5,-1.5 z"
         id="path2432"
         style="fill:#ffffff;fill-opacity:0.86274511;stroke:none" />
    </g>
    <path
       d="m 286.16072,368.38004 c -2.83433,0 -5.125,2.29067 -5.125,5.125 l 0,2.875 7.875,0 c -0.22121,-0.0318 -0.43674,-0.11897 -0.59375,-0.28125 l -2,-2 c -0.29606,-0.2863 -0.37766,-0.71379 -0.21875,-1.09375 0.15889,-0.37996 0.52577,-0.63469 0.9375,-0.625 l 0,-1 c -0.002,-0.51763 0.39089,-0.95143 0.90625,-1 0.0312,-0.001 0.0625,-0.001 0.0937,0 l 2,0 c 0.55226,5e-5 0.99994,0.44774 1,1 l 0,1 c 0.41173,-0.01 0.77863,0.24504 0.9375,0.625 0.15889,0.37996 0.0773,0.80745 -0.21875,1.09375 l -2,2 c -0.15701,0.16228 -0.37254,0.24948 -0.59375,0.28125 l 7.875,0 0,-2.875 c 0,-2.83433 -2.2907,-5.125 -5.125,-5.125 l -5.75,0 z m 1.875,3 0,2 -1,0 2,2 2,-2 -1,0 0,-2 -2,0 z m -7,6 0,2.875 c 0,2.83433 2.2907,5.125 5.125,5.125 l 5.75,0 c 2.83433,0 5.125,-2.29067 5.125,-5.125 l 0,-2.875 -7.875,0 c 0.22121,0.0318 0.43674,0.11897 0.59375,0.28125 l 2,2 c 0.29606,0.2863 0.37766,0.71379 0.21875,1.09375 -0.15889,0.37996 -0.52577,0.63469 -0.9375,0.625 l 0,1 c 0.002,0.51763 -0.39089,0.95143 -0.90625,1 -0.0312,0.001 -0.0625,0.001 -0.0937,0 l -2,0 c -0.55226,-5e-5 -0.99994,-0.44774 -1,-1 l 0,-1 c -0.41173,0.01 -0.77863,-0.24504 -0.9375,-0.625 -0.15889,-0.37996 -0.0773,-0.80745 0.21875,-1.09375 l 2,-2 c 0.15701,-0.16228 0.37254,-0.24948 0.59375,-0.28125 l -7.875,0 z m 8,1 -2,2 1,0 0,2 2,0 0,-2 1,0 -2,-2 z"
       id="return-to-source"
       style="fill:url(#linearGradient2649);fill-opacity:1;stroke:none" />
    <g
       transform="translate(12,-3)"
       id="help">
      <rect
         width="16"
         height="16"
         x="347.53571"
         y="373.50504"
         id="rect3273"
         style="opacity:0;fill:#ffffff;fill-opacity:0.49803922;stroke:none" />
      <path
         d="m 355.53572,385.50504 c -1.09002,-5.3e-4 -1.99947,0.90998 -2,2 -5.2e-4,1.09001 0.90998,1.99947 2,2 1.09,5.2e-4 1.99947,-0.90999 2,-2 0,-1.08966 -0.91034,-1.99948 -2,-2 z m 0,0.46875 c 0.82775,4e-4 1.5,0.67225 1.5,1.5 -3.9e-4,0.828 -0.672,1.5004 -1.5,1.5 -0.828,-4e-4 -1.5004,-0.672 -1.5,-1.5 4e-4,-0.828 0.672,-1.5004 1.5,-1.5 z"
         id="path3265"
         style="fill:#000000;fill-opacity:0.66666669;stroke:none" />
      <path
         d="m 138,47.5 c -0.66667,-10e-7 -1.26519,0.32768 -1.71875,0.78125 -0.45356,0.453569 -0.78124,1.05209 -0.78125,1.71875 0,0.666669 1e-5,1.33334 0,2 3e-5,0.276129 0.22387,0.49997 0.5,0.5 l 2,0 c 0.27613,-3.1e-5 0.49997,-0.22387 0.5,-0.5 0,-0.500001 0.0109,-0.97024 0.0937,-1.21875 0.0414,-0.124261 0.0815,-0.18494 0.125,-0.21875 C 138.76222,50.528689 138.83334,50.5 139,50.5 l 4,0 c 0.16667,-10e-7 0.23777,0.02869 0.28125,0.0625 0.0435,0.03381 0.0836,0.0945 0.125,0.21875 0.0828,0.248509 0.0938,0.71876 0.0937,1.21875 0,0.333329 -0.1217,0.56742 -0.4375,0.84375 -0.3158,0.276329 -0.7998,0.55456 -1.3125,0.875 -0.5127,0.320439 -1.06501,0.66189 -1.5,1.1875 -0.43499,0.525609 -0.75,1.23264 -0.75,2.09375 l 0,1 c 3e-5,0.276129 0.22387,0.49997 0.5,0.5 l 2,0 c 0.27613,-3.1e-5 0.49997,-0.22387 0.5,-0.5 l 0,0 c 0,-0.638891 0.18499,-1.05687 0.5,-1.4375 0.31501,-0.380631 0.79395,-0.69544 1.28125,-1 0.4873,-0.304561 1.0033,-0.58882 1.4375,-0.96875 C 146.15295,54.213819 146.5,53.66667 146.5,53 l 0,-3 c 0,-0.666671 -0.32768,-1.26518 -0.78125,-1.71875 C 145.26518,47.827679 144.66667,47.5 144,47.5 l -6,0 z m 0,0.5 6,0 c 1,0 2,1 2,2 l 0,3 c 0,2 -4,2 -4,5 l -2,0 0,-1 c 0,-3 4,-3 4,-5 0,-1 0,-2 -1,-2 l -4,0 c -1,0 -1,1 -1,2 l -2,0 c 0,-0.66667 0,-1.33333 0,-2 0,-1 1,-2 2,-2 z"
         transform="translate(214.53572,326.50504)"
         id="path3246"
         style="fill:#000000;fill-opacity:0.66666669;stroke:none" />
      <path
         d="m 352.53572,378.50504 -2,0 c 0,-0.66667 0,-1.33333 0,-2 0,-1 1,-2 2,-2 l 6,0 c 1,0 2,1 2,2 l 0,3 c 0,2 -4,2 -4,5 l -2,0 0,-1 c 0,-3 4,-3 4,-5 0,-1 0,-2 -1,-2 l -4,0 c -1,0 -1,1 -1,2 z"
         id="rect2460"
         style="fill:#ffffff;fill-opacity:0.86274511;stroke:none" />
      <path
         d="m 142.55957,67.000478 a 1,1 0 1 1 0,-4.78e-4"
         transform="matrix(1.5,0,0,1.5,143.19637,286.97379)"
         id="path3241"
         style="fill:#ffffff;fill-opacity:0.86274511;stroke:none" />
    </g>
    <g
       transform="translate(-8.2519531e-7,-3.9999954)"
       id="unmaximize">
      <rect
         width="16"
         height="16"
         x="236.53572"
         y="390.50504"
         id="rect2455"
         style="opacity:0;fill:#000000;fill-opacity:0.49803922;fill-rule:nonzero;stroke:none" />
      <path
         d="m 238.50397,393.50504 c -0.53864,0 -0.96875,0.4301 -0.96875,0.96875 l 0,9.0625 c 0,0.53864 0.43011,0.96875 0.96875,0.96875 l 12.0625,0 c 0.53864,0 0.96875,-0.43011 0.96875,-0.96875 l 0,-9.0625 c 0,-0.53865 -0.43011,-0.96875 -0.96875,-0.96875 l -12.0625,0 z m 0.0312,1 12,0 0,9 -12,0 0,-9 z m 4,4 0,-2.48329 -0.86057,0.89677 -1.40625,-1.40624 -0.71875,0.71874 1.40625,1.40626 -0.85937,0.86776 2.43869,0 z m 6.4363,0 -0.82812,-0.86776 1.40625,-1.40626 -0.71875,-0.71874 -1.40625,1.40624 -0.88943,-0.88281 0,2.46933 2.4363,0 z m -8.70312,4.00724 1.40625,-1.40624 0.86057,0.87656 0,-2.47756 -2.49819,0 0.91887,0.9135 -1.40625,1.40624 0.71875,0.6875 z m 8.5625,0 0.71875,-0.6875 -1.40625,-1.40624 0.89062,-0.9135 -2.4988,0 0,2.42911 0.88943,-0.82811 1.40625,1.40624 z"
         id="path2479"
         style="fill:#ffffff;fill-opacity:0.86274511;stroke:none" />
      <path
         d="m 238.50397,393.06754 c -0.77819,10e-6 -1.40625,0.62805 -1.40625,1.40625 l 0,9.0625 c 0,0.7782 0.62806,1.4375 1.40625,1.4375 l 12.0625,0 c 0.77819,10e-6 1.4375,-0.65931 1.4375,-1.4375 l 0,-9.0625 c 0,-0.7782 -0.65931,-1.40625 -1.4375,-1.40625 l -12.0625,0 z m 0,0.4375 12.0625,0 c 0.53864,0 0.96875,0.4301 0.96875,0.96875 l 0,9.0625 c 0,0.53864 -0.43011,0.96875 -0.96875,0.96875 l -12.0625,0 c -0.53864,0 -0.96875,-0.43011 -0.96875,-0.96875 l 0,-9.0625 c 0,-0.53865 0.43011,-0.96875 0.96875,-0.96875 z m 0.0312,1 0,9 12,0 0,-9 -12,0 z m 0.46875,0.46875 1.1875,0 -0.25,0.21875 -0.71875,0.71875 -0.21875,0.21875 0,-1.15625 z m 1.375,0 2.5625,0 -0.71875,0.75 -0.53125,0.53125 -1.09375,-1.0625 -0.21875,-0.21875 z m 2.625,0 3.09375,0 2.65625,0 -0.25,0.21875 -1.09375,1.09375 -0.5625,-0.5625 -0.75,-0.75 0,1.0625 0,2.46875 0,0.46875 0.4375,0 2.4375,0 1.0625,0 -0.71875,-0.78125 -0.53125,-0.53125 1.09375,-1.09375 0.21875,-0.25 0,2.75 0,2.6875 -0.21875,-0.25 -1.09375,-1.09375 0.5625,-0.59375 0.75,-0.75 -1.0625,0 -2.5,0 -0.4375,0 0,0.4375 0,2.4375 0,1.03125 0.75,-0.71875 0.5625,-0.5 1.09375,1.09375 0.21875,0.21875 -5.71875,0 0,-1.09375 0,-2.46875 0,-0.4375 -0.46875,0 -2.5,0 -1.03125,0 0,-2.75 0.21875,0.25 1.09375,1.09375 -0.53125,0.53125 -0.75,0.78125 1.0625,0 2.4375,0 0.46875,0 0,-0.46875 0,-2.46875 0,-1.0625 z m 5.9375,0 1.15625,0 0,1.15625 -0.21875,-0.21875 -0.71875,-0.71875 -0.21875,-0.21875 z m -8.6875,0.53125 1.40625,1.40625 0.875,-0.875 0,2.46875 -2.4375,0 0.84375,-0.875 -1.40625,-1.40625 0.71875,-0.71875 z m 8.5625,0 0.71875,0.71875 -1.40625,1.40625 0.84375,0.875 -2.4375,0 0,-2.46875 0.875,0.875 1.40625,-1.40625 z m -9.8125,3.625 0.71875,0.6875 0.59375,0.59375 -1.09375,1.09375 -0.21875,0.25 0,-2.625 z m 1.03125,0.375 2.5,0 0,2.46875 -0.875,-0.875 -1.40625,1.40625 -0.71875,-0.6875 1.40625,-1.40625 -0.90625,-0.90625 z m 6.5,0 2.5,0 -0.90625,0.90625 1.40625,1.40625 -0.71875,0.6875 -1.40625,-1.40625 -0.875,0.84375 0,-2.4375 z m -4.84375,2.25 0.53125,0.5625 0.75,0.75 -2.59375,0 0.21875,-0.21875 1.09375,-1.09375 z m -2.6875,0.1875 0.25,0.21875 0.71875,0.6875 0.21875,0.21875 -1.1875,0 0,-1.125 z m 11.09375,0 0,1.125 -1.1875,0 0.25,-0.21875 0.71875,-0.6875 0.21875,-0.21875 z"
         id="path2483"
         style="fill:#000000;fill-opacity:0.66666669;stroke:none" />
    </g>
    <g
       transform="translate(1.4433594e-5,-2.9999954)"
       id="collapse">
      <path
         d="m 94.8125,45.5 0.84375,0.84375 4,4 L 99.8125,50.5 94,50.5 l -0.5,0 0,0.5 0,2 0,0.5 0.5,0 5.8125,0 -0.15625,0.15625 -4,4 L 94.8125,58.5 96,58.5 l 8,0 1.21875,0 -0.875,-0.84375 -4,-4 -0.15625,-0.15625 5.8125,0 0.5,0 0,-0.5 0,-2 0,-0.5 -0.5,0 -5.8125,0 0.15625,-0.15625 4,-4 0.875,-0.84375 -1.21875,0 -8,0 -1.1875,0 z M 96,46 l 8,0 -4,4 -4,-4 z m -2,5 12,0 0,2 -12,0 0,-2 z m 6,3 4,4 -8,0 4,-4 z"
         transform="translate(214.53572,326.50504)"
         id="rect4120"
         style="font-size:medium;font-style:normal;font-variant:normal;font-weight:normal;font-stretch:normal;text-indent:0;text-align:start;text-decoration:none;line-height:normal;letter-spacing:normal;word-spacing:normal;text-transform:none;direction:ltr;block-progression:tb;writing-mode:lr-tb;text-anchor:start;color:#000000;fill:#000000;fill-opacity:0.66666669;fill-rule:nonzero;stroke:none;stroke-width:1;marker:none;visibility:visible;display:inline;overflow:visible;enable-background:accumulate;font-family:Bitstream Vera Sans;-inkscape-font-specification:Bitstream Vera Sans" />
      <rect
         width="16"
         height="16"
         x="306.53571"
         y="370.50504"
         id="rect2915"
         style="opacity:0;fill:#ffffff;fill-opacity:0.86274511;stroke:none" />
      <rect
         width="12"
         height="2.0038605"
         ry="0"
         x="308.53571"
         y="377.50119"
         id="rect2917"
         style="fill:#ffffff;fill-opacity:0.86274511;stroke:none" />
      <path
         d="m 310.53572,372.50504 4,4 4,-4 -8,0 z"
         id="path2919"
         style="fill:#ffffff;fill-opacity:0.86274511;fill-rule:evenodd;stroke:none" />
      <path
         d="m 310.53572,384.50504 4,-4 4,4 -8,0 z"
         id="path2926"
         style="fill:#ffffff;fill-opacity:0.86274511;fill-rule:evenodd;stroke:none" />
    </g>
    <g
       transform="translate(-0.49998557,0.5000046)"
       id="restore">
      <rect
         width="16"
         height="16"
         x="332.03571"
         y="366.00504"
         id="rect3718"
         style="opacity:0;fill:#ffffff;fill-opacity:0.59509804;stroke:none" />
      <path
         d="m 340.03572,367.3188 -0.34375,0.34375 -4,4 -0.84375,0.84375 -0.8125,0 -0.5,0 0,0.5 0,2 0,0.5 0.5,0 0.8125,0 0.84375,0.84375 4,4 0.34375,0.375 0.34375,-0.375 4,-4 0.875,-0.84375 0.78125,0 0.5,0 0,-0.5 0,-2 0,-0.5 -0.5,0 -0.78125,0 -0.875,-0.84375 -4,-4 -0.34375,-0.34375 z m 0,0.6875 4,4 -8,0 4,-4 z m -6,5 12,0 0,2 -12,0 0,-2 z m 2,3 8,0 -4,4 -4,-4 z"
         id="rect4128"
         style="font-size:medium;font-style:normal;font-variant:normal;font-weight:normal;font-stretch:normal;text-indent:0;text-align:start;text-decoration:none;line-height:normal;letter-spacing:normal;word-spacing:normal;text-transform:none;direction:ltr;block-progression:tb;writing-mode:lr-tb;text-anchor:start;color:#000000;fill:#000000;fill-opacity:0.66666669;fill-rule:nonzero;stroke:none;stroke-width:1;marker:none;visibility:visible;display:inline;overflow:visible;enable-background:accumulate;font-family:Bitstream Vera Sans;-inkscape-font-specification:Bitstream Vera Sans" />
      <rect
         width="12"
         height="2.0038605"
         ry="0"
         x="334.03571"
         y="373.00247"
         id="rect3724"
         style="fill:#ffffff;fill-opacity:0.86274511;stroke:none" />
      <path
         d="m 336.03573,376.0063 4,4 4,-4 -8,0 z"
         id="path3726"
         style="fill:#ffffff;fill-opacity:0.86274511;fill-rule:evenodd;stroke:none" />
      <path
         d="m 336.03573,372.0063 4,-4 4,4 -8,0 z"
         id="path3728"
         style="fill:#ffffff;fill-opacity:0.86274511;fill-rule:evenodd;stroke:none" />
    </g>
    <g
       id="delete">
      <path
         d="m 109,73.5 c -0.82235,0 -1.5,0.67765 -1.5,1.5 l 0,0.5 -2.0625,0 c -0.51278,0 -0.9375,0.42472 -0.9375,0.9375 l 0,0.5 c 0,0.34326 0.21229,0.57943 0.40625,0.71875 0.17456,0.12539 0.3702,0.17275 0.59375,0.1875 L 105.5,86 c 0,0.78779 0.64472,1.5 1.5,1.5 l 7,0 c 0.40462,0 0.80726,-0.0957 1.09375,-0.375 C 115.38024,86.84569 115.5,86.4258 115.5,86 l 0,-8.15625 c 0.22355,-0.0147 0.41919,-0.0621 0.59375,-0.1875 C 116.28771,77.51693 116.5,77.28076 116.5,76.9375 l 0,-0.5 c 0,-0.51153 -0.42346,-0.9375 -0.9375,-0.9375 l -2.0625,0 0,-0.5 c 0,-0.82235 -0.67765,-1.5 -1.5,-1.5 l -3,0 z m 0,0.5 3,0 c 0.554,0 1,0.446 1,1 l 0,1 2.5625,0 c 0.242,0 0.4375,0.1975 0.4375,0.4375 l 0,0.5 c 0,0.24 -0.3215,0.4375 -0.5625,0.4375 -0.241,0 -0.4375,0.1975 -0.4375,0.4375 L 115,86 c 0,0.67189 -0.36225,1 -1,1 l -7,0 c -0.59256,0 -1,-0.46703 -1,-1 l 0,-8.1875 c 0,-0.241 -0.1965,-0.4375 -0.4375,-0.4375 -0.241,0 -0.5625,-0.1975 -0.5625,-0.4375 l 0,-0.5 C 105,76.1965 105.1965,76 105.4375,76 l 2.5625,0 0,-1 c 0,-0.554 0.446,-1 1,-1 z m 0,1 0,1 3,0 0,-1 -3,0 z m -1.5,2.5625 c -0.241,0 -0.5,0.1975 -0.5,0.4375 l 0,7.625 c 0,0.241 0.259,0.4375 0.5,0.4375 0.242,0 0.5,-0.1975 0.5,-0.4375 L 108,78 c 0,-0.24 -0.259,-0.4375 -0.5,-0.4375 z m 3,0 c -0.241,0 -0.5,0.1975 -0.5,0.4375 l 0,7.59375 c 0,0.241 0.259,0.46875 0.5,0.46875 0.241,0 0.5,-0.22875 0.5,-0.46875 l 0,-7.625 c 0,-0.24 -0.259,-0.40625 -0.5,-0.40625 z m 3,0 c -0.241,0 -0.5,0.1975 -0.5,0.4375 l 0,7.5625 c 0,0.241 0.259,0.4375 0.5,0.4375 0.241,0 0.5,-0.1975 0.5,-0.4375 L 114,78 c 0,-0.24 -0.259,-0.4375 -0.5,-0.4375 z"
         transform="translate(214.53572,326.50504)"
         id="path4270"
         style="font-size:medium;font-style:normal;font-variant:normal;font-weight:normal;font-stretch:normal;text-indent:0;text-align:start;text-decoration:none;line-height:normal;letter-spacing:normal;word-spacing:normal;text-transform:none;direction:ltr;block-progression:tb;writing-mode:lr-tb;text-anchor:start;color:#000000;fill:#000000;fill-opacity:0.66666669;fill-rule:nonzero;stroke:none;stroke-width:1;marker:none;visibility:visible;display:inline;overflow:visible;enable-background:accumulate;font-family:Bitstream Vera Sans;-inkscape-font-specification:Bitstream Vera Sans" />
      <rect
         width="16"
         height="16"
         x="316.53571"
         y="399.50504"
         id="rect3770"
         style="fill:#802626;fill-opacity:0;fill-rule:nonzero;stroke:none" />
      <path
         d="m 323.53572,400.50504 c -0.554,0 -1,0.446 -1,1 l 0,1 -2.5625,0 c -0.241,0 -0.4375,0.1965 -0.4375,0.4375 l 0,0.5 c 0,0.24 0.3215,0.4375 0.5625,0.4375 0.241,0 0.4375,0.1965 0.4375,0.4375 l 0,8.1875 c 0,0.53297 0.40744,1 1,1 l 7,0 c 0.63775,0 1,-0.32811 1,-1 l 0,-8.1875 c 0,-0.24 0.1965,-0.4375 0.4375,-0.4375 0.241,0 0.5625,-0.1975 0.5625,-0.4375 l 0,-0.5 c 0,-0.24 -0.1955,-0.4375 -0.4375,-0.4375 l -2.5625,0 0,-1 c 0,-0.554 -0.446,-1 -1,-1 l -3,0 z m 0,1 3,0 0,1 -3,0 0,-1 z m -1.5,2.5625 c 0.241,0 0.5,0.1975 0.5,0.4375 l 0,7.625 c 0,0.24 -0.258,0.4375 -0.5,0.4375 -0.241,0 -0.5,-0.1965 -0.5,-0.4375 l 0,-7.625 c 0,-0.24 0.259,-0.4375 0.5,-0.4375 z m 3,0 c 0.241,0 0.5,0.16625 0.5,0.40625 l 0,7.625 c 0,0.24 -0.259,0.46875 -0.5,0.46875 -0.241,0 -0.5,-0.22775 -0.5,-0.46875 l 0,-7.59375 c 0,-0.24 0.259,-0.4375 0.5,-0.4375 z m 3,0 c 0.241,0 0.5,0.1975 0.5,0.4375 l 0,7.5625 c 0,0.24 -0.259,0.4375 -0.5,0.4375 -0.241,0 -0.5,-0.1965 -0.5,-0.4375 l 0,-7.5625 c 0,-0.24 0.259,-0.4375 0.5,-0.4375 z"
         id="path2922"
         style="fill:#ffffff;fill-opacity:0.86274511" />
    </g>
    <rect
       width="16"
       height="16"
       x="378.53571"
       y="397.50504"
       id="rect3818"
       style="fill:#ffffff;fill-opacity:0;fill-rule:nonzero;stroke:none" />
    <rect
       width="12"
       height="1.9999954"
       ry="9.1991978e-06"
       x="380.53571"
       y="404.50504"
       id="rect3787"
       style="fill:#ffffff;fill-opacity:0.49803922;fill-rule:nonzero;stroke:none" />
    <g
       id="add">
      <rect
         width="16"
         height="16"
         x="360.53571"
         y="397.50504"
         id="rect3816"
         style="fill:#ffffff;fill-opacity:0;fill-rule:nonzero;stroke:none" />
      <path
         d="m 367.53572,399.50504 0,5 -5,0 0,2 5,0 0,5 2,0 0,-5 5,0 0,-2 -5,0 0,-5 -2,0 z"
         id="rect3778"
         style="fill:#ffffff;fill-opacity:0.86274511;fill-rule:nonzero;stroke:none" />
      <path
         d="M 152.84375,72.5 A 0.50005,0.50005 0 0 0 152.5,73 l 0,4.5 -4.5,0 a 0.50005,0.50005 0 0 0 -0.5,0.5 l 0,2 a 0.50005,0.50005 0 0 0 0.5,0.5 l 4.5,0 0,4.5 a 0.50005,0.50005 0 0 0 0.5,0.5 l 2,0 a 0.50005,0.50005 0 0 0 0.5,-0.5 l 0,-4.5 4.5,0 a 0.50005,0.50005 0 0 0 0.5,-0.5 l 0,-2 A 0.50005,0.50005 0 0 0 160,77.5 l -4.5,0 0,-4.5 A 0.50005,0.50005 0 0 0 155,72.5 l -2,0 a 0.50005,0.50005 0 0 0 -0.0937,0 0.50005,0.50005 0 0 0 -0.0625,0 z M 153,73 l 2,0 0,5 5,0 0,2 -5,0 0,5 -2,0 0,-5 -5,0 0,-2 5,0 0,-5 z"
         transform="translate(214.53572,326.50504)"
         id="path5026"
         style="font-size:medium;font-style:normal;font-variant:normal;font-weight:normal;font-stretch:normal;text-indent:0;text-align:start;text-decoration:none;line-height:normal;letter-spacing:normal;word-spacing:normal;text-transform:none;direction:ltr;block-progression:tb;writing-mode:lr-tb;text-anchor:start;color:#000000;fill:#000000;fill-opacity:0.66666669;stroke:none;stroke-width:1;marker:none;visibility:visible;display:inline;overflow:visible;enable-background:accumulate;font-family:Bitstream Vera Sans;-inkscape-font-specification:Bitstream Vera Sans" />
    </g>
    <path
       d="M 165.84375,77.5 A 0.50005,0.50005 0 0 0 165.5,78 l 0,2 a 0.50005,0.50005 0 0 0 0.5,0.5 l 12,0 a 0.50005,0.50005 0 0 0 0.5,-0.5 l 0,-2 A 0.50005,0.50005 0 0 0 178,77.5 l -12,0 a 0.50005,0.50005 0 0 0 -0.0937,0 0.50005,0.50005 0 0 0 -0.0625,0 z M 166,78 l 12,0 0,2 -12,0 0,-2 z"
       transform="translate(214.53572,326.50504)"
       id="remove"
       style="font-size:medium;font-style:normal;font-variant:normal;font-weight:normal;font-stretch:normal;text-indent:0;text-align:start;text-decoration:none;line-height:normal;letter-spacing:normal;word-spacing:normal;text-transform:none;direction:ltr;block-progression:tb;writing-mode:lr-tb;text-anchor:start;color:#000000;fill:#000000;fill-opacity:0.66666669;fill-rule:nonzero;stroke:none;stroke-width:1;marker:none;visibility:visible;display:inline;overflow:visible;enable-background:accumulate;font-family:Bitstream Vera Sans;-inkscape-font-specification:Bitstream Vera Sans" />
    <g
       id="filter">
      <rect
         width="16"
         height="16"
         x="339.53571"
         y="398.5665"
         id="rect3912"
         style="fill:#43a958;fill-opacity:0;fill-rule:nonzero;stroke:none" />
      <path
         d="m 341.91345,400.50616 a 0.50039361,0.49997292 0 0 0 -0.31271,0.78112 l 3.94015,6.15521 0,5.56155 a 0.50039361,0.49997292 0 0 0 0.50033,0.49992 l 3.03329,0 a 0.50039361,0.49997292 0 0 0 0.50034,-0.49992 l 0,-5.56155 3.84633,-6.15521 a 0.50039361,0.49997292 0 0 0 -0.40652,-0.78112 l -11.00739,0 a 0.50039361,0.49997292 0 0 0 -0.0938,0 z m 1.00067,0.99983 9.19368,0 -3.47108,5.56156 a 0.50039361,0.49997292 0 0 0 -0.0625,0.24996 l 0,5.18662 -2.03262,0 0,-5.18662 a 0.50039361,0.49997292 0 0 0 -0.0625,-0.24996 l -3.5649,-5.56156 z"
         id="path3888"
         style="font-size:medium;font-style:normal;font-variant:normal;font-weight:normal;font-stretch:normal;text-indent:0;text-align:start;text-decoration:none;line-height:normal;letter-spacing:normal;word-spacing:normal;text-transform:none;direction:ltr;block-progression:tb;writing-mode:lr-tb;text-anchor:start;color:#000000;fill:#ffffff;fill-opacity:0.86220473;stroke:none;stroke-width:1.00001501999999998;marker:none;visibility:visible;display:inline;overflow:visible;enable-background:accumulate;font-family:Bitstream Vera Sans;-inkscape-font-specification:Bitstream Vera Sans" />
      <path
         d="m 341.82485,400.00499 c -0.36235,0.0698 -0.60475,0.34023 -0.71875,0.625 -0.11024,0.27537 -0.0996,0.61202 0.0937,0.90625 l 0,0.0313 -0.0313,0 3.875,6 0,5.4375 c 6e-5,0.56523 0.43506,0.99993 1,1 l 3.03125,0 c 0.56495,-6e-5 0.99994,-0.43476 1,-1 l 0,-5.375 3.78125,-6.0625 -0.0313,0 c 0.007,-0.0103 -0.007,-0.0208 0,-0.0313 0.2026,-0.32419 0.20831,-0.68859 0.0625,-0.96875 -0.15049,-0.28916 -0.47481,-0.55672 -0.875,-0.5625 l -10.96875,0 c -0.0104,-9.8e-4 -0.0208,6.5e-4 -0.0313,0 -0.0312,-0.002 -0.0626,-9.8e-4 -0.0937,0 a 0.50005,0.50005 0 0 0 -0.0625,0 0.50005,0.50005 0 0 0 -0.0313,0 z m 0.0313,0.5 a 0.50039361,0.49997292 0 0 1 0.0625,0 0.50039361,0.49997292 0 0 1 0.0937,0 l 11,0 a 0.50039361,0.49997292 0 0 1 0.40625,0.78125 l -3.84375,6.15625 0,5.5625 a 0.50039361,0.49997292 0 0 1 -0.5,0.5 l -3.03125,0 a 0.50039361,0.49997292 0 0 1 -0.5,-0.5 l 0,-5.5625 -3.9375,-6.15625 a 0.50039361,0.49997292 0 0 1 0.25,-0.78125 z m 1.0625,1 3.5625,5.5625 a 0.50039361,0.49997292 0 0 1 0.0625,0.25 l 0,5.1875 2.03125,0 0,-5.1875 a 0.50039361,0.49997292 0 0 1 0.0625,-0.25 l 3.46875,-5.5625 -9.1875,0 z m 0.90625,0.5 7.40625,0 -3,4.8125 a 0.50005,0.50005 0 0 0 -0.0313,0 c -0.0851,0.1537 -0.12777,0.32431 -0.125,0.5 l 0,4.6875 -1.03125,0 0,-4.6875 c 0.003,-0.17569 -0.0399,-0.3463 -0.125,-0.5 l -3.09375,-4.8125 z"
         id="path5044"
         style="font-size:medium;font-style:normal;font-variant:normal;font-weight:normal;font-stretch:normal;text-indent:0;text-align:start;text-decoration:none;line-height:normal;letter-spacing:normal;word-spacing:normal;text-transform:none;direction:ltr;block-progression:tb;writing-mode:lr-tb;text-anchor:start;color:#000000;fill:#000000;fill-opacity:0.66666669;stroke:none;stroke-width:1;marker:none;visibility:visible;display:inline;overflow:visible;enable-background:accumulate;font-family:Bitstream Vera Sans;-inkscape-font-specification:Bitstream Vera Sans" />
    </g>
  </g>
</svg>
